<svg width="1252" height="479" viewBox="0 0 1252 479" fill="none" xmlns="http://www.w3.org/2000/svg">
<g filter="url(#filter0_d_259_1541)">
<path d="M39 89.1352V33.5492H105.947V89.1352H39Z" fill="#D9D9D9"/>
<path d="M117.713 106.988V23H380.631V114.291H325.857V106.988H117.713Z" fill="#D9D9D9"/>
</g>
<g filter="url(#filter1_d_259_1541)">
<path d="M406.195 114.697V35.9834H494.646V114.697H406.195Z" fill="#D9D9D9"/>
<path d="M504.79 107.799V56.676H553.884V112.262H509.658V107.799H504.79Z" fill="#D9D9D9"/>
<path d="M559.158 128.086V56.676H637.06V124.028H615.556V128.086H596.081V124.028H583.908V128.086H559.158Z" fill="#D9D9D9"/>
<path d="M711.716 48.5613H650.449V73.3113H661.404V114.697H711.716V48.5613Z" fill="#D9D9D9"/>
<path d="M716.99 67.6309V48.5613H776.634L790.023 61.1391H842.363V138.635H790.023V134.172H776.634V124.028H731.191V86.7006L716.99 67.6309Z" fill="#D9D9D9"/>
<path d="M903.63 138.635V72.4998L1123.13 76.1514V154.865H1095.95V170.688H1022.92V151.213H1015.61V154.865H924.728V138.635H903.63Z" fill="#D9D9D9"/>
<path d="M1140.99 257.922V189.758H1227.41V382.483H1171.82V374.369H1140.99V266.442H1152.75V257.922H1140.99Z" fill="#D9D9D9"/>
</g>
<path d="M956.5 304.5L1081.5 382.5L1251.5 477.5V0.5H0.5V209H292.643M446.976 209H639.023H795.677L921 276" stroke="black"/>
<path d="M334.802 230.997L334.767 230.664L335.273 230.541C335.278 230.517 335.283 230.467 335.287 230.391C335.29 230.309 335.29 230.18 335.285 230.005C335.286 229.829 335.283 229.592 335.275 229.293L335.236 227.509C335.228 227.217 335.219 226.988 335.208 226.824C335.198 226.654 335.189 226.531 335.181 226.455C335.179 226.373 335.174 226.323 335.168 226.306L334.62 226.174L334.637 225.84H336.509C337.089 225.84 337.544 225.969 337.873 226.227C338.202 226.479 338.373 226.845 338.386 227.325C338.395 227.653 338.317 227.937 338.154 228.177C337.996 228.417 337.779 228.605 337.501 228.74C337.223 228.868 336.912 228.933 336.566 228.933C336.437 228.933 336.314 228.927 336.196 228.915C336.084 228.898 335.978 228.88 335.878 228.863L335.866 228.388C336.002 228.429 336.12 228.458 336.22 228.476C336.326 228.493 336.428 228.502 336.528 228.502C336.874 228.502 337.141 228.417 337.33 228.247C337.518 228.072 337.608 227.802 337.598 227.439C337.587 227.023 337.47 226.719 337.248 226.525C337.026 226.326 336.751 226.227 336.423 226.227H335.957C335.958 226.262 335.957 226.344 335.955 226.473C335.958 226.602 335.96 226.757 335.959 226.938C335.963 227.114 335.968 227.304 335.974 227.509L336.031 229.293C336.039 229.592 336.048 229.829 336.059 230.005C336.069 230.175 336.078 230.3 336.086 230.382C336.094 230.459 336.098 230.508 336.099 230.532L336.832 230.646L336.815 230.997H334.802ZM339.091 230.997L339.065 230.672L339.65 230.549C339.656 230.526 339.657 230.485 339.656 230.426C339.66 230.368 339.663 230.274 339.666 230.145C339.668 230.016 339.666 229.838 339.66 229.609L339.645 229.029C339.638 228.789 339.626 228.57 339.609 228.37C339.592 228.171 339.573 228.016 339.553 227.905L338.961 227.782L338.953 227.492L340.192 227.167L340.327 227.29C340.315 227.471 340.305 227.65 340.298 227.826C340.297 228.001 340.299 228.206 340.306 228.441L340.335 229.548C340.343 229.817 340.351 230.04 340.362 230.216C340.378 230.391 340.393 230.503 340.406 230.549L340.998 230.672L340.989 230.997H339.091ZM339.911 226.174C339.764 226.174 339.634 226.124 339.52 226.025C339.412 225.925 339.356 225.802 339.352 225.656C339.348 225.509 339.397 225.386 339.5 225.287C339.609 225.187 339.736 225.137 339.883 225.137C340.035 225.137 340.162 225.187 340.265 225.287C340.367 225.386 340.42 225.509 340.424 225.656C340.428 225.802 340.382 225.925 340.285 226.025C340.188 226.124 340.063 226.174 339.911 226.174ZM341.482 230.997L341.456 230.681L341.997 230.549C342.002 230.508 342.003 230.453 342.001 230.382C342.005 230.312 342.009 230.216 342.011 230.093C342.014 229.97 342.012 229.808 342.007 229.609L341.997 228.933C341.992 228.74 341.978 228.549 341.956 228.362C341.939 228.168 341.92 228.016 341.9 227.905L341.334 227.782L341.326 227.492L342.495 227.167L342.648 227.307L342.617 227.773L342.643 227.782C342.842 227.559 343.04 227.398 343.237 227.299C343.433 227.199 343.649 227.149 343.883 227.149C344.1 227.149 344.304 227.205 344.494 227.316C344.69 227.422 344.85 227.586 344.973 227.808C345.102 228.031 345.171 228.315 345.181 228.66L345.207 229.636C345.212 229.847 345.221 230.037 345.231 230.207C345.247 230.377 345.265 230.491 345.284 230.549L345.833 230.681L345.815 230.997H344.048L344.022 230.681L344.528 230.549C344.533 230.503 344.537 230.444 344.541 230.374C344.545 230.303 344.546 230.216 344.543 230.11C344.546 229.999 344.545 229.861 344.54 229.697L344.515 228.748C344.508 228.485 344.455 228.277 344.358 228.124C344.265 227.966 344.151 227.855 344.015 227.791C343.878 227.72 343.739 227.685 343.599 227.685C343.405 227.685 343.225 227.735 343.058 227.835C342.896 227.928 342.759 228.06 342.647 228.23L342.682 229.548C342.689 229.817 342.698 230.037 342.708 230.207C342.725 230.371 342.739 230.485 342.753 230.549L343.301 230.681L343.283 230.997H341.482ZM349.061 230.453C348.955 230.646 348.806 230.798 348.616 230.91C348.426 231.015 348.225 231.068 348.014 231.068C347.656 231.068 347.361 230.959 347.126 230.743C346.892 230.526 346.769 230.201 346.757 229.767L346.727 227.668H346.112L346.107 227.483L347.213 226.455H347.38L347.39 227.466L347.439 229.627C347.447 229.931 347.518 230.157 347.651 230.303C347.789 230.45 347.979 230.523 348.219 230.523C348.354 230.523 348.476 230.497 348.586 230.444C348.702 230.391 348.805 230.321 348.897 230.233L349.061 230.453ZM347.079 227.668L347.067 227.228H348.71L348.722 227.668H347.079ZM353.005 230.382L353.563 230.523L353.57 230.813L352.435 231.094L352.301 230.98L352.294 230.426L352.268 230.418C352.104 230.658 351.933 230.828 351.754 230.927C351.581 231.021 351.392 231.068 351.187 231.068C350.794 231.068 350.463 230.948 350.193 230.708C349.922 230.462 349.781 230.095 349.768 229.609L349.747 228.854C349.743 228.69 349.733 228.532 349.717 228.379C349.707 228.221 349.694 228.063 349.678 227.905L349.077 227.782L349.069 227.492L350.256 227.167L350.418 227.307C350.411 227.489 350.407 227.682 350.407 227.887C350.407 228.092 350.409 228.306 350.415 228.529L350.433 229.495C350.442 229.858 350.534 230.119 350.708 230.277C350.882 230.429 351.101 230.505 351.365 230.505C351.523 230.505 351.683 230.464 351.845 230.382C352.007 230.3 352.147 230.16 352.264 229.961L352.237 228.942C352.234 228.813 352.227 228.687 352.218 228.564C352.215 228.435 352.208 228.315 352.2 228.204C352.191 228.086 352.179 227.987 352.165 227.905L351.52 227.782L351.512 227.492L352.743 227.167L352.878 227.29C352.877 227.454 352.875 227.6 352.872 227.729C352.876 227.858 352.879 227.987 352.883 228.116C352.886 228.239 352.89 228.379 352.894 228.537L352.911 229.161C352.92 229.483 352.932 229.744 352.949 229.943C352.972 230.136 352.991 230.283 353.005 230.382ZM355.764 230.997L355.738 230.681L356.279 230.549C356.284 230.508 356.285 230.456 356.284 230.391C356.288 230.327 356.291 230.233 356.294 230.11C356.296 229.987 356.295 229.82 356.289 229.609L356.279 228.924C356.282 228.801 356.276 228.675 356.261 228.546C356.251 228.417 356.239 228.297 356.224 228.186C356.21 228.069 356.195 227.975 356.182 227.905L355.616 227.782L355.608 227.492L356.777 227.167L356.93 227.307L356.899 227.782L356.926 227.791C357.101 227.562 357.284 227.398 357.475 227.299C357.672 227.199 357.872 227.149 358.078 227.149C358.283 227.149 358.483 227.205 358.68 227.316C358.876 227.427 359.039 227.597 359.168 227.826C359.303 228.054 359.375 228.347 359.385 228.704L359.419 229.636C359.424 229.847 359.432 230.037 359.443 230.207C359.459 230.371 359.477 230.485 359.496 230.549L360.027 230.681L360.009 230.997H358.295L358.26 230.681L358.74 230.549C358.745 230.503 358.749 230.444 358.753 230.374C358.757 230.303 358.758 230.216 358.755 230.11C358.758 229.999 358.757 229.861 358.752 229.697L358.718 228.731C358.711 228.479 358.664 228.277 358.578 228.124C358.498 227.972 358.393 227.861 358.262 227.791C358.131 227.72 357.992 227.685 357.846 227.685C357.664 227.685 357.495 227.729 357.34 227.817C357.184 227.905 357.047 228.042 356.929 228.23L356.964 229.548C356.971 229.817 356.98 230.037 356.991 230.207C357.007 230.371 357.022 230.485 357.035 230.549L357.557 230.681L357.539 230.997H355.764ZM360.721 230.997L360.686 230.681L361.184 230.549C361.188 230.503 361.189 230.444 361.188 230.374C361.192 230.303 361.195 230.216 361.198 230.11C361.201 229.999 361.2 229.861 361.196 229.697L361.17 228.74C361.163 228.482 361.114 228.277 361.022 228.124C360.93 227.972 360.815 227.861 360.679 227.791C360.548 227.72 360.415 227.685 360.28 227.685C360.081 227.685 359.898 227.735 359.731 227.835C359.563 227.934 359.415 228.086 359.286 228.291L359.11 227.966C359.308 227.685 359.519 227.48 359.744 227.351C359.975 227.217 360.219 227.149 360.477 227.149C360.723 227.149 360.947 227.208 361.15 227.325C361.352 227.442 361.515 227.612 361.638 227.835C361.761 228.057 361.827 228.327 361.835 228.643L361.862 229.636C361.868 229.847 361.876 230.037 361.886 230.207C361.902 230.371 361.917 230.485 361.931 230.549L362.479 230.681L362.47 230.997H360.721ZM364.441 231.068C364.206 231.068 363.997 231.021 363.813 230.927C363.629 230.833 363.482 230.713 363.372 230.567C363.269 230.421 363.215 230.268 363.211 230.11C363.205 229.911 363.265 229.747 363.391 229.618C363.516 229.489 363.724 229.378 364.015 229.284L365.339 228.836L365.327 228.388C365.323 228.242 365.275 228.11 365.184 227.993C365.093 227.87 364.973 227.773 364.825 227.703C364.676 227.632 364.511 227.597 364.33 227.597C364.183 227.597 364.085 227.63 364.034 227.694C363.982 227.753 363.953 227.873 363.947 228.054L363.939 228.423C363.729 228.47 363.55 228.464 363.402 228.406C363.254 228.341 363.178 228.239 363.174 228.098C363.172 227.999 363.21 227.899 363.289 227.799C363.375 227.7 363.486 227.606 363.625 227.518C363.763 227.425 363.913 227.345 364.075 227.281C364.238 227.217 364.397 227.173 364.555 227.149C364.989 227.149 365.337 227.263 365.601 227.492C365.871 227.72 366.014 228.019 366.03 228.388L366.052 229.864C366.055 229.975 366.061 230.084 366.069 230.189C366.084 230.295 366.101 230.374 366.12 230.426L366.685 230.532L366.692 230.804L366.266 230.962C366.185 230.992 366.109 231.015 366.039 231.033C365.97 231.056 365.911 231.068 365.864 231.068C365.683 231.068 365.563 230.965 365.505 230.76L365.399 230.418H365.531C365.343 230.634 365.16 230.798 364.981 230.91C364.808 231.015 364.628 231.068 364.441 231.068ZM364.664 230.549C364.799 230.549 364.924 230.52 365.04 230.462C365.155 230.397 365.267 230.3 365.375 230.172L365.35 229.249L364.372 229.513C364.233 229.548 364.132 229.603 364.069 229.68C364.013 229.756 363.986 229.852 363.989 229.97C363.993 230.116 364.061 230.251 364.193 230.374C364.331 230.491 364.488 230.549 364.664 230.549ZM368.607 231.068C368.39 231.068 368.172 231.044 367.954 230.997C367.736 230.945 367.55 230.877 367.395 230.795L367.326 229.855H367.757L367.949 230.488C368.158 230.628 368.395 230.699 368.658 230.699C368.857 230.699 369.017 230.652 369.138 230.558C369.258 230.459 369.316 230.327 369.312 230.163C369.308 230.011 369.248 229.879 369.134 229.767C369.02 229.65 368.8 229.524 368.474 229.39C368.053 229.208 367.755 229.035 367.581 228.871C367.406 228.701 367.316 228.485 367.308 228.221C367.303 228.01 367.359 227.826 367.478 227.668C367.603 227.504 367.775 227.378 367.995 227.29C368.215 227.196 368.472 227.149 368.765 227.149C368.929 227.149 369.096 227.164 369.267 227.193C369.438 227.222 369.58 227.261 369.692 227.307L369.813 228.221H369.4L369.173 227.624C369.114 227.589 369.043 227.562 368.96 227.545C368.878 227.521 368.789 227.509 368.696 227.509C368.491 227.509 368.328 227.559 368.207 227.659C368.087 227.753 368.029 227.876 368.033 228.028C368.037 228.204 368.109 228.347 368.246 228.458C368.384 228.564 368.625 228.696 368.969 228.854C369.36 229.029 369.635 229.202 369.792 229.372C369.948 229.542 370.03 229.747 370.037 229.987C370.045 230.303 369.914 230.564 369.644 230.769C369.374 230.968 369.028 231.068 368.607 231.068ZM374.398 230.382L374.955 230.523L374.963 230.813L373.828 231.094L373.693 230.98L373.687 230.426L373.66 230.418C373.497 230.658 373.326 230.828 373.147 230.927C372.974 231.021 372.784 231.068 372.579 231.068C372.187 231.068 371.855 230.948 371.585 230.708C371.315 230.462 371.173 230.095 371.16 229.609L371.14 228.854C371.135 228.69 371.125 228.532 371.11 228.379C371.099 228.221 371.086 228.063 371.07 227.905L370.47 227.782L370.462 227.492L371.648 227.167L371.81 227.307C371.803 227.489 371.8 227.682 371.799 227.887C371.799 228.092 371.802 228.306 371.808 228.529L371.825 229.495C371.835 229.858 371.927 230.119 372.101 230.277C372.275 230.429 372.494 230.505 372.758 230.505C372.916 230.505 373.076 230.464 373.238 230.382C373.399 230.3 373.539 230.16 373.657 229.961L373.63 228.942C373.626 228.813 373.62 228.687 373.611 228.564C373.607 228.435 373.601 228.315 373.592 228.204C373.583 228.086 373.572 227.987 373.558 227.905L372.913 227.782L372.905 227.492L374.136 227.167L374.271 227.29C374.269 227.454 374.267 227.6 374.265 227.729C374.268 227.858 374.272 227.987 374.275 228.116C374.279 228.239 374.282 228.379 374.287 228.537L374.303 229.161C374.312 229.483 374.325 229.744 374.342 229.943C374.365 230.136 374.383 230.283 374.398 230.382ZM375.504 230.997L375.478 230.681L375.975 230.549C375.98 230.491 375.983 230.397 375.986 230.268C375.988 230.134 375.989 229.967 375.99 229.767C375.99 229.562 375.987 229.334 375.98 229.082L375.946 227.808C375.94 227.586 375.931 227.36 375.919 227.132C375.913 226.897 375.904 226.675 375.892 226.464C375.886 226.253 375.879 226.074 375.869 225.928C375.859 225.782 375.854 225.682 375.852 225.629L375.199 225.541L375.174 225.26L376.404 224.9L376.583 225.023C376.582 225.222 376.582 225.418 376.581 225.612C376.58 225.799 376.58 225.995 376.579 226.2C376.579 226.4 376.582 226.613 376.588 226.842C376.594 227.064 376.6 227.307 376.607 227.571L376.656 229.724C376.661 229.876 376.667 230.011 376.676 230.128C376.685 230.239 376.693 230.33 376.701 230.4C376.709 230.47 376.713 230.52 376.714 230.549L377.262 230.681L377.253 230.997H375.504ZM379.442 230.997H378.44C378.33 230.857 378.246 230.751 378.185 230.681C378.125 230.611 378.061 230.544 377.995 230.479L376.756 229.17H376.51L376.513 228.959L376.844 228.863L378.033 227.65L377.45 227.545L377.459 227.22H379.226L379.252 227.545L378.675 227.65L377.14 229.065L377.263 228.748L378.538 230.084C378.616 230.16 378.704 230.248 378.8 230.347C378.902 230.447 378.99 230.529 379.062 230.593L379.459 230.672L379.442 230.997ZM345.506 237.995L345.48 237.661L345.907 237.538L347.595 232.987L348.097 232.679L350.143 237.538L350.586 237.661L350.569 237.995H348.793L348.767 237.661L349.299 237.538L348.746 236.238L348.642 235.965L347.62 233.576L347.819 233.461L346.972 235.965L346.882 236.229L346.452 237.538L346.991 237.661L346.983 237.995H345.506ZM346.693 236.37L346.68 235.904C346.792 235.91 346.944 235.916 347.138 235.921C347.331 235.927 347.569 235.93 347.85 235.93C348.125 235.93 348.36 235.927 348.553 235.921C348.752 235.916 348.904 235.91 349.009 235.904L349.022 236.37C348.823 236.364 348.623 236.361 348.424 236.361C348.231 236.355 348.043 236.352 347.861 236.352C347.686 236.352 347.501 236.355 347.308 236.361C347.12 236.361 346.915 236.364 346.693 236.37ZM350.885 237.995L350.85 237.679L351.392 237.547C351.397 237.518 351.401 237.465 351.405 237.389C351.409 237.313 351.409 237.21 351.405 237.081C351.408 236.952 351.406 236.794 351.401 236.607L351.392 235.921C351.387 235.728 351.373 235.538 351.35 235.35C351.333 235.163 351.315 235.014 351.294 234.902L350.728 234.779L350.721 234.489L351.89 234.164L352.016 234.287L352.001 235.025L352.027 235.034C352.194 234.694 352.366 234.466 352.545 234.349C352.723 234.226 352.891 234.164 353.05 234.164C353.184 234.164 353.297 234.199 353.386 234.27C353.482 234.334 353.532 234.434 353.535 234.568C353.539 234.709 353.492 234.817 353.394 234.894C353.303 234.964 353.183 234.999 353.037 234.999C352.931 234.999 352.828 234.976 352.727 234.929C352.632 234.882 352.54 234.817 352.45 234.735L352.609 234.788C352.5 234.858 352.397 234.958 352.301 235.087C352.205 235.21 352.118 235.365 352.041 235.552L352.072 236.37C352.082 236.516 352.092 236.668 352.102 236.826C352.112 236.985 352.121 237.128 352.131 237.257C352.14 237.38 352.148 237.477 352.156 237.547L352.924 237.661L352.915 237.995H350.885ZM355.782 238.065C355.443 238.065 355.133 237.989 354.853 237.837C354.58 237.685 354.357 237.468 354.186 237.187C354.02 236.9 353.931 236.563 353.921 236.176C353.91 235.76 353.985 235.4 354.147 235.096C354.309 234.791 354.525 234.557 354.796 234.393C355.067 234.223 355.361 234.141 355.677 234.147C356.134 234.153 356.496 234.305 356.762 234.604C357.027 234.902 357.168 235.324 357.182 235.869L357.187 236.027H354.488L354.478 235.64H356.596L356.503 235.755L356.498 235.57C356.488 235.23 356.405 234.97 356.248 234.788C356.091 234.607 355.88 234.516 355.617 234.516C355.453 234.516 355.296 234.566 355.146 234.665C354.996 234.759 354.877 234.905 354.789 235.104C354.7 235.298 354.66 235.544 354.668 235.842L354.671 235.948C354.684 236.428 354.811 236.803 355.053 237.072C355.3 237.342 355.611 237.477 355.986 237.477C356.191 237.477 356.375 237.436 356.537 237.354C356.699 237.272 356.853 237.14 357.001 236.958L357.226 237.16C357.07 237.465 356.868 237.693 356.62 237.846C356.372 237.992 356.093 238.065 355.782 238.065ZM359.28 238.065C359.046 238.065 358.837 238.018 358.653 237.925C358.468 237.831 358.322 237.711 358.212 237.564C358.109 237.418 358.055 237.266 358.051 237.108C358.045 236.908 358.105 236.744 358.231 236.616C358.356 236.487 358.564 236.375 358.855 236.282L360.178 235.834L360.166 235.386C360.163 235.239 360.115 235.107 360.024 234.99C359.933 234.867 359.813 234.771 359.665 234.7C359.516 234.63 359.351 234.595 359.17 234.595C359.023 234.595 358.924 234.627 358.873 234.691C358.822 234.75 358.793 234.87 358.786 235.052L358.779 235.421C358.569 235.468 358.39 235.462 358.242 235.403C358.094 235.339 358.018 235.236 358.014 235.096C358.011 234.996 358.05 234.896 358.129 234.797C358.214 234.697 358.326 234.604 358.464 234.516C358.602 234.422 358.753 234.343 358.915 234.279C359.077 234.214 359.237 234.17 359.395 234.147C359.828 234.147 360.177 234.261 360.441 234.489C360.711 234.718 360.854 235.017 360.87 235.386L360.892 236.862C360.895 236.973 360.9 237.081 360.909 237.187C360.924 237.292 360.94 237.371 360.959 237.424L361.525 237.529L361.532 237.802L361.106 237.96C361.024 237.989 360.949 238.013 360.879 238.03C360.809 238.054 360.751 238.065 360.704 238.065C360.523 238.065 360.403 237.963 360.344 237.758L360.239 237.415H360.37C360.183 237.632 360 237.796 359.821 237.907C359.648 238.013 359.468 238.065 359.28 238.065ZM359.504 237.547C359.639 237.547 359.764 237.518 359.879 237.459C359.995 237.395 360.107 237.298 360.214 237.169L360.19 236.247L359.212 236.51C359.073 236.545 358.972 236.601 358.909 236.677C358.853 236.753 358.826 236.85 358.829 236.967C358.833 237.113 358.901 237.248 359.033 237.371C359.171 237.488 359.328 237.547 359.504 237.547ZM366.646 238.074C366.136 238.074 365.668 237.977 365.241 237.784C364.819 237.585 364.477 237.292 364.215 236.905C363.953 236.513 363.814 236.03 363.798 235.456C363.788 235.087 363.843 234.741 363.964 234.419C364.084 234.091 364.264 233.804 364.503 233.558C364.748 233.306 365.048 233.11 365.401 232.969C365.755 232.829 366.16 232.759 366.617 232.759C366.858 232.759 367.113 232.782 367.384 232.829C367.655 232.876 367.897 232.943 368.11 233.031L368.204 234.235L367.809 234.27L367.523 233.435C367.41 233.359 367.262 233.303 367.079 233.268C366.897 233.227 366.72 233.207 366.55 233.207C366.111 233.207 365.753 233.303 365.477 233.497C365.207 233.684 365.008 233.936 364.882 234.252C364.762 234.568 364.707 234.917 364.717 235.298C364.73 235.796 364.826 236.217 365.006 236.563C365.191 236.908 365.432 237.169 365.73 237.345C366.033 237.521 366.364 237.608 366.721 237.608C366.909 237.608 367.078 237.588 367.229 237.547C367.381 237.506 367.525 237.444 367.664 237.362L368.028 236.536L368.434 236.58L368.218 237.687C368.021 237.793 367.786 237.884 367.513 237.96C367.24 238.036 366.951 238.074 366.646 238.074Z" fill="black"/>
<path d="M398.999 220.796V214.93C398.999 214.152 399.402 213.393 400.118 212.819C400.834 212.246 401.805 211.905 402.818 211.872L425.728 211.125C426.741 211.092 427.712 211.369 428.428 211.896C429.145 212.422 429.547 213.155 429.547 213.933V219.799L425.728 219.924V214.058L402.818 214.805V220.671L398.999 220.796Z" fill="black"/>
<path d="M404.973 230.42L407.126 232.458L413.171 226.433L413.171 240.018C413.171 240.412 413.332 240.784 413.619 241.053C413.906 241.323 414.295 241.466 414.7 241.453C415.106 241.439 415.495 241.27 415.782 240.982C416.069 240.694 416.23 240.31 416.23 239.916L416.23 226.305L422.266 232.017L424.437 229.854L414.746 220.681L404.973 230.42Z" fill="black"/>
<path d="M291.5 209H377.5" stroke="black"/>
<path d="M925.273 296.44L927.323 304.09M927.323 304.09L934.973 302.04M927.323 304.09L934.043 292.45M925.314 287.41L927.554 283.53C927.851 283.016 928.34 282.64 928.914 282.487C929.488 282.333 930.099 282.413 930.613 282.71L944.193 290.55C944.707 290.847 945.083 291.337 945.237 291.911C945.39 292.484 945.31 293.096 945.013 293.61L942.773 297.49" stroke="black" stroke-width="2.64936" stroke-linecap="round" stroke-linejoin="round"/>
<path d="M929.519 257.557L929.64 257.244L930.147 257.367C930.162 257.348 930.189 257.306 930.227 257.24C930.268 257.169 930.327 257.054 930.403 256.896C930.484 256.74 930.59 256.527 930.72 256.258L931.501 254.655C931.629 254.391 931.725 254.183 931.791 254.033C931.86 253.877 931.908 253.764 931.936 253.692C931.971 253.618 931.99 253.572 931.993 253.554L931.565 253.185L931.734 252.896L933.398 253.754C933.914 254.019 934.259 254.342 934.434 254.722C934.611 255.096 934.595 255.5 934.387 255.933C934.244 256.229 934.046 256.446 933.79 256.584C933.54 256.726 933.261 256.793 932.952 256.785C932.646 256.773 932.34 256.687 932.032 256.529C931.918 256.47 931.811 256.408 931.712 256.344C931.621 256.277 931.534 256.213 931.453 256.152L931.659 255.724C931.761 255.823 931.853 255.903 931.934 255.964C932.02 256.028 932.107 256.083 932.196 256.129C932.503 256.287 932.78 256.334 933.025 256.269C933.273 256.2 933.476 256.001 933.634 255.674C933.814 255.299 933.85 254.975 933.741 254.701C933.635 254.422 933.436 254.208 933.144 254.058L932.73 253.844C932.715 253.876 932.677 253.949 932.616 254.062C932.56 254.178 932.49 254.317 932.406 254.478C932.329 254.636 932.247 254.808 932.158 254.993L931.392 256.604C931.262 256.873 931.162 257.089 931.091 257.25C931.022 257.405 930.973 257.522 930.942 257.598C930.914 257.67 930.895 257.716 930.885 257.737L931.484 258.174L931.308 258.478L929.519 257.557ZM933.332 259.521L933.458 259.22L934.034 259.378C934.05 259.36 934.07 259.324 934.096 259.272C934.126 259.221 934.172 259.14 934.233 259.026C934.294 258.913 934.375 258.753 934.474 258.547L934.725 258.025C934.83 257.808 934.92 257.607 934.996 257.423C935.072 257.238 935.126 257.091 935.159 256.983L934.688 256.602L934.814 256.341L936.065 256.619L936.129 256.791C936.034 256.946 935.944 257.1 935.857 257.253C935.776 257.409 935.684 257.593 935.582 257.804L935.102 258.802C934.985 259.044 934.891 259.246 934.82 259.407C934.754 259.571 934.716 259.677 934.706 259.724L935.177 260.105L935.02 260.39L933.332 259.521ZM936.269 255.608C936.139 255.541 936.046 255.437 935.99 255.296C935.94 255.158 935.946 255.023 936.01 254.891C936.073 254.759 936.173 254.672 936.31 254.631C936.453 254.592 936.589 254.606 936.719 254.673C936.855 254.743 936.945 254.846 936.99 254.981C937.036 255.116 937.027 255.25 936.963 255.382C936.899 255.514 936.802 255.602 936.67 255.646C936.538 255.69 936.405 255.678 936.269 255.608ZM935.457 260.615L935.579 260.322L936.121 260.453C936.144 260.419 936.17 260.37 936.201 260.306C936.237 260.246 936.284 260.161 936.342 260.053C936.401 259.945 936.474 259.801 936.56 259.622L936.861 259.016C936.945 258.842 937.02 258.666 937.086 258.489C937.159 258.309 937.212 258.165 937.245 258.057L936.798 257.689L936.924 257.427L938.112 257.674L938.184 257.869L937.943 258.268L937.962 258.288C938.241 258.182 938.491 258.129 938.711 258.13C938.932 258.132 939.146 258.186 939.354 258.294C939.547 258.393 939.703 258.536 939.821 258.722C939.947 258.905 940.014 259.124 940.022 259.378C940.034 259.635 939.966 259.92 939.816 260.231L939.393 261.11C939.301 261.3 939.221 261.473 939.153 261.629C939.089 261.787 939.053 261.897 939.043 261.958L939.47 262.326L939.31 262.599L937.739 261.79L937.861 261.497L938.371 261.612C938.397 261.572 938.427 261.522 938.463 261.461C938.499 261.401 938.539 261.323 938.585 261.228C938.639 261.13 938.701 261.008 938.772 260.86L939.184 260.004C939.298 259.767 939.347 259.558 939.33 259.378C939.32 259.195 939.269 259.044 939.178 258.924C939.088 258.799 938.981 258.704 938.856 258.64C938.684 258.551 938.501 258.513 938.307 258.525C938.12 258.534 937.938 258.589 937.76 258.688L937.188 259.876C937.071 260.119 936.979 260.318 936.91 260.474C936.849 260.627 936.81 260.735 936.793 260.799L937.22 261.167L937.059 261.44L935.457 260.615ZM942.445 263.601C942.262 263.724 942.061 263.792 941.84 263.804C941.623 263.81 941.42 263.765 941.233 263.668C940.915 263.505 940.701 263.273 940.592 262.973C940.483 262.673 940.523 262.328 940.711 261.937L941.645 260.057L941.098 259.775L941.179 259.609L942.633 259.201L942.781 259.278L942.327 260.18L941.381 262.124C941.249 262.399 941.208 262.632 941.26 262.823C941.316 263.016 941.451 263.168 941.664 263.278C941.784 263.34 941.905 263.372 942.027 263.376C942.154 263.382 942.278 263.367 942.4 263.331L942.445 263.601ZM941.958 260.218L942.149 259.822L943.61 260.574L943.419 260.97L941.958 260.218ZM945.984 265.344L946.415 265.725L946.289 265.986L945.151 265.716L945.084 265.553L945.332 265.058L945.312 265.038C945.057 265.177 944.827 265.249 944.622 265.256C944.425 265.26 944.236 265.215 944.053 265.121C943.704 264.941 943.465 264.683 943.334 264.346C943.207 264.003 943.248 263.613 943.459 263.175L943.787 262.494C943.859 262.346 943.922 262.201 943.978 262.058C944.041 261.913 944.102 261.766 944.16 261.618L943.682 261.234L943.808 260.973L945.012 261.227L945.091 261.426C945.002 261.584 944.91 261.754 944.816 261.937C944.722 262.119 944.627 262.31 944.53 262.511L944.103 263.378C943.945 263.705 943.908 263.979 943.99 264.199C944.075 264.414 944.235 264.582 944.469 264.703C944.61 264.775 944.771 264.812 944.952 264.813C945.134 264.815 945.322 264.754 945.518 264.63L945.961 263.712C946.016 263.596 946.068 263.481 946.117 263.367C946.173 263.251 946.222 263.142 946.265 263.039C946.311 262.93 946.346 262.837 946.371 262.757L945.854 262.353L945.98 262.091L947.223 262.366L947.287 262.537C947.21 262.682 947.142 262.811 947.081 262.925C947.025 263.041 946.969 263.157 946.913 263.273C946.859 263.384 946.798 263.511 946.73 263.653L946.459 264.216C946.319 264.506 946.211 264.744 946.135 264.928C946.067 265.111 946.017 265.249 945.984 265.344ZM948.186 267.17L948.308 266.877L948.81 266.988C948.841 266.938 948.887 266.856 948.948 266.743C949.012 266.624 949.089 266.476 949.181 266.299C949.275 266.117 949.377 265.913 949.486 265.686L950.039 264.537C950.135 264.337 950.231 264.132 950.325 263.923C950.426 263.712 950.52 263.51 950.607 263.318C950.698 263.128 950.773 262.965 950.831 262.831C950.89 262.696 950.93 262.605 950.953 262.557L950.413 262.18L950.519 261.919L951.778 262.162L951.88 262.353C951.789 262.53 951.698 262.704 951.609 262.875C951.523 263.042 951.432 263.216 951.338 263.398C951.247 263.575 951.151 263.766 951.052 263.972C950.956 264.173 950.85 264.392 950.736 264.629L949.794 266.565C949.728 266.703 949.672 266.825 949.626 266.934C949.583 267.037 949.549 267.121 949.524 267.187C949.498 267.253 949.479 267.3 949.467 267.326L949.894 267.694L949.741 267.971L948.186 267.17ZM951.687 268.973L950.796 268.514C950.763 268.339 950.736 268.207 950.714 268.117C950.693 268.027 950.667 267.938 950.638 267.85L950.136 266.119L949.917 266.006L950.016 265.82L950.355 265.886L951.967 265.352L951.497 264.992L951.654 264.707L953.224 265.516L953.099 265.817L952.538 265.646L950.525 266.201L950.78 265.976L951.302 267.747C951.336 267.851 951.374 267.969 951.414 268.101C951.459 268.237 951.499 268.35 951.534 268.44L951.851 268.692L951.687 268.973ZM953.578 270.026C953.276 269.871 953.036 269.661 952.857 269.398C952.683 269.137 952.585 268.843 952.561 268.514C952.545 268.183 952.621 267.843 952.788 267.495C952.969 267.12 953.201 266.834 953.484 266.638C953.767 266.441 954.067 266.332 954.383 266.31C954.701 266.283 955 266.344 955.279 266.495C955.683 266.709 955.934 267.01 956.034 267.397C956.133 267.785 956.065 268.224 955.829 268.715L955.76 268.857L953.361 267.622L953.529 267.273L955.412 268.243L955.276 268.302L955.357 268.136C955.504 267.829 955.549 267.56 955.493 267.326C955.436 267.093 955.291 266.916 955.056 266.795C954.91 266.72 954.748 266.692 954.569 266.712C954.393 266.727 954.22 266.803 954.051 266.939C953.883 267.071 953.735 267.271 953.605 267.54L953.559 267.635C953.351 268.068 953.293 268.46 953.384 268.81C953.481 269.163 953.696 269.425 954.029 269.596C954.211 269.69 954.393 269.738 954.575 269.739C954.756 269.74 954.954 269.694 955.168 269.6L955.276 269.883C954.998 270.082 954.714 270.193 954.424 270.215C954.136 270.231 953.854 270.169 953.578 270.026ZM955.406 270.889L955.531 270.588L956.093 270.738C956.128 270.691 956.178 270.608 956.242 270.489C956.306 270.37 956.386 270.211 956.482 270.01C956.584 269.812 956.705 269.568 956.845 269.278L957.321 268.288C957.418 268.087 957.514 267.88 957.611 267.666C957.713 267.455 957.805 267.255 957.889 267.068C957.981 266.878 958.055 266.716 958.114 266.581C958.18 266.444 958.22 266.353 958.236 266.308L957.696 265.931L957.802 265.669L959.076 265.92L959.171 266.107C959.059 266.326 958.947 266.545 958.835 266.764C958.723 266.984 958.599 267.226 958.465 267.493C958.335 267.762 958.179 268.087 957.996 268.467L957.374 269.738C957.224 270.049 957.091 270.333 956.974 270.589C956.865 270.843 956.798 271.009 956.772 271.088L957.227 271.461L957.07 271.746L955.406 270.889ZM961.111 273.135L961.542 273.515L961.417 273.777L960.279 273.507L960.211 273.344L960.459 272.849L960.44 272.829C960.184 272.967 959.954 273.04 959.75 273.047C959.553 273.051 959.363 273.006 959.181 272.912C958.832 272.732 958.592 272.474 958.462 272.136C958.334 271.794 958.376 271.404 958.587 270.965L958.915 270.284C958.986 270.137 959.049 269.991 959.105 269.849C959.168 269.703 959.229 269.557 959.287 269.409L958.81 269.024L958.935 268.763L960.139 269.017L960.219 269.217C960.13 269.375 960.038 269.545 959.944 269.727C959.849 269.909 959.754 270.101 959.658 270.301L959.23 271.168C959.073 271.496 959.035 271.769 959.118 271.99C959.203 272.205 959.362 272.373 959.597 272.493C959.737 272.566 959.898 272.603 960.08 272.604C960.261 272.605 960.45 272.544 960.646 272.421L961.088 271.502C961.144 271.386 961.196 271.271 961.244 271.158C961.3 271.042 961.35 270.932 961.393 270.829C961.438 270.721 961.474 270.627 961.499 270.548L960.982 270.143L961.108 269.882L962.35 270.156L962.414 270.327C962.338 270.473 962.269 270.602 962.208 270.715C962.152 270.831 962.096 270.948 962.04 271.064C961.987 271.175 961.926 271.301 961.857 271.444L961.586 272.006C961.447 272.297 961.339 272.534 961.263 272.719C961.195 272.901 961.144 273.04 961.111 273.135ZM963.033 274.896C962.825 274.788 962.66 274.651 962.539 274.483C962.418 274.316 962.343 274.142 962.313 273.961C962.288 273.784 962.309 273.624 962.378 273.481C962.464 273.302 962.593 273.183 962.763 273.126C962.934 273.069 963.17 273.065 963.471 273.115L964.853 273.323L965.047 272.919C965.111 272.787 965.129 272.648 965.102 272.502C965.077 272.351 965.015 272.21 964.915 272.08C964.815 271.949 964.685 271.843 964.523 271.76C964.393 271.692 964.291 271.676 964.216 271.71C964.143 271.738 964.063 271.832 963.973 271.99L963.798 272.315C963.59 272.26 963.433 272.173 963.329 272.053C963.226 271.928 963.206 271.802 963.267 271.676C963.31 271.586 963.39 271.515 963.506 271.463C963.627 271.413 963.769 271.381 963.933 271.366C964.098 271.346 964.268 271.345 964.442 271.362C964.616 271.379 964.778 271.413 964.929 271.464C965.314 271.663 965.572 271.924 965.702 272.248C965.837 272.575 965.828 272.906 965.673 273.241L965.016 274.563C964.968 274.663 964.924 274.762 964.883 274.86C964.848 274.961 964.827 275.039 964.819 275.094L965.274 275.447L965.155 275.692L964.704 275.638C964.618 275.626 964.54 275.613 964.47 275.596C964.398 275.585 964.34 275.569 964.299 275.547C964.137 275.464 964.078 275.318 964.12 275.109L964.182 274.756L964.3 274.817C964.034 274.923 963.796 274.985 963.586 275.003C963.384 275.017 963.2 274.981 963.033 274.896ZM963.469 274.537C963.589 274.599 963.713 274.63 963.843 274.631C963.975 274.626 964.119 274.592 964.274 274.526L964.674 273.695L963.684 273.482C963.544 273.449 963.429 273.452 963.338 273.491C963.253 273.533 963.185 273.607 963.134 273.713C963.071 273.845 963.07 273.995 963.131 274.165C963.2 274.333 963.313 274.457 963.469 274.537ZM965.493 276.084L965.607 275.787L966.149 275.917C966.167 275.894 966.195 275.849 966.233 275.783C966.271 275.717 966.319 275.626 966.374 275.51C966.436 275.396 966.507 275.255 966.588 275.086L966.893 274.472C966.977 274.298 967.052 274.123 967.118 273.946C967.189 273.771 967.24 273.63 967.273 273.522L966.826 273.153L966.952 272.892L968.14 273.138L968.196 273.305L967.845 273.954L967.864 273.974C968.168 273.749 968.426 273.625 968.639 273.602C968.853 273.574 969.031 273.597 969.172 273.669C969.292 273.731 969.375 273.814 969.423 273.917C969.478 274.018 969.477 274.129 969.418 274.251C969.357 274.377 969.266 274.452 969.144 274.475C969.031 274.496 968.909 274.472 968.778 274.405C968.685 274.357 968.604 274.289 968.535 274.201C968.472 274.116 968.42 274.016 968.377 273.902L968.495 274.022C968.365 274.035 968.228 274.076 968.084 274.147C967.942 274.212 967.794 274.31 967.64 274.442L967.293 275.182C967.234 275.317 967.174 275.457 967.11 275.602C967.047 275.747 966.99 275.879 966.939 275.998C966.891 276.112 966.854 276.201 966.829 276.267L967.459 276.72L967.298 277.013L965.493 276.084ZM935.249 268.379L935.379 268.07L935.815 268.156L939.4 264.883L939.986 264.839L939.581 270.096L939.918 270.408L939.75 270.697L938.172 269.884L938.301 269.575L938.831 269.71L938.934 268.3L938.967 268.01L939.152 265.418L939.381 265.407L937.482 267.246L937.282 267.439L936.299 268.406L936.723 268.762L936.562 269.055L935.249 268.379ZM937.049 267.477L937.251 267.058C937.347 267.114 937.48 267.189 937.649 267.283C937.819 267.377 938.028 267.488 938.279 267.617C938.523 267.743 938.733 267.847 938.907 267.931C939.087 268.017 939.225 268.081 939.321 268.124L939.119 268.544C938.945 268.447 938.769 268.353 938.592 268.262C938.422 268.168 938.257 268.08 938.096 267.997C937.939 267.916 937.774 267.834 937.599 267.751C937.433 267.665 937.249 267.574 937.049 267.477ZM940.031 270.842L940.145 270.545L940.687 270.675C940.705 270.652 940.733 270.607 940.771 270.541C940.809 270.475 940.856 270.384 940.912 270.268C940.973 270.154 941.045 270.013 941.126 269.844L941.431 269.23C941.515 269.056 941.59 268.881 941.656 268.704C941.727 268.529 941.778 268.388 941.811 268.28L941.364 267.911L941.49 267.65L942.678 267.896L942.734 268.063L942.383 268.712L942.402 268.732C942.706 268.507 942.964 268.383 943.176 268.36C943.391 268.332 943.569 268.355 943.71 268.427C943.829 268.489 943.913 268.572 943.961 268.675C944.016 268.776 944.015 268.887 943.956 269.009C943.895 269.136 943.804 269.21 943.682 269.233C943.568 269.254 943.446 269.231 943.316 269.163C943.222 269.115 943.141 269.047 943.073 268.959C943.01 268.874 942.957 268.774 942.915 268.66L943.033 268.78C942.903 268.793 942.766 268.834 942.622 268.905C942.48 268.97 942.332 269.068 942.177 269.2L941.831 269.94C941.772 270.075 941.711 270.215 941.648 270.36C941.585 270.505 941.528 270.637 941.477 270.756C941.429 270.87 941.392 270.959 941.367 271.025L941.997 271.478L941.836 271.771L940.031 270.842ZM944.353 273.146C944.051 272.991 943.811 272.781 943.632 272.518C943.458 272.257 943.36 271.963 943.336 271.634C943.32 271.303 943.395 270.963 943.563 270.615C943.744 270.24 943.976 269.954 944.259 269.758C944.542 269.561 944.842 269.452 945.158 269.43C945.476 269.403 945.775 269.464 946.054 269.615C946.457 269.829 946.709 270.13 946.809 270.517C946.908 270.905 946.84 271.344 946.603 271.835L946.535 271.977L944.136 270.742L944.304 270.393L946.187 271.363L946.051 271.422L946.131 271.256C946.279 270.949 946.324 270.68 946.268 270.446C946.211 270.213 946.065 270.036 945.831 269.915C945.685 269.84 945.523 269.812 945.344 269.832C945.168 269.847 944.995 269.923 944.825 270.059C944.658 270.191 944.51 270.391 944.38 270.66L944.334 270.755C944.126 271.188 944.067 271.58 944.159 271.93C944.256 272.283 944.471 272.545 944.804 272.716C944.986 272.81 945.168 272.858 945.35 272.859C945.531 272.86 945.729 272.814 945.943 272.72L946.051 273.003C945.773 273.202 945.489 273.313 945.199 273.335C944.911 273.351 944.629 273.289 944.353 273.146ZM947.463 274.748C947.255 274.641 947.09 274.503 946.969 274.336C946.848 274.168 946.773 273.994 946.743 273.814C946.718 273.636 946.739 273.476 946.808 273.334C946.895 273.154 947.023 273.036 947.194 272.979C947.364 272.922 947.6 272.918 947.901 272.967L949.283 273.175L949.478 272.771C949.541 272.639 949.559 272.5 949.532 272.355C949.507 272.204 949.445 272.063 949.345 271.932C949.246 271.802 949.115 271.695 948.953 271.612C948.823 271.545 948.721 271.528 948.646 271.562C948.574 271.591 948.493 271.684 948.404 271.843L948.228 272.167C948.02 272.113 947.864 272.026 947.759 271.906C947.656 271.781 947.636 271.655 947.697 271.528C947.74 271.438 947.82 271.367 947.936 271.315C948.057 271.266 948.199 271.234 948.363 271.219C948.528 271.199 948.698 271.197 948.872 271.214C949.046 271.231 949.208 271.265 949.359 271.317C949.744 271.515 950.002 271.777 950.132 272.1C950.267 272.427 950.258 272.758 950.103 273.093L949.447 274.416C949.398 274.516 949.354 274.615 949.313 274.713C949.278 274.813 949.257 274.891 949.249 274.947L949.704 275.299L949.586 275.545L949.134 275.49C949.048 275.479 948.97 275.465 948.9 275.449C948.828 275.438 948.771 275.421 948.729 275.4C948.567 275.317 948.508 275.171 948.55 274.962L948.612 274.609L948.73 274.669C948.464 274.776 948.226 274.838 948.016 274.855C947.814 274.87 947.63 274.834 947.463 274.748ZM947.899 274.389C948.019 274.451 948.143 274.482 948.273 274.483C948.405 274.479 948.549 274.444 948.704 274.379L949.104 273.547L948.114 273.334C947.974 273.302 947.859 273.305 947.768 273.344C947.683 273.386 947.615 273.459 947.565 273.565C947.501 273.697 947.5 273.848 947.561 274.018C947.63 274.185 947.743 274.309 947.899 274.389ZM954.007 278.128C953.554 277.895 953.182 277.594 952.891 277.227C952.607 276.857 952.437 276.44 952.381 275.976C952.327 275.507 952.425 275.014 952.674 274.497C952.834 274.164 953.042 273.882 953.296 273.651C953.553 273.414 953.844 273.241 954.17 273.132C954.503 273.021 954.859 272.983 955.238 273.02C955.617 273.057 956.009 273.18 956.415 273.389C956.629 273.499 956.845 273.637 957.065 273.803C957.284 273.969 957.468 274.139 957.618 274.315L957.15 275.428L956.783 275.279L956.911 274.406C956.845 274.286 956.739 274.169 956.593 274.054C956.449 273.934 956.302 273.835 956.151 273.757C955.76 273.556 955.398 273.478 955.064 273.523C954.738 273.566 954.446 273.699 954.189 273.923C953.937 274.149 953.728 274.433 953.563 274.777C953.347 275.225 953.24 275.644 953.241 276.034C953.247 276.426 953.342 276.768 953.527 277.06C953.716 277.356 953.97 277.585 954.287 277.749C954.454 277.834 954.614 277.894 954.767 277.927C954.92 277.959 955.077 277.971 955.238 277.962L955.94 277.394L956.281 277.619L955.581 278.504C955.358 278.508 955.108 278.481 954.83 278.424C954.552 278.366 954.278 278.268 954.007 278.128Z" fill="black"/>
<defs>
<filter id="filter0_d_259_1541" x="35" y="23" width="349.633" height="99.291" filterUnits="userSpaceOnUse" color-interpolation-filters="sRGB">
<feFlood flood-opacity="0" result="BackgroundImageFix"/>
<feColorMatrix in="SourceAlpha" type="matrix" values="0 0 0 0 0 0 0 0 0 0 0 0 0 0 0 0 0 0 127 0" result="hardAlpha"/>
<feOffset dy="4"/>
<feGaussianBlur stdDeviation="2"/>
<feComposite in2="hardAlpha" operator="out"/>
<feColorMatrix type="matrix" values="0 0 0 0 0 0 0 0 0 0 0 0 0 0 0 0 0 0 0.25 0"/>
<feBlend mode="normal" in2="BackgroundImageFix" result="effect1_dropShadow_259_1541"/>
<feBlend mode="normal" in="SourceGraphic" in2="effect1_dropShadow_259_1541" result="shape"/>
</filter>
<filter id="filter1_d_259_1541" x="402.195" y="35.9834" width="829.211" height="354.5" filterUnits="userSpaceOnUse" color-interpolation-filters="sRGB">
<feFlood flood-opacity="0" result="BackgroundImageFix"/>
<feColorMatrix in="SourceAlpha" type="matrix" values="0 0 0 0 0 0 0 0 0 0 0 0 0 0 0 0 0 0 127 0" result="hardAlpha"/>
<feOffset dy="4"/>
<feGaussianBlur stdDeviation="2"/>
<feComposite in2="hardAlpha" operator="out"/>
<feColorMatrix type="matrix" values="0 0 0 0 0 0 0 0 0 0 0 0 0 0 0 0 0 0 0.25 0"/>
<feBlend mode="normal" in2="BackgroundImageFix" result="effect1_dropShadow_259_1541"/>
<feBlend mode="normal" in="SourceGraphic" in2="effect1_dropShadow_259_1541" result="shape"/>
</filter>
</defs>
</svg>
