<svg width="431" height="560" viewBox="0 0 431 560" fill="none" xmlns="http://www.w3.org/2000/svg">
<g filter="url(#filter0_d_249_949)">
<path d="M184.882 367.429L183.469 167.337L346.937 170.598L348.349 370.689L184.882 367.429Z" fill="#D9D9D9"/>
<path d="M174.524 418.458L101.634 417.005L102.237 502.41L175.127 503.863L174.524 418.458Z" fill="#D9D9D9"/>
<path d="M294.579 420.853L241.519 419.794L242.122 505.199L295.182 506.258L294.579 420.853Z" fill="#D9D9D9"/>
<path d="M370.548 402.849L321.775 401.877L322.647 525.348L371.419 526.321L370.548 402.849Z" fill="#D9D9D9"/>
</g>
<path d="M36.6498 393.593L36.6214 393.259L37.1303 393.146C37.136 393.123 37.1415 393.073 37.1469 392.997C37.1522 392.915 37.1544 392.786 37.1533 392.61C37.158 392.435 37.1595 392.198 37.1576 391.899L37.1553 390.115C37.1535 389.822 37.1491 389.593 37.1422 389.429C37.1353 389.259 37.1287 389.136 37.1224 389.06C37.1219 388.977 37.1186 388.928 37.1127 388.91L36.567 388.767L36.5913 388.433L38.463 388.472C39.0429 388.484 39.4948 388.622 39.8186 388.887C40.1424 389.145 40.3058 389.515 40.3088 389.995C40.3108 390.323 40.2276 390.606 40.0592 390.843C39.8967 391.079 39.6753 391.262 39.3949 391.391C39.1145 391.514 38.8015 391.572 38.4559 391.565C38.327 391.563 38.204 391.554 38.0867 391.54C37.9753 391.52 37.8697 391.5 37.7701 391.481L37.7671 391.006C37.9021 391.05 38.0194 391.082 38.1191 391.101C38.2247 391.121 38.3273 391.132 38.4268 391.134C38.7725 391.141 39.0414 391.062 39.2337 390.896C39.4259 390.724 39.5209 390.456 39.5186 390.093C39.516 389.677 39.4058 389.37 39.1878 389.172C38.9698 388.969 38.6968 388.864 38.3687 388.857L37.903 388.847C37.9032 388.882 37.9008 388.964 37.8958 389.093C37.8966 389.222 37.8946 389.377 37.8899 389.559C37.891 389.734 37.8922 389.925 37.8934 390.13L37.9133 391.914C37.9152 392.213 37.9196 392.45 37.9266 392.626C37.9335 392.796 37.9401 392.922 37.9465 393.005C37.9528 393.081 37.9561 393.131 37.9562 393.154L38.6862 393.284L38.6621 393.635L36.6498 393.593ZM40.938 393.682L40.9184 393.356L41.5063 393.245C41.512 393.222 41.5147 393.181 41.5144 393.122C41.5198 393.064 41.5251 392.97 41.5302 392.841C41.5352 392.713 41.537 392.534 41.5356 392.305L41.532 391.725C41.5305 391.485 41.5233 391.265 41.5103 391.066C41.4974 390.866 41.4818 390.711 41.4635 390.599L40.874 390.464L40.8722 390.174L42.1179 389.874L42.2505 390C42.2341 390.181 42.2205 390.36 42.2099 390.535C42.2051 390.711 42.2035 390.916 42.205 391.15L42.2119 392.258C42.2135 392.527 42.2178 392.75 42.2248 392.926C42.2376 393.102 42.25 393.214 42.262 393.261L42.8515 393.396L42.836 393.721L40.938 393.682ZM41.8569 388.876C41.7105 388.873 41.5813 388.821 41.4694 388.719C41.3633 388.617 41.3098 388.493 41.3089 388.346C41.308 388.2 41.3599 388.078 41.4648 387.98C41.5754 387.883 41.704 387.836 41.8505 387.839C42.0028 387.842 42.129 387.894 42.2292 387.996C42.3294 388.098 42.38 388.222 42.3809 388.368C42.3818 388.515 42.3328 388.637 42.2338 388.734C42.1349 388.832 42.0092 388.879 41.8569 388.876ZM43.3281 393.731L43.3085 393.414L43.8525 393.293C43.8581 393.253 43.8607 393.197 43.8603 393.127C43.8657 393.056 43.8709 392.96 43.876 392.837C43.8811 392.714 43.883 392.553 43.8818 392.354L43.8864 391.677C43.8852 391.484 43.8752 391.293 43.8565 391.105C43.8435 390.912 43.8279 390.759 43.8097 390.647L43.2465 390.513L43.2447 390.223L44.4202 389.922L44.5704 390.066L44.5294 390.531L44.5558 390.54C44.7595 390.321 44.9606 390.164 45.1591 390.069C45.3577 389.973 45.5741 389.928 45.8084 389.933C46.0252 389.937 46.2276 389.997 46.4158 390.112C46.6098 390.222 46.766 390.389 46.8846 390.614C47.009 390.839 47.0723 391.125 47.0744 391.471L47.0805 392.446C47.0818 392.657 47.0859 392.848 47.0929 393.018C47.1056 393.188 47.121 393.302 47.1389 393.361L47.6845 393.504L47.6602 393.82L45.8939 393.784L45.8744 393.467L46.3832 393.346C46.3888 393.299 46.3943 393.24 46.3997 393.17C46.4051 393.1 46.4075 393.012 46.4068 392.907C46.412 392.796 46.4141 392.658 46.4131 392.494L46.4071 391.545C46.4055 391.281 46.3573 391.072 46.2627 390.918C46.1738 390.758 46.0618 390.644 45.9267 390.577C45.7915 390.504 45.6536 390.466 45.513 390.463C45.3197 390.459 45.1384 390.505 44.9691 390.601C44.8057 390.691 44.6659 390.82 44.5498 390.988L44.558 392.306C44.5597 392.576 44.564 392.796 44.5709 392.966C44.5837 393.13 44.5961 393.244 44.6082 393.309L45.1538 393.452L45.1294 393.768L43.3281 393.731ZM50.9168 393.343C50.8067 393.534 50.6554 393.683 50.4627 393.79C50.2701 393.892 50.0683 393.94 49.8574 393.936C49.5 393.928 49.2065 393.814 48.9767 393.593C48.7468 393.371 48.6306 393.043 48.6279 392.61L48.6411 390.51L48.026 390.497L48.0249 390.313L49.152 389.308L49.319 389.311L49.3077 390.322L49.3124 392.483C49.3143 392.788 49.3801 393.015 49.5099 393.164C49.6456 393.313 49.8335 393.391 50.0737 393.395C50.2084 393.398 50.3313 393.374 50.4422 393.324C50.5591 393.274 50.6641 393.206 50.7573 393.12L50.9168 393.343ZM48.9926 390.517L48.9899 390.078L50.6331 390.112L50.6358 390.551L48.9926 390.517ZM54.8618 393.354L55.4163 393.506L55.4181 393.796L54.2775 394.053L54.145 393.936L54.1503 393.383L54.1239 393.374C53.9555 393.61 53.7808 393.777 53.5999 393.872C53.4247 393.963 53.2346 394.006 53.0296 394.001C52.6371 393.993 52.3083 393.866 52.0432 393.621C51.778 393.369 51.6439 393 51.6409 392.514L51.6362 391.758C51.6352 391.594 51.6283 391.436 51.6157 391.283C51.6088 391.125 51.599 390.966 51.5863 390.808L50.988 390.673L50.9862 390.383L52.1793 390.082L52.3383 390.226C52.3277 390.407 52.3201 390.6 52.3156 390.805C52.311 391.01 52.3094 391.224 52.3108 391.447L52.308 392.413C52.3103 392.777 52.3968 393.039 52.5677 393.201C52.7385 393.357 52.9558 393.437 53.2194 393.443C53.3776 393.446 53.5384 393.408 53.7019 393.33C53.8654 393.251 54.0081 393.113 54.1299 392.917L54.1235 391.897C54.1227 391.768 54.119 391.642 54.1124 391.519C54.1116 391.39 54.1079 391.27 54.1013 391.159C54.0947 391.041 54.0853 390.942 54.0731 390.859L53.4309 390.723L53.4291 390.433L54.666 390.133L54.7986 390.259C54.7938 390.423 54.7888 390.569 54.7838 390.698C54.7846 390.827 54.7854 390.956 54.7862 391.085C54.787 391.208 54.7878 391.349 54.7888 391.507L54.7927 392.131C54.7947 392.453 54.8022 392.714 54.8152 392.913C54.8339 393.107 54.8495 393.254 54.8618 393.354ZM57.6073 394.025L57.5877 393.709L58.1317 393.588C58.1373 393.547 58.1399 393.495 58.1395 393.43C58.145 393.366 58.1502 393.272 58.1553 393.149C58.1604 393.026 58.1623 392.859 58.161 392.648L58.1655 391.963C58.1706 391.84 58.1669 391.714 58.1544 391.585C58.1477 391.456 58.1382 391.336 58.1258 391.224C58.1133 391.107 58.101 391.013 58.0889 390.942L57.5257 390.807L57.5239 390.517L58.6994 390.217L58.8496 390.36L58.8086 390.834L58.8351 390.843C59.0152 390.618 59.2017 390.458 59.3944 390.363C59.5929 390.267 59.7947 390.222 59.9998 390.226C60.2048 390.23 60.4043 390.29 60.5983 390.405C60.7923 390.52 60.9516 390.694 61.076 390.925C61.2063 391.156 61.2726 391.45 61.2748 391.808L61.2894 392.739C61.2907 392.95 61.2948 393.141 61.3017 393.311C61.3145 393.475 61.3298 393.59 61.3478 393.654L61.8759 393.797L61.8515 394.113L60.138 394.078L60.1096 393.761L60.5921 393.639C60.5977 393.592 60.6032 393.534 60.6086 393.463C60.614 393.393 60.6164 393.305 60.6157 393.2C60.6209 393.089 60.623 392.951 60.622 392.787L60.6071 391.82C60.6056 391.568 60.5633 391.365 60.4803 391.211C60.4032 391.057 60.3 390.944 60.1707 390.871C60.0414 390.798 59.9035 390.76 59.7571 390.757C59.5755 390.753 59.4058 390.794 59.2482 390.878C59.0906 390.963 58.9509 391.098 58.829 391.283L58.8372 392.601C58.8389 392.87 58.8432 393.09 58.8501 393.26C58.8629 393.424 58.8753 393.539 58.8874 393.604L59.4067 393.746L59.3823 394.062L57.6073 394.025ZM62.5632 394.128L62.5349 393.811L63.035 393.689C63.0405 393.643 63.0431 393.584 63.0426 393.514C63.0481 393.443 63.0534 393.356 63.0586 393.25C63.0637 393.139 63.0658 393.002 63.0648 392.837L63.0588 391.879C63.0572 391.622 63.012 391.416 62.9232 391.262C62.8344 391.107 62.7224 390.994 62.5872 390.921C62.4579 390.848 62.3258 390.81 62.1911 390.807C61.9919 390.803 61.8077 390.849 61.6384 390.945C61.4692 391.041 61.3178 391.19 61.1844 391.393L61.0154 391.064C61.2187 390.787 61.4341 390.586 61.6618 390.462C61.8953 390.332 62.1409 390.27 62.3987 390.275C62.6447 390.28 62.8677 390.344 63.0676 390.465C63.2675 390.586 63.4267 390.759 63.5453 390.984C63.6638 391.209 63.7241 391.48 63.726 391.797L63.7322 392.79C63.7335 393.001 63.7377 393.191 63.7446 393.361C63.7573 393.525 63.7697 393.64 63.7819 393.705L64.3275 393.848L64.3119 394.164L62.5632 394.128ZM66.2807 394.275C66.0463 394.27 65.8381 394.219 65.6559 394.121C65.4737 394.024 65.3294 393.901 65.2231 393.752C65.1226 393.603 65.0718 393.45 65.0708 393.292C65.0696 393.093 65.133 392.93 65.2611 392.804C65.3892 392.677 65.5994 392.57 65.8917 392.483L67.2246 392.062L67.2218 391.614C67.2209 391.467 67.1761 391.335 67.0875 391.216C66.9989 391.091 66.8811 390.992 66.7342 390.918C66.5873 390.845 66.4231 390.806 66.2415 390.803C66.095 390.8 65.9956 390.83 65.9433 390.893C65.8909 390.951 65.8595 391.07 65.8489 391.252L65.8336 391.62C65.623 391.663 65.4443 391.653 65.2975 391.592C65.1506 391.524 65.0768 391.42 65.0759 391.28C65.0753 391.18 65.1156 391.081 65.197 390.983C65.2843 390.886 65.3979 390.794 65.538 390.709C65.678 390.618 65.8298 390.542 65.9934 390.481C66.1571 390.42 66.3179 390.38 66.4759 390.359C66.9094 390.368 67.2558 390.49 67.5149 390.724C67.78 390.958 67.9166 391.259 67.9247 391.628L67.9164 393.105C67.9171 393.216 67.9207 393.324 67.9272 393.43C67.9395 393.536 67.9547 393.615 67.9726 393.668L68.5356 393.785L68.5373 394.058L68.1077 394.207C68.0259 394.235 67.9499 394.256 67.8797 394.273C67.8096 394.295 67.751 394.305 67.7042 394.304C67.5226 394.3 67.4048 394.195 67.3508 393.989L67.252 393.644L67.3838 393.647C67.1918 393.86 67.0054 394.02 66.8245 394.128C66.6494 394.23 66.4681 394.279 66.2807 394.275ZM66.5147 393.761C66.6494 393.764 66.7752 393.737 66.892 393.681C67.0087 393.619 67.1224 393.525 67.2329 393.398L67.2271 392.475L66.2446 392.719C66.1042 392.751 66.0021 392.804 65.9381 392.879C65.88 392.954 65.8513 393.05 65.852 393.167C65.8529 393.314 65.9182 393.45 66.0479 393.576C66.1833 393.696 66.3389 393.757 66.5147 393.761ZM70.4458 394.361C70.229 394.356 70.0121 394.328 69.7951 394.277C69.578 394.22 69.3931 394.149 69.2402 394.063L69.1904 393.122L69.621 393.131L69.8007 393.767C70.0066 393.912 70.2414 393.987 70.505 393.993C70.7042 393.997 70.865 393.953 70.9874 393.862C71.1098 393.765 71.1705 393.634 71.1695 393.47C71.1685 393.318 71.1121 393.185 71.0001 393.071C70.888 392.952 70.6705 392.822 70.3475 392.68C69.9304 392.49 69.6364 392.311 69.4655 392.143C69.2946 391.97 69.2083 391.752 69.2066 391.488C69.2053 391.277 69.2657 391.094 69.3877 390.938C69.5156 390.777 69.6905 390.654 69.9126 390.571C70.1346 390.482 70.3921 390.44 70.685 390.446C70.849 390.45 71.0161 390.468 71.1861 390.501C71.3562 390.533 71.497 390.574 71.6086 390.623L71.711 391.54L71.298 391.531L71.0834 390.929C71.0246 390.893 70.9541 390.865 70.872 390.846C70.7898 390.82 70.7019 390.807 70.6081 390.805C70.4031 390.801 70.2394 390.847 70.117 390.944C69.9946 391.035 69.9338 391.157 69.9348 391.31C69.9359 391.485 70.0041 391.63 70.1395 391.744C70.2749 391.853 70.513 391.989 70.8538 392.155C71.2415 392.338 71.5121 392.517 71.6654 392.69C71.8188 392.863 71.8962 393.069 71.8977 393.31C71.8997 393.626 71.7637 393.884 71.4896 394.083C71.2155 394.277 70.8676 394.369 70.4458 394.361ZM76.2498 393.795L76.8043 393.947L76.8061 394.237L75.6655 394.495L75.533 394.378L75.5384 393.824L75.5119 393.815C75.3436 394.052 75.1689 394.218 74.9879 394.314C74.8127 394.404 74.6226 394.447 74.4176 394.443C74.0251 394.434 73.6963 394.308 73.4312 394.062C73.166 393.81 73.0319 393.441 73.0289 392.955L73.0242 392.199C73.0232 392.035 73.0163 391.877 73.0037 391.724C72.9968 391.566 72.9871 391.408 72.9744 391.249L72.3761 391.114L72.3743 390.824L73.5673 390.523L73.7263 390.667C73.7158 390.849 73.7082 391.042 73.7036 391.247C73.699 391.452 73.6974 391.665 73.6988 391.888L73.696 392.855C73.6983 393.218 73.7849 393.48 73.9557 393.642C74.1266 393.798 74.3438 393.879 74.6074 393.884C74.7656 393.887 74.9264 393.85 75.0899 393.771C75.2535 393.692 75.3961 393.555 75.5179 393.358L75.5115 392.339C75.5107 392.21 75.507 392.084 75.5004 391.96C75.4996 391.832 75.4959 391.711 75.4894 391.6C75.4828 391.483 75.4734 391.383 75.4611 391.301L74.8189 391.164L74.8171 390.874L76.0541 390.575L76.1866 390.7C76.1818 390.864 76.1769 391.011 76.1718 391.139C76.1726 391.268 76.1734 391.397 76.1742 391.526C76.175 391.649 76.1759 391.79 76.1768 391.948L76.1807 392.572C76.1827 392.894 76.1902 393.155 76.2032 393.355C76.222 393.548 76.2375 393.695 76.2498 393.795ZM77.3433 394.433L77.3237 394.116L77.8238 393.994C77.8293 393.936 77.8346 393.842 77.8396 393.714C77.8446 393.579 77.8495 393.412 77.8541 393.213C77.8587 393.008 77.8602 392.78 77.8586 392.528L77.8507 391.253C77.8493 391.031 77.8449 390.805 77.8376 390.576C77.8362 390.342 77.8319 390.119 77.8247 389.908C77.8234 389.697 77.8193 389.518 77.8126 389.372C77.8058 389.225 77.8023 389.126 77.8019 389.073L77.1511 388.971L77.1318 388.69L78.3685 388.355L78.5451 388.482C78.5404 388.681 78.5358 388.877 78.5312 389.07C78.5265 389.258 78.5218 389.454 78.5172 389.659C78.5126 389.858 78.511 390.072 78.5125 390.3C78.5138 390.523 78.5154 390.766 78.517 391.03L78.5216 393.183C78.5226 393.335 78.5263 393.47 78.5329 393.587C78.5395 393.699 78.5459 393.79 78.5522 393.86C78.5585 393.93 78.5617 393.98 78.5619 394.01L79.1075 394.153L79.0919 394.469L77.3433 394.433ZM81.28 394.514L80.2782 394.493C80.1719 394.35 80.0892 394.243 80.0302 394.172C79.9712 394.1 79.9093 394.032 79.8444 393.966L78.6324 392.631L78.3864 392.626L78.3938 392.416L78.7272 392.326L79.941 391.138L79.3604 391.021L79.376 390.696L81.1422 390.732L81.1618 391.058L80.5825 391.151L79.0184 392.534L79.1482 392.22L80.3955 393.582C80.4722 393.659 80.5577 393.749 80.652 393.851C80.7522 393.952 80.8377 394.036 80.9084 394.102L81.3043 394.189L81.28 394.514ZM47.4006 400.814L47.3809 400.479L47.8108 400.365L49.5926 395.85L50.1003 395.553L52.0462 400.453L52.4863 400.585L52.462 400.918L50.687 400.882L50.6674 400.547L51.2026 400.435L50.6761 399.124L50.5777 398.849L49.605 396.439L49.8064 396.329L48.9081 398.815L48.8131 399.077L48.3556 400.377L48.8923 400.511L48.8769 400.844L47.4006 400.814ZM48.6207 399.213L48.6178 398.747C48.7291 398.756 48.8815 398.765 49.0748 398.774C49.2682 398.784 49.5055 398.792 49.7866 398.798C50.062 398.804 50.2963 398.806 50.4896 398.804C50.6887 398.802 50.841 398.799 50.9464 398.795L50.9493 399.261C50.7501 399.251 50.5509 399.244 50.3517 399.24C50.1583 399.23 49.9709 399.224 49.7893 399.22C49.6135 399.216 49.429 399.215 49.2357 399.217C49.0483 399.213 48.8433 399.212 48.6207 399.213ZM52.7784 400.925L52.75 400.608L53.294 400.487C53.2997 400.458 53.3052 400.405 53.3106 400.329C53.316 400.253 53.3183 400.151 53.3175 400.022C53.3225 399.893 53.3245 399.735 53.3233 399.548L53.3278 398.862C53.3266 398.669 53.3166 398.478 53.2979 398.29C53.285 398.103 53.2694 397.953 53.2512 397.841L52.688 397.707L52.6862 397.417L53.8617 397.116L53.9855 397.241L53.9549 397.979L53.9813 397.988C54.155 397.652 54.3322 397.427 54.5131 397.314C54.6939 397.194 54.8634 397.136 55.0216 397.14C55.1563 397.142 55.2679 397.18 55.3562 397.252C55.4503 397.318 55.4978 397.419 55.4986 397.554C55.4995 397.694 55.4504 397.802 55.3513 397.876C55.258 397.944 55.1381 397.977 54.9916 397.974C54.8862 397.972 54.7835 397.946 54.6837 397.897C54.5896 397.848 54.4984 397.782 54.41 397.698L54.5685 397.754C54.4577 397.822 54.3529 397.92 54.2541 398.046C54.1552 398.167 54.0654 398.321 53.9846 398.507L53.9984 399.324C54.0052 399.471 54.012 399.623 54.0189 399.782C54.0257 399.94 54.0325 400.084 54.0391 400.213C54.0457 400.336 54.0522 400.433 54.0585 400.503L54.8237 400.633L54.8082 400.967L52.7784 400.925ZM57.6733 401.096C57.3335 401.089 57.0255 401.007 56.7492 400.849C56.4788 400.691 56.2607 400.469 56.0949 400.185C55.9349 399.894 55.8537 399.556 55.8513 399.169C55.8487 398.753 55.9314 398.395 56.0994 398.093C56.2674 397.792 56.4886 397.562 56.7629 397.404C57.0372 397.24 57.3325 397.164 57.6489 397.176C58.1058 397.192 58.4641 397.351 58.7237 397.655C58.9834 397.96 59.1149 398.384 59.1183 398.929L59.1192 399.087L56.4216 399.031L56.4192 398.645L58.5369 398.688L58.4409 398.801L58.4398 398.616C58.4377 398.276 58.3599 398.014 58.2064 397.829C58.053 397.644 57.8445 397.549 57.5809 397.544C57.4168 397.541 57.259 397.587 57.1073 397.684C56.9555 397.774 56.8334 397.918 56.741 398.115C56.6484 398.307 56.6031 398.552 56.605 398.851L56.6056 398.956C56.6086 399.437 56.7281 399.814 56.9641 400.088C57.206 400.363 57.5144 400.504 57.8893 400.512C58.0943 400.516 58.2786 400.479 58.4421 400.4C58.6056 400.321 58.763 400.193 58.9142 400.014L59.1351 400.221C58.973 400.522 58.7664 400.747 58.5155 400.894C58.2645 401.035 57.9837 401.102 57.6733 401.096ZM61.1706 401.168C60.9362 401.163 60.728 401.112 60.5458 401.015C60.3636 400.917 60.2193 400.794 60.113 400.646C60.0125 400.497 59.9617 400.344 59.9608 400.185C59.9595 399.986 60.0229 399.823 60.151 399.697C60.2791 399.571 60.4893 399.464 60.7816 399.376L62.1145 398.956L62.1117 398.507C62.1108 398.361 62.066 398.228 61.9774 398.109C61.8888 397.984 61.771 397.885 61.6241 397.812C61.4772 397.739 61.313 397.7 61.1314 397.696C60.9849 397.693 60.8855 397.723 60.8332 397.787C60.7809 397.844 60.7494 397.964 60.7388 398.145L60.7235 398.514C60.5129 398.556 60.3342 398.547 60.1874 398.485C60.0405 398.418 59.9667 398.314 59.9658 398.173C59.9652 398.074 60.0056 397.975 60.087 397.877C60.1742 397.779 60.2879 397.688 60.4279 397.603C60.5679 397.512 60.7197 397.436 60.8834 397.375C61.047 397.314 61.2078 397.273 61.3658 397.253C61.7993 397.262 62.1457 397.383 62.4049 397.617C62.6699 397.851 62.8065 398.153 62.8147 398.522L62.8063 399.998C62.807 400.109 62.8106 400.218 62.8171 400.323C62.8295 400.429 62.8446 400.509 62.8625 400.562L63.4255 400.679L63.4272 400.951L62.9976 401.1C62.9158 401.128 62.8398 401.15 62.7696 401.166C62.6995 401.188 62.641 401.199 62.5941 401.198C62.4125 401.194 62.2947 401.089 62.2407 400.883L62.1419 400.538L62.2737 400.541C62.0817 400.754 61.8953 400.914 61.7144 401.021C61.5393 401.123 61.358 401.172 61.1706 401.168ZM61.4046 400.655C61.5393 400.657 61.6651 400.631 61.7819 400.574C61.8987 400.512 62.0123 400.418 62.1228 400.292L62.117 399.369L61.1345 399.612C60.9941 399.644 60.892 399.698 60.828 399.773C60.7699 399.848 60.7412 399.944 60.7419 400.061C60.7429 400.207 60.8081 400.343 60.9378 400.469C61.0732 400.589 61.2289 400.651 61.4046 400.655ZM66.2287 400.745C66.2401 400.699 66.251 400.561 66.2613 400.333C66.2715 400.099 66.2756 399.806 66.2734 399.454L66.2631 397.802C66.2607 397.421 66.2529 397.114 66.2398 396.879C66.2266 396.644 66.214 396.509 66.2021 396.474L65.6655 396.375L65.681 396.033L67.7723 396.076C68.3464 396.088 68.7806 396.205 69.0749 396.428C69.3749 396.645 69.5262 396.953 69.5287 397.351C69.5307 397.673 69.4065 397.943 69.1559 398.161C68.9054 398.378 68.5782 398.497 68.1741 398.518L68.0683 398.455C68.6249 398.484 69.0533 398.615 69.3535 398.85C69.6537 399.079 69.805 399.393 69.8075 399.791C69.8103 400.248 69.6163 400.607 69.2255 400.869C68.8347 401.124 68.3024 401.245 67.6287 401.231L65.7131 401.192L65.6935 400.857L66.2287 400.745ZM67.0127 399.663C67.0143 399.921 67.0187 400.155 67.0259 400.366C67.033 400.572 67.0397 400.701 67.0459 400.753C67.1221 400.767 67.2247 400.783 67.3537 400.804C67.4826 400.818 67.5852 400.826 67.6613 400.828C68.1124 400.837 68.4488 400.762 68.6703 400.602C68.8978 400.443 69.0105 400.196 69.0084 399.862C69.0062 399.517 68.8845 399.256 68.6433 399.082C68.4079 398.901 68.0529 398.806 67.5784 398.796C67.3558 398.791 67.2006 398.788 67.1127 398.786C67.0307 398.785 66.9575 398.789 66.8931 398.799L66.8903 398.342C67.0016 398.351 67.1071 398.359 67.2067 398.366C67.3063 398.369 67.4147 398.371 67.5318 398.373C67.9185 398.381 68.2138 398.302 68.4178 398.137C68.6276 397.971 68.7315 397.733 68.7296 397.422C68.7277 397.118 68.6296 396.884 68.4353 396.722C68.241 396.554 67.9622 396.466 67.599 396.459L67.0102 396.447C67.0046 396.488 66.9996 396.619 66.9951 396.842C66.9965 397.064 66.9981 397.313 66.9998 397.589L67.0127 399.663Z" fill="black"/>
<path d="M204.942 34.8805L204.904 34.4374L205.578 34.2879C205.586 34.257 205.593 34.1912 205.6 34.0904C205.607 33.9819 205.61 33.8112 205.608 33.5784C205.614 33.3457 205.616 33.0314 205.613 32.6356L205.608 30.2724C205.606 29.8843 205.6 29.5815 205.59 29.3641C205.581 29.1388 205.572 28.9757 205.563 28.8746C205.563 28.766 205.558 28.6999 205.55 28.6765L204.828 28.4874L204.859 28.0457L207.339 28.0952C208.107 28.1105 208.706 28.2932 209.135 28.6432C209.564 28.9854 209.781 29.4748 209.785 30.1113C209.789 30.5459 209.679 30.9201 209.456 31.2338C209.241 31.5477 208.948 31.7902 208.576 31.9613C208.205 32.1246 207.791 32.2017 207.333 32.1926C207.162 32.1892 206.999 32.1782 206.844 32.1596C206.696 32.1333 206.556 32.1073 206.424 32.0813L206.42 31.4527C206.599 31.5105 206.754 31.5525 206.886 31.5784C207.026 31.6044 207.162 31.6188 207.294 31.6214C207.752 31.6306 208.108 31.5251 208.362 31.3051C208.617 31.0774 208.742 30.7229 208.739 30.2417C208.735 29.6906 208.589 29.2842 208.3 29.0223C208.011 28.7527 207.649 28.6135 207.214 28.6049L206.597 28.5926C206.598 28.6391 206.595 28.7477 206.588 28.9183C206.589 29.0891 206.587 29.2947 206.581 29.5351C206.582 29.768 206.584 30.0202 206.586 30.2919L206.614 32.6555C206.617 33.0514 206.623 33.3658 206.633 33.5988C206.642 33.824 206.651 33.9911 206.66 34.0999C206.668 34.2009 206.672 34.267 206.673 34.298L207.64 34.4687L207.608 34.9337L204.942 34.8805ZM210.623 34.9938L210.597 34.5626L211.375 34.4151C211.383 34.3842 211.386 34.33 211.386 34.2524C211.393 34.1749 211.4 34.0509 211.407 33.8803C211.413 33.7097 211.415 33.473 211.413 33.1703L211.408 32.4019C211.406 32.0837 211.396 31.7925 211.378 31.5283C211.361 31.2641 211.34 31.058 211.316 30.9101L210.535 30.7315L210.532 30.3473L212.182 29.9495L212.358 30.116C212.336 30.3561 212.318 30.5925 212.304 30.825C212.298 31.0577 212.296 31.3293 212.299 31.6398L212.309 33.1067C212.311 33.4637 212.317 33.7587 212.327 33.9917C212.344 34.2249 212.361 34.3727 212.376 34.4351L213.158 34.6136L213.137 35.0439L210.623 34.9938ZM211.835 28.6272C211.641 28.6233 211.47 28.5539 211.321 28.4191C211.181 28.2843 211.11 28.1199 211.108 27.9259C211.107 27.7319 211.176 27.5703 211.315 27.4411C211.461 27.3121 211.631 27.2495 211.825 27.2534C212.027 27.2574 212.194 27.3267 212.327 27.4613C212.46 27.5959 212.527 27.7602 212.529 27.9542C212.53 28.1483 212.465 28.3099 212.334 28.4393C212.203 28.5686 212.037 28.6312 211.835 28.6272ZM213.789 35.0569L213.763 34.6373L214.483 34.4771C214.491 34.4229 214.494 34.3493 214.493 34.2561C214.501 34.1631 214.507 34.0352 214.514 33.8724C214.521 33.7096 214.523 33.4962 214.521 33.2323L214.526 32.3361C214.525 32.0799 214.511 31.8275 214.486 31.5786C214.469 31.3222 214.448 31.12 214.424 30.972L213.678 30.7942L213.675 30.41L215.232 30.0103L215.431 30.2006L215.377 30.8165L215.412 30.8288C215.682 30.5393 215.948 30.3312 216.211 30.2045C216.474 30.0778 216.76 30.0175 217.071 30.0237C217.358 30.0295 217.626 30.1085 217.875 30.261C218.132 30.4058 218.34 30.6272 218.497 30.9252C218.662 31.2234 218.746 31.6015 218.749 32.0594L218.758 33.3517C218.76 33.6311 218.766 33.8835 218.775 34.1087C218.793 34.3341 218.813 34.4859 218.837 34.5639L219.56 34.753L219.528 35.1714L217.188 35.1247L217.162 34.7051L217.836 34.544C217.843 34.482 217.85 34.4046 217.857 34.3116C217.865 34.2186 217.868 34.1023 217.867 33.9625C217.873 33.8152 217.876 33.6329 217.874 33.4156L217.866 32.1582C217.863 31.8089 217.799 31.5322 217.673 31.3279C217.556 31.116 217.407 30.9656 217.228 30.8766C217.049 30.7799 216.866 30.7297 216.68 30.726C216.424 30.7209 216.184 30.7821 215.96 30.9096C215.743 31.0294 215.558 31.2003 215.405 31.4223L215.417 33.1687C215.419 33.5257 215.425 33.8168 215.435 34.0421C215.452 34.2597 215.468 34.4114 215.484 34.4971L216.207 34.6861L216.175 35.1045L213.789 35.0569ZM223.841 34.5357C223.696 34.7889 223.495 34.9867 223.24 35.129C222.985 35.2636 222.718 35.3281 222.439 35.3226C221.965 35.3131 221.576 35.1618 221.272 34.8686C220.967 34.5754 220.812 34.1416 220.808 33.5672L220.824 30.7854L220.009 30.7691L220.007 30.5247L221.499 29.1924L221.72 29.1968L221.706 30.5353L221.715 33.3991C221.718 33.8027 221.805 34.1032 221.977 34.3006C222.157 34.4982 222.406 34.6002 222.725 34.6065C222.903 34.6101 223.066 34.5784 223.213 34.5115C223.367 34.4448 223.506 34.3544 223.63 34.2405L223.841 34.5357ZM221.289 30.7947L221.285 30.2126L223.462 30.256L223.466 30.8381L221.289 30.7947ZM229.067 34.5468L229.802 34.7477L229.805 35.1319L228.294 35.4743L228.118 35.3194L228.125 34.5862L228.09 34.5739C227.867 34.8876 227.636 35.108 227.396 35.2352C227.164 35.3547 226.912 35.4118 226.641 35.4064C226.121 35.396 225.685 35.2282 225.334 34.903C224.982 34.5701 224.804 34.0815 224.8 33.4373L224.793 32.436C224.791 32.2187 224.782 32.009 224.765 31.8069C224.756 31.5972 224.742 31.3874 224.725 31.1775L223.933 30.9987L223.93 30.6145L225.51 30.2153L225.721 30.4058C225.707 30.6461 225.697 30.902 225.691 31.1735C225.686 31.445 225.684 31.7282 225.686 32.0232L225.683 33.3036C225.687 33.7848 225.802 34.1324 226.028 34.3465C226.255 34.5528 226.542 34.6594 226.892 34.6664C227.101 34.6706 227.314 34.6205 227.531 34.5162C227.747 34.4118 227.936 34.2293 228.097 33.9687L228.088 32.6182C228.086 32.4474 228.081 32.2805 228.072 32.1173C228.071 31.9466 228.066 31.7874 228.057 31.6397C228.049 31.4844 228.036 31.3522 228.02 31.2432L227.169 31.0633L227.166 30.6791L228.804 30.281L228.98 30.4475C228.974 30.6647 228.967 30.8586 228.961 31.0292C228.962 31.1999 228.963 31.3707 228.965 31.5414C228.966 31.7044 228.967 31.8907 228.968 32.1003L228.974 32.9269C228.977 33.3538 228.988 33.6993 229.005 33.9635C229.03 34.2201 229.051 34.4145 229.067 34.5468ZM232.751 35.4351L232.725 35.0155L233.387 34.8541C233.395 34.7767 233.401 34.6526 233.408 34.482C233.414 34.3037 233.421 34.0826 233.427 33.8189C233.432 33.5474 233.434 33.2448 233.432 32.911L233.42 31.2229C233.418 30.9279 233.412 30.629 233.402 30.3262C233.4 30.0157 233.394 29.7207 233.384 29.4411C233.382 29.1617 233.377 28.9249 233.367 28.7307C233.358 28.5365 233.353 28.4045 233.353 28.3346L232.491 28.201L232.465 27.828L234.103 27.3834L234.337 27.551C234.331 27.8148 234.325 28.0746 234.319 28.3306C234.313 28.5788 234.307 28.8387 234.301 29.1102C234.295 29.3739 234.293 29.6571 234.296 29.9598C234.298 30.2548 234.3 30.5769 234.302 30.9262L234.311 33.7783C234.312 33.9801 234.317 34.1587 234.326 34.3141C234.335 34.4617 234.344 34.5822 234.352 34.6755C234.361 34.7688 234.365 34.8348 234.365 34.8736L235.088 35.0627L235.068 35.4813L232.751 35.4351ZM237.966 35.5391L236.639 35.5127C236.498 35.3236 236.389 35.1817 236.31 35.087C236.232 34.9924 236.15 34.9015 236.064 34.8144L234.457 33.0479L234.131 33.0414L234.141 32.7622L234.582 32.6429L236.189 31.0686L235.42 30.9135L235.44 30.4832L237.78 30.5299L237.806 30.9611L237.039 31.0855L234.968 32.9184L235.14 32.5027L236.794 34.3051C236.895 34.408 237.009 34.5267 237.134 34.6611C237.267 34.7957 237.38 34.9066 237.474 34.9938L237.998 35.1091L237.966 35.5391ZM240.83 35.6894C240.38 35.6804 239.972 35.5714 239.606 35.3623C239.248 35.1534 238.958 34.8605 238.739 34.4836C238.526 34.0991 238.418 33.6507 238.415 33.1384C238.411 32.5874 238.52 32.1123 238.742 31.7132C238.964 31.314 239.257 31.0095 239.62 30.7994C239.984 30.5816 240.375 30.4808 240.794 30.4969C241.399 30.5167 241.874 30.728 242.218 31.1306C242.562 31.5333 242.737 32.0955 242.742 32.8173L242.744 33.0269L239.17 32.9556L239.166 32.4433L241.972 32.4993L241.845 32.6481L241.843 32.4036C241.84 31.9534 241.737 31.606 241.533 31.3614C241.33 31.1168 241.053 30.991 240.704 30.984C240.487 30.9797 240.278 31.0415 240.077 31.1694C239.876 31.2895 239.714 31.4803 239.592 31.7418C239.47 31.9954 239.41 32.3202 239.413 32.716L239.414 32.8557C239.418 33.4922 239.577 33.992 239.89 34.3552C240.211 34.7186 240.619 34.9052 241.116 34.9151C241.388 34.9206 241.632 34.8711 241.848 34.7668C242.065 34.6625 242.273 34.492 242.473 34.2554L242.766 34.529C242.551 34.9283 242.278 35.2255 241.946 35.4206C241.613 35.608 241.242 35.6976 240.83 35.6894ZM243.507 35.6496L243.481 35.2184L244.236 35.0705C244.251 34.9932 244.262 34.8654 244.268 34.687C244.275 34.5086 244.277 34.272 244.275 33.977C244.281 33.6823 244.282 33.3214 244.279 32.8945L244.269 31.4392C244.267 31.1443 244.261 30.8415 244.251 30.5309C244.248 30.2204 244.243 29.9293 244.233 29.6575C244.231 29.3781 244.225 29.1413 244.216 28.9471C244.215 28.7453 244.21 28.6132 244.202 28.551L243.34 28.4174L243.314 28.0444L244.975 27.6002L245.197 27.7676C245.192 28.0935 245.186 28.4193 245.181 28.7451C245.175 29.071 245.17 29.4317 245.165 29.8274C245.168 30.2233 245.171 30.7006 245.175 31.2594L245.177 33.1336C245.18 33.5916 245.187 34.0069 245.197 34.3796C245.215 34.7447 245.233 34.9817 245.249 35.0907L246.007 35.2688L245.986 35.6991L243.507 35.6496ZM251.603 34.9963L252.338 35.1972L252.34 35.5814L250.83 35.9237L250.654 35.7689L250.661 35.0357L250.626 35.0233C250.403 35.3371 250.171 35.5575 249.932 35.6847C249.7 35.8042 249.448 35.8613 249.177 35.8558C248.657 35.8455 248.221 35.6777 247.869 35.3525C247.518 35.0196 247.34 34.531 247.335 33.8868L247.328 32.8855C247.327 32.6682 247.318 32.4585 247.301 32.2564C247.291 32.0466 247.278 31.8368 247.261 31.627L246.469 31.4482L246.466 31.064L248.046 30.6648L248.257 30.8553C248.243 31.0956 248.233 31.3515 248.227 31.623C248.221 31.8945 248.219 32.1777 248.222 32.4726L248.219 33.753C248.222 34.2343 248.337 34.5819 248.564 34.796C248.79 35.0022 249.078 35.1089 249.427 35.1158C249.637 35.12 249.85 35.0699 250.066 34.9656C250.283 34.8613 250.472 34.6788 250.633 34.4182L250.623 33.0676C250.622 32.8969 250.617 32.7299 250.608 32.5668C250.607 32.396 250.602 32.2368 250.593 32.0892C250.584 31.9338 250.572 31.8016 250.555 31.6927L249.705 31.5127L249.702 31.1285L251.34 30.7305L251.516 30.897C251.51 31.1141 251.503 31.308 251.497 31.4786C251.498 31.6494 251.499 31.8201 251.5 31.9909C251.501 32.1539 251.503 32.3402 251.504 32.5497L251.51 33.3763C251.513 33.8032 251.523 34.1488 251.541 34.413C251.566 34.6696 251.587 34.864 251.603 34.9963ZM254.915 35.9703C254.605 35.9641 254.329 35.8965 254.087 35.7675C253.846 35.6386 253.655 35.4756 253.514 35.2788C253.38 35.0821 253.313 34.879 253.312 34.6695C253.31 34.4056 253.394 34.19 253.563 34.0226C253.733 33.8553 254.011 33.7134 254.398 33.5969L256.163 33.0384L256.159 32.4447C256.158 32.2506 256.098 32.0748 255.981 31.9173C255.863 31.752 255.707 31.6208 255.512 31.5238C255.318 31.4268 255.1 31.3759 254.86 31.3711C254.665 31.3672 254.534 31.4073 254.465 31.4913C254.395 31.5675 254.354 31.7257 254.34 31.966L254.32 32.4546C254.041 32.5111 253.804 32.4986 253.61 32.4171C253.415 32.3279 253.317 32.1901 253.316 32.0038C253.315 31.8719 253.368 31.741 253.476 31.6112C253.592 31.4816 253.742 31.3604 253.928 31.2477C254.113 31.1273 254.314 31.0265 254.531 30.9455C254.747 30.8644 254.96 30.8105 255.17 30.7836C255.744 30.795 256.203 30.9555 256.546 31.265C256.898 31.5747 257.079 31.9741 257.09 32.4632L257.081 34.4187C257.082 34.5662 257.087 34.7098 257.095 34.8497C257.112 34.9897 257.132 35.0949 257.156 35.1652L257.902 35.3198L257.904 35.6807L257.335 35.8789C257.227 35.9155 257.126 35.9446 257.033 35.966C256.941 35.9952 256.863 36.0091 256.801 36.0079C256.56 36.0031 256.404 35.8642 256.332 35.5911L256.201 35.1345L256.376 35.138C256.122 35.4201 255.875 35.6325 255.635 35.7751C255.404 35.9102 255.164 35.9752 254.915 35.9703ZM255.225 35.2897C255.403 35.2932 255.57 35.2577 255.724 35.1832C255.879 35.1009 256.029 34.9759 256.176 34.8081L256.167 33.5856L254.866 33.9089C254.68 33.9518 254.545 34.0228 254.46 34.122C254.383 34.2213 254.345 34.3486 254.346 34.5039C254.348 34.6979 254.434 34.8781 254.606 35.0445C254.786 35.2033 254.992 35.285 255.225 35.2897ZM258.535 35.9494L258.497 35.5295L259.217 35.3693C259.225 35.3306 259.232 35.2609 259.239 35.1602C259.246 35.0594 259.249 34.9237 259.248 34.7529C259.254 34.5823 259.257 34.3729 259.255 34.1245L259.26 33.2166C259.259 32.9605 259.245 32.708 259.22 32.4592C259.203 32.2105 259.182 32.0122 259.158 31.8642L258.412 31.6864L258.409 31.3022L259.966 30.9025L260.13 31.0688L260.09 32.0458L260.125 32.0581C260.355 31.6126 260.589 31.3146 260.829 31.1642C261.068 31.006 261.293 30.929 261.502 30.9332C261.681 30.9367 261.828 30.9862 261.945 31.0817C262.07 31.1696 262.133 31.3027 262.134 31.4813C262.136 31.6675 262.071 31.8098 261.94 31.9081C261.816 31.9987 261.657 32.0421 261.463 32.0383C261.324 32.0355 261.188 32.0017 261.055 31.937C260.931 31.8724 260.81 31.7847 260.693 31.6737L260.903 31.7477C260.756 31.8379 260.617 31.9671 260.486 32.1352C260.356 32.2956 260.237 32.4988 260.13 32.745L260.149 33.828C260.158 34.0222 260.168 34.2242 260.177 34.4339C260.186 34.6436 260.195 34.8339 260.204 35.0048C260.213 35.168 260.222 35.2962 260.23 35.3895L261.244 35.561L261.224 36.003L258.535 35.9494ZM218.323 44.1459L218.296 43.703L218.865 43.5514L221.221 37.5684L221.893 37.1744L224.476 43.6633L225.059 43.8379L225.027 44.2796L222.676 44.2327L222.65 43.7898L223.359 43.641L222.66 41.9042L222.529 41.5407L221.238 38.3487L221.505 38.2027L220.317 41.4966L220.192 41.8434L219.587 43.5658L220.298 43.7429L220.278 44.1849L218.323 44.1459ZM219.937 42.0245L219.933 41.4075C220.08 41.4182 220.282 41.43 220.538 41.4428C220.794 41.4557 221.109 41.4659 221.481 41.4733C221.846 41.4806 222.156 41.4829 222.412 41.4802C222.676 41.4777 222.878 41.474 223.017 41.469L223.022 42.086C222.758 42.073 222.494 42.0639 222.23 42.0586C221.974 42.0457 221.726 42.0369 221.485 42.0321C221.252 42.0275 221.008 42.0265 220.752 42.0291C220.503 42.0242 220.232 42.0226 219.937 42.0245ZM225.447 44.2879L225.409 43.8681L226.129 43.7079C226.137 43.6692 226.144 43.5995 226.151 43.4988C226.158 43.398 226.161 43.2623 226.16 43.0915C226.166 42.9209 226.169 42.7114 226.167 42.4631L226.172 41.5552C226.17 41.2991 226.157 41.0466 226.132 40.7977C226.115 40.5491 226.094 40.3508 226.069 40.2028L225.323 40.025L225.321 39.6408L226.877 39.2411L227.041 39.4074L227.002 40.3844L227.037 40.3967C227.266 39.9512 227.501 39.6532 227.74 39.5028C227.98 39.3446 228.204 39.2676 228.414 39.2718C228.592 39.2753 228.74 39.3248 228.857 39.4203C228.982 39.5081 229.045 39.6413 229.046 39.8198C229.048 40.0061 228.983 40.1484 228.851 40.2467C228.728 40.3373 228.569 40.3807 228.375 40.3769C228.235 40.3741 228.099 40.3403 227.967 40.2756C227.842 40.211 227.722 40.1232 227.604 40.0123L227.814 40.0863C227.668 40.1765 227.529 40.3057 227.398 40.4738C227.267 40.6341 227.149 40.8374 227.042 41.0836L227.061 42.1666C227.07 42.3608 227.079 42.5628 227.089 42.7725C227.098 42.9822 227.107 43.1725 227.116 43.3434C227.125 43.5066 227.133 43.6348 227.142 43.7281L228.156 43.8996L228.135 44.3416L225.447 44.2879ZM231.931 44.5104C231.481 44.5014 231.073 44.3924 230.706 44.1833C230.348 43.9744 230.059 43.6815 229.839 43.3046C229.627 42.9201 229.519 42.4717 229.515 41.9595C229.511 41.4084 229.621 40.9333 229.843 40.5342C230.065 40.1351 230.358 39.8305 230.721 39.6204C231.084 39.4026 231.475 39.3018 231.894 39.3179C232.5 39.3377 232.974 39.549 233.319 39.9516C233.663 40.3543 233.838 40.9165 233.843 41.6383L233.844 41.8479L230.27 41.7766L230.267 41.2644L233.072 41.3203L232.945 41.4691L232.943 41.2246C232.94 40.7744 232.837 40.427 232.634 40.1824C232.43 39.9378 232.154 39.812 231.805 39.805C231.587 39.8007 231.378 39.8625 231.177 39.9904C230.976 40.1106 230.815 40.3013 230.693 40.5628C230.57 40.8164 230.51 41.1412 230.513 41.537L230.514 41.6767C230.519 42.3132 230.677 42.813 230.99 43.1762C231.311 43.5396 231.72 43.7263 232.216 43.7362C232.488 43.7416 232.732 43.6921 232.949 43.5878C233.165 43.4835 233.373 43.313 233.573 43.0764L233.866 43.35C233.652 43.7493 233.379 44.0465 233.046 44.2416C232.714 44.429 232.342 44.5186 231.931 44.5104ZM236.564 44.6028C236.253 44.5966 235.977 44.529 235.736 44.4C235.494 44.2711 235.303 44.1081 235.162 43.9113C235.029 43.7146 234.962 43.5115 234.96 43.302C234.958 43.0381 235.042 42.8225 235.212 42.6551C235.381 42.4878 235.659 42.3459 236.046 42.2294L237.812 41.6709L237.807 41.0772C237.806 40.8831 237.747 40.7073 237.629 40.5498C237.512 40.3845 237.355 40.2533 237.161 40.1563C236.966 40.0593 236.749 40.0084 236.508 40.0036C236.314 39.9997 236.182 40.0398 236.113 40.1238C236.044 40.2 236.002 40.3582 235.988 40.5985L235.969 41.0871C235.69 41.1436 235.453 41.1311 235.258 41.0496C235.064 40.9604 234.966 40.8226 234.964 40.6363C234.964 40.5044 235.017 40.3735 235.125 40.2437C235.24 40.1141 235.391 39.9929 235.576 39.8802C235.761 39.7598 235.962 39.659 236.179 39.578C236.396 39.4969 236.609 39.443 236.818 39.4161C237.392 39.4275 237.851 39.588 238.195 39.8975C238.546 40.2072 238.727 40.6066 238.739 41.0957L238.729 43.0512C238.73 43.1987 238.735 43.3423 238.744 43.4822C238.76 43.6222 238.781 43.7274 238.804 43.7977L239.55 43.9523L239.553 44.3132L238.984 44.5114C238.876 44.548 238.775 44.5771 238.682 44.5985C238.589 44.6277 238.512 44.6416 238.449 44.6404C238.209 44.6356 238.053 44.4967 237.981 44.2236L237.85 43.767L238.024 43.7705C237.77 44.0526 237.523 44.265 237.284 44.4076C237.052 44.5427 236.812 44.6077 236.564 44.6028ZM236.873 43.9222C237.052 43.9257 237.218 43.8902 237.373 43.8157C237.527 43.7334 237.678 43.6084 237.824 43.4406L237.816 42.2181L236.514 42.5414C236.328 42.5843 236.193 42.6553 236.108 42.7545C236.032 42.8538 235.994 42.9811 235.995 43.1364C235.996 43.3304 236.083 43.5106 236.255 43.677C236.434 43.8358 236.64 43.9175 236.873 43.9222ZM243.264 44.038C243.279 43.9762 243.293 43.7941 243.306 43.4917C243.32 43.1816 243.325 42.7936 243.321 42.3279L243.306 40.1392C243.302 39.6347 243.292 39.227 243.274 38.9163C243.256 38.6055 243.24 38.4267 243.224 38.3798L242.513 38.2492L242.533 37.7956L245.303 37.8509C246.064 37.866 246.639 38.0211 247.029 38.316C247.427 38.6033 247.628 39.0108 247.631 39.5386C247.634 39.9655 247.47 40.3231 247.138 40.6114C246.807 40.8997 246.373 41.0579 245.838 41.086L245.698 41.0017C246.435 41.0397 247.003 41.214 247.401 41.5246C247.799 41.8274 248 42.2427 248.003 42.7705C248.008 43.3759 247.751 43.852 247.234 44.1986C246.716 44.5375 246.011 44.6981 245.119 44.6803L242.581 44.6297L242.555 44.1868L243.264 44.038ZM244.301 42.6036C244.303 42.9451 244.309 43.2556 244.319 43.5352C244.329 43.807 244.338 43.9779 244.346 44.0479C244.447 44.0655 244.583 44.0876 244.754 44.1143C244.925 44.1332 245.061 44.1437 245.162 44.1457C245.759 44.1576 246.204 44.0578 246.498 43.8464C246.799 43.6351 246.948 43.3082 246.945 42.8658C246.942 42.4079 246.78 42.0632 246.46 41.8318C246.148 41.5927 245.678 41.467 245.049 41.4544C244.755 41.4485 244.549 41.4444 244.432 41.4421C244.324 41.44 244.227 41.4458 244.142 41.4596L244.137 40.8542C244.285 40.8649 244.425 40.8754 244.557 40.8858C244.688 40.8885 244.832 40.8913 244.987 40.8944C245.499 40.9046 245.891 40.7999 246.161 40.5802C246.438 40.3607 246.576 40.0453 246.573 39.6339C246.57 39.2303 246.44 38.9212 246.182 38.7065C245.925 38.4841 245.555 38.3681 245.074 38.3585L244.294 38.3429C244.287 38.3971 244.28 38.5716 244.275 38.8664C244.277 39.1613 244.279 39.4912 244.282 39.856L244.301 42.6036Z" fill="black"/>
<g clip-path="url(#clip0_249_949)">
<path d="M319.475 52.6376L314.026 46.8909M314.026 46.8909L308.279 52.3403M314.026 46.8909L313.669 60.3263M323.746 60.5939L323.627 65.0723C323.611 65.6662 323.36 66.2295 322.929 66.6383C322.498 67.0471 321.922 67.2679 321.328 67.2521L305.653 66.8358C305.059 66.8201 304.496 66.569 304.087 66.1379C303.679 65.7068 303.458 65.131 303.474 64.5371L303.592 60.0587" stroke="black" stroke-width="2.64936" stroke-linecap="round" stroke-linejoin="round"/>
</g>
<path d="M58.0299 359.397L61.4224 359.497C61.8723 359.51 62.3028 359.726 62.6193 360.097C62.9357 360.468 63.1121 360.964 63.1097 361.475L63.0559 373.042C63.0535 373.553 62.8725 374.038 62.5527 374.39C62.2329 374.742 61.8005 374.932 61.3506 374.919L57.958 374.818L57.967 372.891L61.3596 372.991L61.4135 361.425L58.0209 361.324L58.0299 359.397Z" fill="black"/>
<path d="M52.4992 362.248L51.2898 363.299L54.6003 366.45L46.8449 366.22C46.62 366.213 46.4039 366.288 46.2441 366.428C46.0844 366.568 45.9941 366.762 45.9932 366.967C45.9922 367.171 46.0807 367.37 46.239 367.52C46.3974 367.669 46.6128 367.757 46.8377 367.764L54.6084 367.994L51.2186 370.941L52.4077 372.073L57.8509 367.341L52.4992 362.248Z" fill="black"/>
<path d="M203.62 423.781C203.618 424.083 203.597 424.379 203.556 424.671C205.058 425.529 206.184 426.919 206.71 428.567C207.237 430.214 207.125 431.999 206.398 433.569C205.671 435.138 204.382 436.378 202.785 437.042C201.188 437.706 199.399 437.746 197.774 437.155L197.747 441.001L195.446 440.985L195.475 436.842C194.144 437.511 192.619 437.688 191.17 437.344C189.721 436.999 188.44 436.154 187.553 434.958C186.665 433.762 186.228 432.291 186.318 430.804C186.408 429.317 187.02 427.91 188.045 426.829C188.486 428.064 189.186 429.189 190.097 430.131L191.751 428.532C190.496 427.232 189.8 425.492 189.813 423.685C189.825 421.854 190.565 420.104 191.869 418.818C193.172 417.532 194.933 416.817 196.764 416.83C198.595 416.842 200.346 417.582 201.632 418.886C202.918 420.189 203.633 421.95 203.62 423.781Z" fill="black"/>
<path d="M96.3232 419.57C96.3211 419.872 96.2999 420.168 96.2595 420.46C97.7616 421.318 98.8872 422.708 99.4134 424.356C99.9397 426.003 99.8283 427.788 99.1014 429.358C98.3744 430.927 97.0848 432.167 95.4878 432.831C93.8907 433.495 92.1025 433.535 90.4771 432.944L90.4504 436.79L88.1492 436.774L88.1779 432.631C86.8468 433.3 85.3225 433.477 83.8734 433.133C82.4243 432.788 81.1432 431.943 80.2557 430.747C79.3681 429.551 78.9309 428.08 79.021 426.593C79.1112 425.106 79.7229 423.699 80.7484 422.619C81.1895 423.853 81.889 424.978 82.8002 425.92L84.4544 424.321C83.1989 423.021 82.5029 421.281 82.5158 419.475C82.5285 417.644 83.268 415.893 84.5717 414.607C85.8754 413.321 87.6364 412.606 89.4674 412.619C91.2984 412.631 93.0493 413.371 94.335 414.675C95.6207 415.978 96.3359 417.739 96.3232 419.57Z" fill="black"/>
<path d="M235.784 424.422C235.782 424.723 235.761 425.02 235.72 425.312C237.223 426.169 238.348 427.559 238.874 429.207C239.401 430.855 239.289 432.64 238.562 434.209C237.835 435.779 236.546 437.018 234.949 437.682C233.352 438.346 231.563 438.387 229.938 437.796L229.911 441.641L227.61 441.625L227.639 437.483C226.308 438.151 224.783 438.329 223.334 437.984C221.885 437.639 220.604 436.794 219.717 435.598C218.829 434.402 218.392 432.931 218.482 431.444C218.572 429.957 219.184 428.55 220.209 427.47C220.65 428.704 221.35 429.83 222.261 430.772L223.915 429.172C222.66 427.873 221.964 426.133 221.977 424.326C221.989 422.495 222.729 420.744 224.033 419.458C225.336 418.173 227.097 417.457 228.928 417.47C230.759 417.483 232.51 418.222 233.796 419.526C235.082 420.83 235.797 422.591 235.784 424.422Z" fill="black"/>
<g clip-path="url(#clip1_249_949)">
<path d="M317.589 425.125C317.587 425.426 317.565 425.723 317.525 426.015C319.027 426.872 320.153 428.262 320.679 429.91C321.205 431.558 321.094 433.343 320.367 434.912C319.64 436.482 318.35 437.721 316.753 438.385C315.156 439.049 313.368 439.09 311.743 438.499L311.716 442.344L309.415 442.328L309.444 438.186C308.112 438.854 306.588 439.032 305.139 438.687C303.69 438.342 302.409 437.498 301.521 436.301C300.634 435.105 300.197 433.634 300.287 432.147C300.377 430.661 300.988 429.253 302.014 428.173C302.455 429.407 303.155 430.533 304.066 431.475L305.72 429.875C304.465 428.576 303.769 426.836 303.781 425.029C303.794 423.198 304.534 421.447 305.837 420.161C307.141 418.876 308.902 418.16 310.733 418.173C312.564 418.186 314.315 418.925 315.601 420.229C316.886 421.533 317.602 423.294 317.589 425.125Z" fill="black"/>
</g>
<g clip-path="url(#clip2_249_949)">
<path d="M216.471 325.657L216.652 329.172C216.676 329.634 216.791 330.086 216.989 330.503C217.188 330.921 217.467 331.295 217.81 331.605C218.153 331.914 218.554 332.153 218.99 332.308C219.425 332.462 219.887 332.53 220.349 332.506L222.904 332.374C223.366 332.35 223.818 332.235 224.236 332.037C224.653 331.838 225.027 331.559 225.337 331.216C225.646 330.872 225.885 330.471 226.039 330.036C226.194 329.6 226.261 329.138 226.237 328.677L226.056 325.162L216.471 325.657ZM223.472 319.479C223.574 319.556 223.641 319.67 223.659 319.796C223.676 319.922 223.643 320.05 223.567 320.152C223.148 320.707 223.068 321.075 223.218 321.311C223.265 321.384 223.664 321.948 223.759 322.124C223.971 322.521 224.017 322.913 223.875 323.388C223.771 323.728 223.611 324.05 223.401 324.338L226.098 324.198C226.403 324.194 226.627 324.26 226.771 324.397C226.851 324.472 226.911 324.569 226.951 324.689L226.993 324.685C227.628 324.652 228.251 324.873 228.724 325.299C229.196 325.726 229.48 326.322 229.513 326.958C229.546 327.594 229.325 328.216 228.899 328.689C228.473 329.162 227.876 329.446 227.24 329.479L227.16 329.48C227.015 330.51 226.516 331.458 225.749 332.161C224.981 332.864 223.994 333.278 222.954 333.332L220.397 333.464C219.81 333.495 219.222 333.409 218.668 333.212C218.114 333.015 217.603 332.711 217.167 332.317C216.73 331.923 216.375 331.447 216.122 330.916C215.869 330.385 215.723 329.809 215.693 329.222L215.505 325.589C215.476 325.289 215.522 325.073 215.642 324.941C215.763 324.81 215.947 324.733 216.194 324.711L218.246 324.605C218.271 324.559 218.303 324.517 218.34 324.481C218.746 324.1 219.003 323.71 219.122 323.312C219.189 323.086 219.173 322.954 219.079 322.777C219.018 322.664 218.649 322.143 218.575 322.025C218.166 321.383 218.333 320.613 218.966 319.774C219.003 319.721 219.05 319.676 219.105 319.642C219.16 319.608 219.221 319.585 219.284 319.575C219.348 319.565 219.413 319.568 219.475 319.584C219.538 319.599 219.597 319.627 219.648 319.666C219.699 319.705 219.743 319.754 219.775 319.81C219.807 319.865 219.828 319.927 219.835 319.991C219.843 320.055 219.838 320.12 219.821 320.182C219.803 320.244 219.773 320.301 219.732 320.351C219.314 320.906 219.234 321.274 219.385 321.51C219.431 321.584 219.831 322.148 219.925 322.323C220.137 322.72 220.183 323.113 220.041 323.587C219.937 323.928 219.777 324.249 219.568 324.537L220.164 324.506C220.188 324.46 220.22 324.419 220.258 324.383C220.662 324.001 220.92 323.611 221.038 323.213C221.106 322.986 221.091 322.855 220.995 322.678C220.935 322.565 220.566 322.044 220.492 321.926C220.083 321.284 220.25 320.514 220.883 319.675C220.92 319.621 220.967 319.575 221.022 319.54C221.077 319.505 221.138 319.482 221.202 319.472C221.266 319.461 221.332 319.464 221.395 319.479C221.458 319.495 221.517 319.523 221.569 319.562C221.621 319.601 221.665 319.65 221.697 319.707C221.729 319.763 221.75 319.826 221.757 319.89C221.765 319.955 221.759 320.02 221.74 320.082C221.722 320.145 221.691 320.202 221.649 320.252C221.231 320.807 221.151 321.175 221.301 321.411C221.348 321.485 221.748 322.049 221.842 322.224C222.055 322.621 222.1 323.014 221.958 323.488C221.854 323.829 221.694 324.15 221.484 324.438L222.081 324.407C222.106 324.361 222.137 324.32 222.175 324.284C222.58 323.902 222.837 323.512 222.955 323.114C223.023 322.887 223.008 322.756 222.912 322.579C222.852 322.466 222.484 321.945 222.409 321.827C222.001 321.185 222.167 320.415 222.8 319.576C222.877 319.474 222.991 319.407 223.117 319.389C223.243 319.372 223.37 319.404 223.472 319.481M227.042 325.645L227.19 328.521C227.572 328.501 227.929 328.331 228.185 328.047C228.441 327.764 228.574 327.39 228.554 327.009C228.534 326.627 228.364 326.269 228.08 326.014C227.797 325.758 227.423 325.625 227.042 325.645Z" fill="black"/>
</g>
<path d="M262.359 444.441L262.387 447.835C262.391 448.281 262.489 448.724 262.676 449.139C262.863 449.554 263.135 449.933 263.477 450.255C263.818 450.576 264.223 450.834 264.667 451.013C265.112 451.192 265.587 451.288 266.067 451.297L268.721 451.347C269.201 451.356 269.675 451.277 270.117 451.115C270.558 450.953 270.958 450.711 271.295 450.402C271.631 450.093 271.897 449.724 272.077 449.316C272.257 448.907 272.348 448.468 272.344 448.022L272.315 444.629L262.359 444.441ZM269.896 438.985C269.998 439.065 270.062 439.179 270.075 439.302C270.088 439.425 270.048 439.545 269.964 439.638C269.504 440.142 269.405 440.491 269.55 440.728C269.595 440.802 269.983 441.372 270.073 441.548C270.275 441.944 270.304 442.325 270.136 442.771C270.013 443.092 269.832 443.39 269.602 443.652L272.404 443.705C272.719 443.722 272.949 443.801 273.091 443.943C273.171 444.021 273.229 444.118 273.265 444.236L273.308 444.235C273.968 444.248 274.604 444.503 275.074 444.946C275.545 445.389 275.812 445.982 275.817 446.596C275.822 447.209 275.565 447.793 275.102 448.218C274.639 448.643 274.007 448.875 273.347 448.863L273.263 448.859C273.066 449.84 272.506 450.717 271.679 451.34C270.852 451.963 269.809 452.292 268.73 452.273L266.074 452.223C265.464 452.211 264.858 452.088 264.293 451.86C263.727 451.633 263.212 451.305 262.777 450.896C262.343 450.487 261.996 450.004 261.758 449.476C261.521 448.947 261.396 448.383 261.391 447.816L261.362 444.31C261.345 444.019 261.402 443.814 261.533 443.696C261.664 443.578 261.858 443.516 262.115 443.512L264.247 443.552C264.275 443.51 264.309 443.472 264.35 443.44C264.788 443.102 265.072 442.745 265.213 442.37C265.294 442.156 265.283 442.029 265.193 441.852C265.136 441.74 264.777 441.212 264.705 441.094C264.31 440.448 264.519 439.719 265.213 438.956C265.253 438.907 265.304 438.868 265.363 438.839C265.421 438.81 265.485 438.792 265.551 438.787C265.618 438.782 265.685 438.789 265.749 438.808C265.813 438.828 265.873 438.859 265.924 438.899C265.976 438.94 266.018 438.99 266.049 439.046C266.08 439.102 266.099 439.163 266.104 439.225C266.109 439.287 266.101 439.349 266.08 439.407C266.059 439.465 266.025 439.519 265.981 439.564C265.521 440.069 265.423 440.417 265.568 440.655C265.612 440.729 266.001 441.299 266.09 441.474C266.292 441.871 266.322 442.252 266.153 442.698C266.03 443.018 265.85 443.316 265.619 443.579L266.239 443.59C266.266 443.548 266.301 443.51 266.342 443.478C266.779 443.139 267.063 442.782 267.204 442.407C267.285 442.194 267.275 442.066 267.184 441.889C267.127 441.777 266.768 441.25 266.696 441.132C266.302 440.485 266.51 439.757 267.204 438.993C267.245 438.944 267.296 438.903 267.354 438.873C267.413 438.844 267.477 438.825 267.544 438.82C267.611 438.814 267.679 438.821 267.744 438.84C267.808 438.86 267.868 438.891 267.92 438.932C267.972 438.973 268.015 439.024 268.046 439.08C268.077 439.137 268.095 439.198 268.1 439.261C268.105 439.323 268.096 439.386 268.074 439.444C268.052 439.503 268.017 439.557 267.972 439.602C267.513 440.106 267.414 440.455 267.559 440.692C267.604 440.766 267.992 441.336 268.082 441.512C268.284 441.908 268.313 442.289 268.145 442.735C268.021 443.056 267.841 443.354 267.611 443.616L268.231 443.628C268.258 443.585 268.293 443.548 268.333 443.516C268.771 443.176 269.054 442.819 269.195 442.444C269.276 442.231 269.266 442.104 269.175 441.927C269.118 441.814 268.76 441.287 268.687 441.169C268.293 440.523 268.501 439.794 269.196 439.03C269.28 438.938 269.401 438.881 269.532 438.873C269.663 438.865 269.794 438.905 269.896 438.986M273.315 445.162L273.339 447.938C273.735 447.946 274.113 447.807 274.391 447.551C274.669 447.296 274.824 446.946 274.821 446.578C274.818 446.21 274.657 445.854 274.375 445.588C274.093 445.323 273.711 445.169 273.315 445.162Z" fill="black"/>
<path d="M131.32 440.617L131.348 444.01C131.352 444.456 131.45 444.899 131.637 445.314C131.824 445.729 132.096 446.109 132.438 446.43C132.779 446.752 133.184 447.009 133.628 447.188C134.073 447.367 134.548 447.464 135.028 447.473L137.682 447.523C138.162 447.532 138.636 447.453 139.077 447.291C139.519 447.128 139.919 446.886 140.256 446.577C140.592 446.268 140.858 445.899 141.038 445.491C141.218 445.083 141.309 444.643 141.305 444.197L141.276 440.804L131.32 440.617ZM138.857 435.16C138.959 435.241 139.023 435.355 139.036 435.477C139.049 435.6 139.009 435.721 138.925 435.813C138.465 436.318 138.366 436.666 138.511 436.904C138.556 436.978 138.944 437.548 139.034 437.723C139.236 438.119 139.265 438.5 139.097 438.947C138.974 439.267 138.793 439.565 138.563 439.828L141.365 439.88C141.68 439.897 141.91 439.976 142.052 440.118C142.132 440.196 142.19 440.294 142.226 440.411L142.269 440.41C142.929 440.423 143.565 440.679 144.035 441.121C144.506 441.564 144.773 442.157 144.778 442.771C144.783 443.385 144.526 443.968 144.063 444.394C143.599 444.819 142.968 445.051 142.308 445.038L142.224 445.034C142.027 446.015 141.467 446.892 140.64 447.515C139.813 448.138 138.77 448.468 137.691 448.448L135.035 448.398C134.424 448.387 133.819 448.263 133.254 448.036C132.688 447.808 132.173 447.48 131.738 447.071C131.303 446.662 130.957 446.179 130.719 445.651C130.482 445.123 130.357 444.559 130.352 443.992L130.323 440.485C130.306 440.194 130.363 439.989 130.494 439.871C130.625 439.753 130.819 439.692 131.076 439.687L133.208 439.728C133.235 439.685 133.27 439.647 133.311 439.615C133.748 439.277 134.033 438.92 134.174 438.545C134.254 438.332 134.244 438.204 134.154 438.027C134.096 437.915 133.738 437.387 133.666 437.269C133.271 436.623 133.48 435.895 134.173 435.131C134.214 435.083 134.265 435.043 134.323 435.014C134.382 434.985 134.446 434.967 134.512 434.962C134.579 434.957 134.646 434.964 134.71 434.983C134.774 435.003 134.834 435.034 134.885 435.075C134.937 435.116 134.979 435.165 135.01 435.221C135.041 435.277 135.06 435.338 135.065 435.4C135.07 435.462 135.062 435.524 135.041 435.582C135.02 435.641 134.986 435.694 134.942 435.74C134.482 436.244 134.384 436.593 134.528 436.83C134.573 436.904 134.962 437.474 135.051 437.65C135.253 438.046 135.283 438.427 135.114 438.873C134.991 439.194 134.811 439.491 134.58 439.754L135.2 439.766C135.227 439.723 135.262 439.685 135.303 439.654C135.74 439.314 136.024 438.957 136.165 438.582C136.246 438.369 136.236 438.241 136.145 438.065C136.088 437.952 135.729 437.425 135.657 437.307C135.263 436.661 135.471 435.932 136.165 435.168C136.206 435.119 136.257 435.079 136.315 435.049C136.373 435.019 136.438 435.001 136.505 434.995C136.572 434.989 136.64 434.996 136.704 435.016C136.769 435.035 136.829 435.066 136.881 435.107C136.933 435.149 136.976 435.199 137.007 435.256C137.038 435.312 137.056 435.373 137.061 435.436C137.066 435.499 137.057 435.561 137.035 435.62C137.013 435.678 136.978 435.732 136.933 435.777C136.474 436.282 136.375 436.63 136.52 436.868C136.565 436.941 136.953 437.512 137.043 437.687C137.245 438.083 137.274 438.464 137.106 438.911C136.982 439.231 136.802 439.529 136.572 439.791L137.192 439.803C137.219 439.761 137.254 439.723 137.294 439.691C137.731 439.352 138.015 438.995 138.156 438.62C138.237 438.407 138.227 438.279 138.136 438.102C138.079 437.99 137.721 437.462 137.648 437.344C137.254 436.698 137.462 435.969 138.156 435.206C138.241 435.113 138.361 435.057 138.493 435.048C138.624 435.04 138.755 435.081 138.857 435.161M142.276 441.337L142.299 444.114C142.696 444.121 143.074 443.982 143.352 443.727C143.63 443.472 143.785 443.122 143.782 442.753C143.778 442.385 143.618 442.029 143.336 441.763C143.054 441.498 142.672 441.344 142.276 441.337Z" fill="black"/>
<path d="M207.262 246.129L207.18 239.773C207.178 239.602 207.239 239.438 207.351 239.319C207.462 239.199 207.614 239.133 207.774 239.135C207.933 239.138 208.087 239.208 208.201 239.331C208.316 239.454 208.381 239.62 208.384 239.791L208.466 246.147C208.816 246.018 209.118 245.775 209.329 245.45C209.54 245.125 209.651 244.735 209.645 244.334L209.587 239.809C209.585 239.638 209.646 239.474 209.757 239.354C209.868 239.235 210.02 239.169 210.18 239.171C210.34 239.174 210.493 239.244 210.608 239.367C210.722 239.49 210.788 239.656 210.79 239.827L210.848 244.351C210.858 245.097 210.628 245.817 210.197 246.388C209.766 246.959 209.16 247.347 208.483 247.486L208.601 256.615C208.603 256.787 208.542 256.95 208.43 257.07C208.319 257.19 208.167 257.255 208.008 257.253C207.848 257.251 207.694 257.18 207.58 257.057C207.465 256.934 207.4 256.769 207.398 256.597L207.28 247.468C206.598 247.309 205.983 246.903 205.537 246.319C205.091 245.734 204.842 245.008 204.832 244.262L204.774 239.738C204.772 239.566 204.833 239.402 204.944 239.283C205.056 239.163 205.208 239.097 205.367 239.1C205.527 239.102 205.681 239.172 205.795 239.295C205.909 239.418 205.975 239.584 205.977 239.756L206.036 244.28C206.041 244.681 206.161 245.075 206.381 245.406C206.601 245.737 206.909 245.99 207.262 246.129ZM215.126 249.525C213.413 249.088 212.085 246.939 212.052 244.375C212.015 241.515 213.601 239.222 215.594 239.252C217.588 239.281 219.234 241.622 219.271 244.482C219.304 247.047 218.031 249.156 216.329 249.543L216.422 256.731C216.424 256.903 216.363 257.067 216.251 257.186C216.14 257.306 215.988 257.372 215.828 257.369C215.669 257.367 215.515 257.297 215.401 257.174C215.286 257.051 215.221 256.885 215.218 256.713L215.126 249.525ZM215.711 248.311C216.953 248.329 218.096 246.677 218.068 244.464C218.039 242.251 216.853 240.564 215.611 240.546C214.369 240.527 213.226 242.18 213.255 244.392C213.283 246.605 214.47 248.292 215.711 248.311Z" fill="black"/>
<path d="M258.911 193.748L258.829 187.393C258.827 187.221 258.888 187.057 258.999 186.938C259.11 186.818 259.263 186.752 259.422 186.755C259.582 186.757 259.736 186.827 259.85 186.95C259.964 187.073 260.03 187.239 260.032 187.411L260.114 193.766C260.464 193.637 260.766 193.394 260.977 193.069C261.188 192.744 261.299 192.354 261.294 191.953L261.235 187.428C261.233 187.257 261.294 187.093 261.406 186.974C261.517 186.854 261.669 186.788 261.828 186.79C261.988 186.793 262.142 186.863 262.256 186.986C262.371 187.109 262.436 187.275 262.438 187.446L262.497 191.971C262.507 192.716 262.277 193.436 261.845 194.007C261.414 194.578 260.809 194.966 260.131 195.105L260.249 204.234C260.251 204.406 260.19 204.569 260.079 204.689C259.968 204.809 259.816 204.875 259.656 204.872C259.496 204.87 259.343 204.799 259.228 204.676C259.114 204.553 259.048 204.388 259.046 204.216L258.928 195.087C258.247 194.928 257.631 194.522 257.185 193.938C256.739 193.353 256.49 192.627 256.481 191.881L256.422 187.357C256.42 187.185 256.481 187.022 256.593 186.902C256.704 186.782 256.856 186.716 257.016 186.719C257.175 186.721 257.329 186.792 257.444 186.915C257.558 187.038 257.623 187.203 257.626 187.375L257.684 191.899C257.689 192.301 257.81 192.694 258.029 193.025C258.249 193.356 258.557 193.609 258.911 193.748ZM266.774 197.144C265.061 196.707 263.733 194.559 263.7 191.994C263.663 189.134 265.249 186.841 267.243 186.871C269.237 186.901 270.882 189.241 270.919 192.101C270.952 194.666 269.679 196.776 267.977 197.162L268.07 204.351C268.072 204.522 268.011 204.686 267.9 204.805C267.789 204.925 267.636 204.991 267.477 204.989C267.317 204.986 267.163 204.916 267.049 204.793C266.935 204.67 266.869 204.504 266.867 204.333L266.774 197.144ZM267.36 195.93C268.602 195.948 269.745 194.296 269.716 192.083C269.688 189.87 268.501 188.184 267.26 188.165C266.018 188.147 264.875 189.799 264.903 192.012C264.932 194.225 266.118 195.911 267.36 195.93Z" fill="black"/>
<path d="M312.786 248.636L312.704 242.281C312.702 242.109 312.763 241.946 312.874 241.826C312.985 241.706 313.138 241.64 313.297 241.643C313.457 241.645 313.611 241.716 313.725 241.839C313.839 241.962 313.905 242.127 313.907 242.299L313.989 248.654C314.339 248.526 314.641 248.282 314.852 247.957C315.063 247.633 315.174 247.242 315.169 246.841L315.11 242.317C315.108 242.145 315.169 241.981 315.281 241.862C315.392 241.742 315.544 241.676 315.703 241.679C315.863 241.681 316.017 241.751 316.131 241.874C316.246 241.997 316.311 242.163 316.313 242.335L316.372 246.859C316.382 247.605 316.152 248.324 315.72 248.895C315.289 249.467 314.684 249.854 314.006 249.994L314.124 259.122C314.126 259.294 314.065 259.458 313.954 259.577C313.843 259.697 313.691 259.763 313.531 259.76C313.371 259.758 313.218 259.688 313.103 259.565C312.989 259.441 312.923 259.276 312.921 259.104L312.803 249.976C312.122 249.816 311.506 249.41 311.06 248.826C310.614 248.242 310.365 247.515 310.356 246.769L310.297 242.245C310.295 242.073 310.356 241.91 310.468 241.79C310.579 241.67 310.731 241.604 310.891 241.607C311.05 241.609 311.204 241.68 311.319 241.803C311.433 241.926 311.498 242.091 311.501 242.263L311.559 246.787C311.564 247.189 311.685 247.582 311.904 247.913C312.124 248.245 312.432 248.497 312.786 248.636ZM320.649 252.032C318.936 251.595 317.608 249.447 317.575 246.882C317.538 244.022 319.124 241.729 321.118 241.759C323.112 241.789 324.757 244.129 324.794 246.989C324.827 249.554 323.554 251.664 321.852 252.05L321.945 259.239C321.947 259.41 321.886 259.574 321.775 259.694C321.664 259.813 321.511 259.879 321.352 259.877C321.192 259.874 321.038 259.804 320.924 259.681C320.81 259.558 320.744 259.392 320.742 259.221L320.649 252.032ZM321.235 250.818C322.477 250.836 323.62 249.184 323.591 246.971C323.563 244.758 322.376 243.072 321.135 243.053C319.893 243.035 318.75 244.687 318.778 246.9C318.807 249.113 319.993 250.799 321.235 250.818Z" fill="black"/>
<defs>
<filter id="filter0_d_249_949" x="97.6328" y="167.337" width="277.789" height="366.983" filterUnits="userSpaceOnUse" color-interpolation-filters="sRGB">
<feFlood flood-opacity="0" result="BackgroundImageFix"/>
<feColorMatrix in="SourceAlpha" type="matrix" values="0 0 0 0 0 0 0 0 0 0 0 0 0 0 0 0 0 0 127 0" result="hardAlpha"/>
<feOffset dy="4"/>
<feGaussianBlur stdDeviation="2"/>
<feComposite in2="hardAlpha" operator="out"/>
<feColorMatrix type="matrix" values="0 0 0 0 0 0 0 0 0 0 0 0 0 0 0 0 0 0 0.25 0"/>
<feBlend mode="normal" in2="BackgroundImageFix" result="effect1_dropShadow_249_949"/>
<feBlend mode="normal" in="SourceGraphic" in2="effect1_dropShadow_249_949" result="shape"/>
</filter>
<clipPath id="clip0_249_949">
<rect width="26.8802" height="26.8802" fill="white" transform="translate(299.969 70.0459) rotate(-88.4787)"/>
</clipPath>
<clipPath id="clip1_249_949">
<rect width="27.6154" height="27.6154" fill="white" transform="translate(300.875 416.958) rotate(0.397447)"/>
</clipPath>
<clipPath id="clip2_249_949">
<rect width="13.9188" height="13.9188" fill="white" transform="translate(215.203 319.796) rotate(-2.95823)"/>
</clipPath>
</defs>
</svg>
