<svg width="394" height="540" viewBox="0 0 394 540" fill="none" xmlns="http://www.w3.org/2000/svg">
<g filter="url(#filter0_d_277_1269)">
<path d="M77.4375 46.3182L77.4375 336.423L130.844 336.423L130.844 261.578L147.645 261.578L147.645 153.617L130.844 153.617L130.844 46.3182L77.4375 46.3182Z" fill="#D9D9D9"/>
</g>
<g filter="url(#filter1_d_277_1269)">
<path d="M151.617 18.5L151.617 87.3833L262.228 87.3833L262.228 56.9157L313.89 56.9157L313.89 18.5L151.617 18.5Z" fill="#D9D9D9"/>
</g>
<g filter="url(#filter2_d_277_1269)">
<path d="M95.9837 405.969C94.4382 405.969 95.9839 433.124 95.9838 465.579L109.893 482.138L199.236 482.138L199.236 461.605L280.704 461.605L280.704 405.969C228.6 404.423 120.358 405.969 95.9837 405.969Z" fill="#D9D9D9"/>
</g>
<g filter="url(#filter3_d_277_1269)">
<path d="M143.672 276.812L143.672 345.696L290.734 345.696L290.734 276.812L143.672 276.812Z" fill="#D9D9D9"/>
</g>
<g filter="url(#filter4_d_277_1269)">
<path fill-rule="evenodd" clip-rule="evenodd" d="M357.962 423.546C359.226 422.399 360.396 421.152 361.461 419.818C363.703 417.001 365.067 414.224 365.159 411.754C365.196 410.751 365.029 409.75 364.671 408.812C364.312 407.874 363.767 407.018 363.07 406.295C362.373 405.572 361.537 404.997 360.613 404.604C359.689 404.211 358.695 404.009 357.69 404.009C356.686 404.009 355.692 404.211 354.768 404.604C353.843 404.997 353.008 405.572 352.31 406.295C351.613 407.018 351.069 407.874 350.71 408.812C350.351 409.75 350.185 410.751 350.222 411.754C350.315 414.224 351.68 417.001 353.921 419.818C354.986 421.152 356.155 422.399 357.419 423.546C357.541 423.656 357.632 423.736 357.691 423.786L357.962 423.546ZM356.88 424.827C356.88 424.827 348.898 418.105 348.898 411.491C348.898 409.159 349.825 406.922 351.474 405.273C353.123 403.624 355.359 402.698 357.691 402.698C360.023 402.698 362.259 403.624 363.908 405.273C365.557 406.922 366.483 409.159 366.483 411.491C366.483 418.105 358.502 424.827 358.502 424.827C358.058 425.235 357.327 425.231 356.88 424.827ZM357.691 414.568C358.507 414.568 359.29 414.244 359.867 413.667C360.444 413.089 360.768 412.307 360.768 411.491C360.768 410.674 360.444 409.892 359.867 409.315C359.29 408.737 358.507 408.413 357.691 408.413C356.875 408.413 356.092 408.737 355.515 409.315C354.938 409.892 354.614 410.674 354.614 411.491C354.614 412.307 354.938 413.089 355.515 413.667C356.092 414.244 356.875 414.568 357.691 414.568ZM357.691 415.887C356.525 415.887 355.407 415.424 354.582 414.599C353.758 413.775 353.295 412.657 353.295 411.491C353.295 410.325 353.758 409.206 354.582 408.382C355.407 407.557 356.525 407.094 357.691 407.094C358.857 407.094 359.975 407.557 360.8 408.382C361.624 409.206 362.087 410.325 362.087 411.491C362.087 412.657 361.624 413.775 360.8 414.599C359.975 415.424 358.857 415.887 357.691 415.887Z" fill="#F83838"/>
</g>
<path d="M269.204 312.456V307.984C269.204 307.863 269.252 307.747 269.338 307.662C269.423 307.576 269.539 307.528 269.66 307.528C269.78 307.528 269.896 307.576 269.982 307.662C270.067 307.747 270.115 307.863 270.115 307.984V312.456C270.381 312.362 270.612 312.188 270.775 311.957C270.938 311.726 271.026 311.45 271.026 311.168V307.984C271.026 307.863 271.074 307.747 271.159 307.662C271.244 307.576 271.36 307.528 271.481 307.528C271.602 307.528 271.718 307.576 271.803 307.662C271.888 307.747 271.936 307.863 271.936 307.984V311.168C271.937 311.693 271.755 312.201 271.423 312.608C271.091 313.015 270.629 313.294 270.115 313.399V319.823C270.115 319.944 270.067 320.06 269.982 320.145C269.896 320.231 269.78 320.278 269.66 320.278C269.539 320.278 269.423 320.231 269.338 320.145C269.252 320.06 269.204 319.944 269.204 319.823V313.399C268.69 313.294 268.228 313.015 267.896 312.608C267.564 312.201 267.383 311.693 267.383 311.168V307.984C267.383 307.863 267.431 307.747 267.516 307.662C267.602 307.576 267.717 307.528 267.838 307.528C267.959 307.528 268.075 307.576 268.16 307.662C268.246 307.747 268.294 307.863 268.294 307.984V311.168C268.293 311.45 268.381 311.726 268.544 311.957C268.707 312.188 268.938 312.362 269.204 312.456ZM275.124 314.764C273.832 314.474 272.847 312.976 272.847 311.171C272.847 309.159 274.07 307.528 275.579 307.528C277.088 307.528 278.311 309.159 278.311 311.171C278.311 312.976 277.327 314.474 276.035 314.764V319.823C276.035 319.944 275.987 320.06 275.901 320.145C275.816 320.231 275.7 320.278 275.579 320.278C275.458 320.278 275.343 320.231 275.257 320.145C275.172 320.06 275.124 319.944 275.124 319.823V314.764ZM275.579 313.903C276.519 313.903 277.401 312.729 277.401 311.171C277.401 309.614 276.519 308.439 275.579 308.439C274.639 308.439 273.758 309.614 273.758 311.171C273.758 312.729 274.639 313.903 275.579 313.903Z" fill="black"/>
<path d="M278.4 38.2479V33.7754C278.4 33.6546 278.448 33.5388 278.533 33.4534C278.618 33.368 278.734 33.32 278.855 33.32C278.976 33.32 279.092 33.368 279.177 33.4534C279.262 33.5388 279.31 33.6546 279.31 33.7754V38.2479C279.577 38.1537 279.807 37.9792 279.971 37.7484C280.134 37.5176 280.221 37.2419 280.221 36.9592V33.7754C280.221 33.6546 280.269 33.5388 280.354 33.4534C280.44 33.368 280.556 33.32 280.676 33.32C280.797 33.32 280.913 33.368 280.998 33.4534C281.084 33.5388 281.132 33.6546 281.132 33.7754V36.9592C281.132 37.4841 280.951 37.9929 280.619 38.3995C280.287 38.8061 279.825 39.0855 279.31 39.1905V45.6147C279.31 45.7355 279.262 45.8513 279.177 45.9367C279.092 46.0221 278.976 46.07 278.855 46.07C278.734 46.07 278.618 46.0221 278.533 45.9367C278.448 45.8513 278.4 45.7355 278.4 45.6147V39.1905C277.885 39.0855 277.423 38.8061 277.091 38.3995C276.759 37.9929 276.578 37.4841 276.578 36.9592V33.7754C276.578 33.6546 276.626 33.5388 276.711 33.4534C276.797 33.368 276.913 33.32 277.033 33.32C277.154 33.32 277.27 33.368 277.355 33.4534C277.441 33.5388 277.489 33.6546 277.489 33.7754V36.9592C277.489 37.2419 277.576 37.5176 277.739 37.7484C277.902 37.9792 278.133 38.1537 278.4 38.2479ZM284.319 40.5557C283.027 40.266 282.042 38.7679 282.042 36.9629C282.042 34.9502 283.266 33.32 284.775 33.32C286.284 33.32 287.507 34.9502 287.507 36.9629C287.507 38.7679 286.522 40.266 285.23 40.5557V45.6147C285.23 45.7355 285.182 45.8513 285.097 45.9367C285.011 46.0221 284.895 46.07 284.775 46.07C284.654 46.07 284.538 46.0221 284.453 45.9367C284.367 45.8513 284.319 45.7355 284.319 45.6147V40.5557ZM284.775 39.695C285.714 39.695 286.596 38.5202 286.596 36.9629C286.596 35.4055 285.714 34.2307 284.775 34.2307C283.835 34.2307 282.953 35.4055 282.953 36.9629C282.953 38.5202 283.835 39.695 284.775 39.695Z" fill="black"/>
<path d="M127.439 208.469V203.996C127.439 203.876 127.487 203.76 127.572 203.674C127.657 203.589 127.773 203.541 127.894 203.541C128.015 203.541 128.131 203.589 128.216 203.674C128.301 203.76 128.349 203.876 128.349 203.996V208.469C128.616 208.375 128.846 208.2 129.01 207.969C129.173 207.739 129.26 207.463 129.26 207.18V203.996C129.26 203.876 129.308 203.76 129.393 203.674C129.479 203.589 129.595 203.541 129.715 203.541C129.836 203.541 129.952 203.589 130.037 203.674C130.123 203.76 130.171 203.876 130.171 203.996V207.18C130.171 207.705 129.99 208.214 129.658 208.621C129.326 209.027 128.864 209.307 128.349 209.412V215.836C128.349 215.956 128.301 216.072 128.216 216.158C128.131 216.243 128.015 216.291 127.894 216.291C127.773 216.291 127.657 216.243 127.572 216.158C127.487 216.072 127.439 215.956 127.439 215.836V209.412C126.924 209.307 126.462 209.027 126.13 208.621C125.798 208.214 125.617 207.705 125.617 207.18V203.996C125.617 203.876 125.665 203.76 125.751 203.674C125.836 203.589 125.952 203.541 126.073 203.541C126.193 203.541 126.309 203.589 126.395 203.674C126.48 203.76 126.528 203.876 126.528 203.996V207.18C126.528 207.463 126.615 207.739 126.778 207.969C126.941 208.2 127.172 208.375 127.439 208.469ZM133.358 210.777C132.066 210.487 131.081 208.989 131.081 207.184C131.081 205.171 132.305 203.541 133.814 203.541C135.323 203.541 136.546 205.171 136.546 207.184C136.546 208.989 135.561 210.487 134.269 210.777V215.836C134.269 215.956 134.221 216.072 134.136 216.158C134.05 216.243 133.934 216.291 133.814 216.291C133.693 216.291 133.577 216.243 133.492 216.158C133.406 216.072 133.358 215.956 133.358 215.836V210.777ZM133.814 209.916C134.753 209.916 135.635 208.741 135.635 207.184C135.635 205.627 134.753 204.452 133.814 204.452C132.874 204.452 131.992 205.627 131.992 207.184C131.992 208.741 132.874 209.916 133.814 209.916Z" fill="black"/>
<path d="M205.447 176.082C205.449 176.314 205.437 176.542 205.41 176.766C206.573 177.405 207.455 178.458 207.879 179.715C208.304 180.973 208.241 182.344 207.703 183.558C207.165 184.772 206.191 185.739 204.974 186.269C203.757 186.799 202.385 186.852 201.13 186.419L201.158 189.371L199.392 189.388L199.362 186.208C198.349 186.738 197.181 186.894 196.065 186.648C194.949 186.401 193.955 185.769 193.259 184.863C192.562 183.956 192.208 182.833 192.259 181.69C192.309 180.548 192.76 179.461 193.534 178.619C193.888 179.56 194.439 180.415 195.15 181.126L196.399 179.878C195.419 178.897 194.863 177.57 194.85 176.184C194.837 174.778 195.382 173.425 196.366 172.422C197.35 171.419 198.693 170.848 200.098 170.834C201.503 170.821 202.856 171.366 203.859 172.35C204.863 173.335 205.434 174.677 205.447 176.082Z" fill="#2C5107"/>
<path d="M233.268 176.082C233.27 176.314 233.257 176.542 233.23 176.766C234.393 177.405 235.275 178.458 235.7 179.715C236.124 180.973 236.061 182.344 235.523 183.558C234.985 184.772 234.011 185.739 232.794 186.269C231.577 186.799 230.205 186.852 228.951 186.419L228.979 189.371L227.213 189.388L227.182 186.208C226.169 186.738 225.002 186.894 223.885 186.648C222.769 186.401 221.775 185.769 221.079 184.863C220.383 183.956 220.028 182.833 220.079 181.69C220.129 180.548 220.581 179.461 221.354 178.619C221.708 179.56 222.259 180.415 222.97 181.126L224.22 179.878C223.24 178.897 222.684 177.57 222.671 176.184C222.657 174.778 223.202 173.425 224.187 172.422C225.171 171.419 226.513 170.848 227.918 170.834C229.324 170.821 230.677 171.366 231.68 172.35C232.683 173.335 233.254 174.677 233.268 176.082Z" fill="#2C5107"/>
<path d="M261.088 176.082C261.09 176.314 261.077 176.542 261.05 176.766C262.214 177.405 263.095 178.458 263.52 179.715C263.945 180.973 263.882 182.344 263.344 183.558C262.806 184.772 261.832 185.739 260.615 186.269C259.397 186.799 258.026 186.852 256.771 186.419L256.799 189.371L255.033 189.388L255.003 186.208C253.99 186.738 252.822 186.894 251.706 186.648C250.589 186.401 249.595 185.769 248.899 184.863C248.203 183.956 247.849 182.833 247.899 181.69C247.949 180.548 248.401 179.461 249.174 178.619C249.529 179.56 250.08 180.415 250.791 181.126L252.04 179.878C251.06 178.897 250.504 177.57 250.491 176.184C250.477 174.778 251.023 173.425 252.007 172.422C252.991 171.419 254.333 170.848 255.739 170.834C257.144 170.821 258.497 171.366 259.5 172.35C260.503 173.335 261.074 174.677 261.088 176.082Z" fill="#2C5107"/>
<path d="M294.205 176.082C294.207 176.314 294.195 176.542 294.167 176.766C295.331 177.405 296.212 178.458 296.637 179.715C297.062 180.973 296.999 182.344 296.461 183.558C295.923 184.772 294.949 185.739 293.732 186.269C292.515 186.799 291.143 186.852 289.888 186.419L289.916 189.371L288.15 189.388L288.12 186.208C287.107 186.738 285.939 186.894 284.823 186.648C283.706 186.401 282.713 185.769 282.016 184.863C281.32 183.956 280.966 182.833 281.016 181.69C281.067 180.548 281.518 179.461 282.292 178.619C282.646 179.56 283.197 180.415 283.908 181.126L285.157 179.878C284.177 178.897 283.621 177.57 283.608 176.184C283.595 174.778 284.14 173.425 285.124 172.422C286.108 171.419 287.451 170.848 288.856 170.834C290.261 170.821 291.614 171.366 292.617 172.35C293.62 173.335 294.192 174.677 294.205 176.082Z" fill="#2C5107"/>
<path fill-rule="evenodd" clip-rule="evenodd" d="M175.127 40.3572C174.958 40.3572 174.793 40.4042 174.649 40.493C174.505 40.5818 174.389 40.7088 174.313 40.8599L171.581 46.3242C171.517 46.4508 171.484 46.5905 171.484 46.7322V50.3751C171.484 50.6166 171.58 50.8482 171.751 51.019C171.922 51.1898 172.154 51.2858 172.395 51.2858H173.306V61.3037C173.306 61.5452 173.402 61.7768 173.573 61.9476C173.743 62.1184 173.975 62.2144 174.217 62.2144H190.609C190.851 62.2144 191.083 62.1184 191.253 61.9476C191.424 61.7768 191.52 61.5452 191.52 61.3037V51.2858H192.431C192.672 51.2858 192.904 51.1898 193.075 51.019C193.246 50.8482 193.342 50.6166 193.342 50.3751V46.7322C193.342 46.5905 193.309 46.4508 193.245 46.3242L190.513 40.8599C190.437 40.7088 190.321 40.5818 190.177 40.493C190.033 40.4042 189.868 40.3572 189.699 40.3572H175.127ZM191.52 46.9471V49.4643H187.877V47.6429H186.056V49.4643H183.324V47.6429H181.502V49.4643H178.77V47.6429H176.949V49.4643H173.306V46.9471L175.69 42.1786H189.136L191.52 46.9471ZM179.681 54.9286H181.502V53.1072H179.681V54.9286ZM183.324 54.9286H185.145V53.1072H183.324V54.9286ZM181.502 57.6608H179.681V55.8394H181.502V57.6608ZM183.324 57.6608H185.145V55.8394H183.324V57.6608Z" fill="black"/>
<path d="M176.787 319.864H184.735V311.916L187.384 313.241L188.709 308.605L186.059 305.293H184.072C184.072 305.955 182.35 307.28 180.761 307.28C179.171 307.28 177.449 305.955 177.449 305.293H175.462L172.812 308.605L174.137 313.241L176.787 311.916V319.864Z" stroke="black" stroke-width="1.32468"/>
<g filter="url(#filter5_d_277_1269)">
<path d="M17.8281 469.553L17.8281 523.203L63.5295 523.203L63.5295 469.553L17.8281 469.553Z" fill="#D9D9D9"/>
</g>
<path d="M36.3885 488.254C36.0601 488.254 35.8295 488.187 35.6969 488.054C35.5643 487.921 35.4977 487.69 35.4971 487.363C35.4971 486.737 35.6456 486.158 35.9428 485.627C36.2399 485.095 36.6387 484.657 37.1391 484.313L40.0714 482.343C40.3841 482.124 40.736 482.014 41.127 482.014C41.5179 482.014 41.8698 482.124 42.1826 482.343L45.1148 484.313C45.6152 484.657 46.014 485.095 46.3111 485.627C46.6083 486.158 46.7568 486.737 46.7568 487.363C46.7568 487.691 46.6902 487.922 46.557 488.055C46.4237 488.188 46.1932 488.255 45.8654 488.254H36.3885ZM30.8055 498.528V488.887C30.524 488.715 30.2972 488.493 30.1252 488.219C29.9532 487.946 29.8672 487.629 29.8672 487.269C29.8672 486.908 30.0549 486.471 30.4302 485.955C30.8055 485.44 31.2434 484.939 31.7438 484.454C32.2443 484.939 32.6821 485.439 33.0575 485.955C33.4328 486.471 33.6204 486.909 33.6204 487.269C33.6204 487.628 33.5344 487.945 33.3624 488.219C33.1904 488.493 32.9636 488.716 32.6821 488.886V492.899H34.5588V491.022C34.5588 490.631 34.6839 490.256 34.9341 489.896C35.1843 489.536 35.544 489.302 36.0131 489.192H46.2408C46.7099 489.302 47.0696 489.536 47.3198 489.896C47.57 490.256 47.6952 490.631 47.6952 491.022V492.899H49.5718V488.887C49.2903 488.715 49.0635 488.493 48.8915 488.219C48.7195 487.946 48.6335 487.629 48.6335 487.269C48.6335 486.908 48.8211 486.471 49.1965 485.955C49.5718 485.44 50.0097 484.939 50.5101 484.454C51.0105 484.939 51.4484 485.439 51.8237 485.955C52.1991 486.471 52.3867 486.909 52.3867 487.269C52.3867 487.628 52.3007 487.945 52.1287 488.219C51.9567 488.493 51.7299 488.716 51.4484 488.887V498.528C51.4484 499.045 51.2648 499.487 50.8976 499.854C50.5304 500.222 50.0885 500.406 49.5718 500.405H43.9419C43.676 500.405 43.4534 500.315 43.2738 500.135C43.0943 499.955 43.0042 499.732 43.0036 499.467V496.652C43.0036 496.136 42.82 495.694 42.4528 495.327C42.0856 494.96 41.6437 494.776 41.127 494.775C40.6103 494.775 40.1686 494.959 39.8021 495.327C39.4355 495.695 39.2516 496.137 39.2503 496.652V499.467C39.2503 499.733 39.1603 499.956 38.9801 500.136C38.7999 500.316 38.5772 500.406 38.312 500.405H32.6821C32.1661 500.405 31.7244 500.222 31.3572 499.854C30.99 499.487 30.8061 499.045 30.8055 498.528Z" fill="black"/>
<g filter="url(#filter6_d_277_1269)">
<path d="M16.5 44.9935L16.5 382.124L38.3572 382.124L38.3572 44.9935L16.5 44.9935Z" fill="#EAEAEA"/>
</g>
<path d="M328.069 438.5L328.037 437.963L328.671 437.791C328.692 437.762 328.706 437.676 328.714 437.533C328.721 437.39 328.728 437.204 328.735 436.975C328.742 436.738 328.746 436.477 328.746 436.19L328.757 434.461C328.757 434.182 328.753 433.927 328.746 433.698C328.739 433.469 328.731 433.283 328.724 433.14C328.717 432.989 328.703 432.9 328.681 432.871L328.005 432.731L328.037 432.194H330.755C331.635 432.194 332.294 432.355 332.731 432.678C333.168 432.993 333.386 433.448 333.386 434.042C333.386 434.436 333.283 434.79 333.075 435.105C332.867 435.421 332.566 435.671 332.173 435.857C331.786 436.036 331.317 436.126 330.765 436.126C330.644 436.126 330.522 436.119 330.4 436.104C330.278 436.09 330.16 436.072 330.046 436.051V435.31C330.132 435.345 330.232 435.378 330.346 435.406C330.468 435.428 330.608 435.438 330.765 435.438C331.109 435.438 331.374 435.331 331.56 435.116C331.746 434.901 331.84 434.59 331.84 434.182C331.84 433.702 331.721 433.351 331.485 433.129C331.249 432.907 330.923 432.796 330.508 432.796H330.217C330.217 432.846 330.214 432.943 330.207 433.086C330.207 433.222 330.203 433.405 330.196 433.634C330.196 433.856 330.196 434.132 330.196 434.461L330.207 436.19C330.207 436.477 330.21 436.738 330.217 436.975C330.225 437.204 330.232 437.39 330.239 437.533C330.253 437.669 330.264 437.755 330.271 437.791L331.141 437.941L331.109 438.5H328.069ZM333.881 438.5L333.848 437.995L334.568 437.823C334.575 437.795 334.582 437.73 334.59 437.63C334.597 437.522 334.604 437.394 334.611 437.243C334.618 437.093 334.622 436.928 334.622 436.749L334.633 435.943C334.633 435.729 334.625 435.535 334.611 435.363C334.597 435.191 334.572 435.016 334.536 434.837L333.816 434.687V434.203L335.793 433.72L336.083 433.902C336.061 434.132 336.043 434.364 336.029 434.601C336.022 434.83 336.018 435.091 336.018 435.385V436.738C336.018 436.975 336.022 437.2 336.029 437.415C336.043 437.63 336.058 437.766 336.072 437.823L336.792 437.995L336.759 438.5H333.881ZM335.331 432.839C335.044 432.839 334.819 432.753 334.654 432.581C334.489 432.402 334.407 432.198 334.407 431.969C334.407 431.74 334.489 431.539 334.654 431.367C334.819 431.188 335.044 431.099 335.331 431.099C335.617 431.099 335.839 431.188 335.997 431.367C336.154 431.539 336.233 431.74 336.233 431.969C336.233 432.198 336.154 432.402 335.997 432.581C335.839 432.753 335.617 432.839 335.331 432.839ZM337.114 438.5L337.082 438.006L337.748 437.823C337.755 437.795 337.762 437.73 337.769 437.63C337.776 437.53 337.784 437.404 337.791 437.254C337.798 437.096 337.801 436.928 337.801 436.749L337.812 435.933C337.812 435.711 337.805 435.517 337.791 435.353C337.776 435.188 337.751 435.016 337.716 434.837L337.028 434.687V434.203L338.919 433.72L339.209 433.902L339.144 434.536L339.176 434.547C339.398 434.26 339.642 434.049 339.907 433.913C340.179 433.77 340.466 433.698 340.766 433.698C341.074 433.698 341.346 433.773 341.583 433.924C341.826 434.074 342.02 434.296 342.163 434.59C342.306 434.876 342.378 435.224 342.378 435.632V436.738C342.378 436.982 342.381 437.211 342.388 437.426C342.396 437.633 342.41 437.766 342.431 437.823L343.097 438.006L343.065 438.5H340.369L340.337 438.006L340.949 437.823C340.963 437.759 340.974 437.669 340.981 437.555C340.988 437.433 340.992 437.3 340.992 437.157C340.999 437.014 341.003 436.878 341.003 436.749V435.847C341.003 435.575 340.96 435.356 340.874 435.191C340.795 435.02 340.688 434.894 340.551 434.815C340.423 434.737 340.272 434.697 340.1 434.697C339.921 434.697 339.753 434.737 339.595 434.815C339.445 434.894 339.309 435.009 339.187 435.159V436.738C339.187 436.982 339.191 437.211 339.198 437.426C339.212 437.633 339.227 437.766 339.241 437.823L339.896 438.006L339.864 438.5H337.114ZM347.233 437.598C347.126 437.906 346.929 438.153 346.642 438.339C346.363 438.518 346.048 438.607 345.697 438.607C345.203 438.607 344.795 438.464 344.472 438.178C344.157 437.884 344 437.447 344 436.867L344.032 434.472H343.28V434.139L345.117 432.678H345.45L345.428 434.192L345.407 436.738C345.407 437.039 345.479 437.257 345.622 437.394C345.765 437.522 345.966 437.587 346.223 437.587C346.359 437.587 346.492 437.562 346.621 437.512C346.75 437.454 346.861 437.383 346.954 437.297L347.233 437.598ZM344.881 434.472V433.795H346.932V434.472H344.881ZM352.604 437.533L353.313 437.684V438.146L351.487 438.64L351.197 438.479L351.208 437.727L351.176 437.716C350.968 438.045 350.742 438.278 350.499 438.414C350.262 438.543 350.015 438.607 349.758 438.607C349.242 438.607 348.823 438.446 348.501 438.124C348.178 437.795 348.017 437.308 348.017 436.663V435.75C348.017 435.592 348.014 435.438 348.007 435.288C347.999 435.138 347.989 434.987 347.974 434.837L347.244 434.687V434.203L349.177 433.72L349.478 433.902C349.464 434.117 349.45 434.375 349.435 434.676C349.421 434.977 349.414 435.285 349.414 435.6L349.403 436.502C349.403 436.874 349.485 437.146 349.65 437.318C349.815 437.49 350.04 437.576 350.327 437.576C350.47 437.576 350.617 437.537 350.767 437.458C350.925 437.379 351.057 437.25 351.165 437.071V436.029C351.165 435.857 351.165 435.707 351.165 435.578C351.165 435.442 351.158 435.317 351.143 435.202C351.136 435.08 351.125 434.959 351.111 434.837L350.348 434.687V434.203L352.293 433.72L352.583 433.902C352.568 434.024 352.558 434.16 352.551 434.311C352.551 434.461 352.547 434.636 352.54 434.837C352.54 435.03 352.54 435.252 352.54 435.503V436.362C352.54 436.534 352.543 436.72 352.551 436.921C352.565 437.114 352.583 437.318 352.604 437.533ZM355.762 438.5L355.73 438.006L356.396 437.823C356.403 437.795 356.411 437.73 356.418 437.63C356.425 437.522 356.432 437.394 356.439 437.243C356.446 437.093 356.45 436.928 356.45 436.749L356.461 435.943C356.461 435.8 356.457 435.671 356.45 435.557C356.443 435.435 356.432 435.317 356.418 435.202C356.403 435.08 356.385 434.959 356.364 434.837L355.676 434.687V434.203L357.567 433.72L357.857 433.902L357.793 434.525L357.825 434.536C358.054 434.243 358.294 434.031 358.545 433.902C358.795 433.766 359.057 433.698 359.329 433.698C359.608 433.698 359.866 433.77 360.102 433.913C360.346 434.049 360.543 434.26 360.693 434.547C360.843 434.826 360.919 435.188 360.919 435.632L360.94 436.738C360.94 436.975 360.944 437.2 360.951 437.415C360.958 437.63 360.972 437.766 360.994 437.823L361.574 438.006L361.542 438.5H358.996L358.964 438.006L359.511 437.823C359.526 437.759 359.537 437.669 359.544 437.555C359.551 437.433 359.554 437.3 359.554 437.157C359.562 437.014 359.565 436.878 359.565 436.749L359.554 435.739C359.554 435.481 359.515 435.277 359.436 435.127C359.365 434.969 359.264 434.858 359.135 434.794C359.014 434.729 358.87 434.697 358.706 434.697C358.548 434.697 358.391 434.74 358.233 434.826C358.076 434.905 357.943 435.016 357.836 435.159V436.738C357.836 436.975 357.839 437.2 357.846 437.415C357.861 437.63 357.875 437.766 357.889 437.823L358.48 438.006L358.448 438.5H355.762ZM362.068 438.5L362.036 438.006L362.594 437.823C362.609 437.759 362.62 437.669 362.627 437.555C362.634 437.433 362.637 437.3 362.637 437.157C362.645 437.014 362.648 436.878 362.648 436.749L362.627 435.836C362.627 435.557 362.587 435.335 362.509 435.17C362.43 435.005 362.322 434.887 362.186 434.815C362.05 434.737 361.9 434.697 361.735 434.697C361.556 434.697 361.384 434.737 361.219 434.815C361.062 434.887 360.929 434.998 360.822 435.148L360.51 434.74C360.768 434.396 361.04 434.139 361.327 433.967C361.62 433.788 361.936 433.698 362.272 433.698C362.609 433.698 362.906 433.777 363.164 433.935C363.429 434.085 363.633 434.303 363.776 434.59C363.919 434.876 363.991 435.22 363.991 435.621L364.012 436.738C364.012 436.975 364.016 437.2 364.023 437.415C364.037 437.63 364.052 437.766 364.066 437.823L364.732 438.006L364.7 438.5H362.068ZM366.881 438.586C366.551 438.586 366.265 438.514 366.021 438.371C365.785 438.228 365.602 438.056 365.473 437.855C365.352 437.655 365.291 437.465 365.291 437.286C365.291 437.028 365.37 436.813 365.527 436.642C365.692 436.463 365.942 436.323 366.279 436.223L367.966 435.729V435.342C367.966 435.191 367.915 435.052 367.815 434.923C367.722 434.787 367.597 434.676 367.439 434.59C367.282 434.504 367.113 434.461 366.934 434.461C366.82 434.461 366.737 434.49 366.687 434.547C366.644 434.597 366.616 434.701 366.601 434.858L366.548 435.514C366.19 435.585 365.896 435.575 365.667 435.481C365.445 435.381 365.334 435.22 365.334 434.998C365.334 434.862 365.405 434.722 365.549 434.579C365.692 434.436 365.867 434.303 366.075 434.182C366.29 434.053 366.508 433.945 366.73 433.859C366.952 433.766 367.146 433.713 367.31 433.698C367.948 433.698 368.453 433.845 368.825 434.139C369.197 434.425 369.387 434.812 369.394 435.299L369.362 436.792C369.362 436.993 369.366 437.15 369.373 437.265C369.387 437.379 369.409 437.472 369.437 437.544L370.146 437.673V438.124L369.448 438.425C369.319 438.475 369.201 438.514 369.093 438.543C368.986 438.572 368.882 438.586 368.782 438.586C368.503 438.586 368.306 438.443 368.191 438.156L368.009 437.662L368.234 437.716C368.012 437.988 367.783 438.203 367.547 438.36C367.317 438.511 367.095 438.586 366.881 438.586ZM367.428 437.619C367.529 437.619 367.625 437.601 367.718 437.565C367.812 437.522 367.898 437.462 367.976 437.383V436.33L367.246 436.47C367.067 436.491 366.938 436.545 366.859 436.631C366.787 436.717 366.752 436.831 366.752 436.975C366.752 437.139 366.816 437.29 366.945 437.426C367.081 437.555 367.242 437.619 367.428 437.619ZM372.316 438.586C372.015 438.586 371.718 438.554 371.425 438.489C371.131 438.418 370.884 438.328 370.683 438.221L370.63 436.964H371.317L371.543 437.737C371.815 437.895 372.098 437.974 372.391 437.974C372.613 437.974 372.782 437.931 372.896 437.845C373.011 437.752 373.068 437.63 373.068 437.479C373.068 437.322 373.004 437.186 372.875 437.071C372.753 436.957 372.499 436.828 372.112 436.685C371.582 436.491 371.213 436.28 371.006 436.051C370.798 435.822 370.694 435.535 370.694 435.191C370.694 434.898 370.784 434.64 370.963 434.418C371.142 434.189 371.392 434.013 371.715 433.892C372.037 433.763 372.409 433.698 372.832 433.698C373.061 433.698 373.294 433.72 373.53 433.763C373.766 433.806 373.96 433.863 374.11 433.935L374.239 435.181H373.551L373.315 434.418C373.244 434.375 373.154 434.343 373.047 434.321C372.946 434.293 372.85 434.278 372.757 434.278C372.542 434.278 372.366 434.325 372.23 434.418C372.101 434.511 372.037 434.636 372.037 434.794C372.037 434.966 372.116 435.109 372.273 435.224C372.431 435.338 372.717 435.481 373.133 435.653C373.605 435.847 373.942 436.054 374.142 436.276C374.343 436.491 374.443 436.76 374.443 437.082C374.443 437.533 374.246 437.898 373.852 438.178C373.458 438.45 372.946 438.586 372.316 438.586ZM380.115 437.533L380.824 437.684V438.146L378.998 438.64L378.708 438.479L378.718 437.727L378.686 437.716C378.479 438.045 378.253 438.278 378.009 438.414C377.773 438.543 377.526 438.607 377.268 438.607C376.753 438.607 376.334 438.446 376.011 438.124C375.689 437.795 375.528 437.308 375.528 436.663V435.75C375.528 435.592 375.524 435.438 375.517 435.288C375.51 435.138 375.499 434.987 375.485 434.837L374.755 434.687V434.203L376.688 433.72L376.989 433.902C376.975 434.117 376.96 434.375 376.946 434.676C376.932 434.977 376.925 435.285 376.925 435.6L376.914 436.502C376.914 436.874 376.996 437.146 377.161 437.318C377.326 437.49 377.551 437.576 377.838 437.576C377.981 437.576 378.128 437.537 378.278 437.458C378.436 437.379 378.568 437.25 378.676 437.071V436.029C378.676 435.857 378.676 435.707 378.676 435.578C378.676 435.442 378.668 435.317 378.654 435.202C378.647 435.08 378.636 434.959 378.622 434.837L377.859 434.687V434.203L379.803 433.72L380.093 433.902C380.079 434.024 380.068 434.16 380.061 434.311C380.061 434.461 380.058 434.636 380.051 434.837C380.051 435.03 380.051 435.252 380.051 435.503V436.362C380.051 436.534 380.054 436.72 380.061 436.921C380.076 437.114 380.093 437.318 380.115 437.533ZM381.2 438.5L381.168 438.006L381.78 437.823C381.794 437.73 381.805 437.583 381.812 437.383C381.819 437.182 381.827 436.96 381.834 436.717C381.841 436.466 381.844 436.226 381.844 435.997V434.622C381.844 434.364 381.841 434.114 381.834 433.87C381.834 433.619 381.83 433.383 381.823 433.161C381.823 432.932 381.819 432.728 381.812 432.549C381.805 432.37 381.798 432.223 381.791 432.108L380.996 432.001L380.974 431.539L383.005 431.013L383.305 431.195C383.291 431.396 383.277 431.596 383.262 431.797C383.255 431.997 383.248 432.216 383.241 432.452C383.241 432.681 383.237 432.95 383.23 433.258C383.23 433.559 383.23 433.92 383.23 434.343L383.219 436.771C383.219 436.928 383.223 437.082 383.23 437.232C383.237 437.376 383.241 437.501 383.241 437.608C383.248 437.709 383.255 437.78 383.262 437.823L383.928 438.006L383.896 438.5H381.2ZM386.968 438.5H385.164C385.056 438.35 384.956 438.221 384.863 438.113C384.777 437.999 384.688 437.888 384.594 437.78L383.348 436.373H383.08L383.091 435.976L383.413 435.9L384.992 434.407L384.283 434.289L384.315 433.784H386.7L386.732 434.289L386.023 434.418L384.24 435.9L384.358 435.417L386.002 437.286C386.138 437.444 386.256 437.576 386.356 437.684C386.464 437.791 386.542 437.87 386.592 437.92L387.001 438.006L386.968 438.5ZM342.362 448.5L342.329 447.963L342.888 447.791L345.069 442.506L345.96 442.001L348.442 447.791L348.989 447.963L348.957 448.5H346.1L346.057 447.963L346.744 447.791L346.164 446.405L346.046 446.04L344.972 443.494L345.283 443.58L344.392 446.008L344.284 446.33L343.78 447.791L344.467 447.963L344.435 448.5H342.362ZM344.037 446.674V445.943C344.173 445.951 344.331 445.961 344.51 445.976C344.696 445.983 344.94 445.986 345.24 445.986C345.527 445.986 345.763 445.983 345.949 445.976C346.143 445.961 346.308 445.951 346.444 445.943V446.663C346.308 446.663 346.143 446.66 345.949 446.652C345.756 446.645 345.52 446.642 345.24 446.642C344.947 446.642 344.707 446.645 344.521 446.652C344.335 446.66 344.173 446.667 344.037 446.674ZM349.129 448.5L349.097 448.006L349.763 447.823C349.77 447.795 349.777 447.73 349.784 447.63C349.792 447.522 349.799 447.394 349.806 447.243C349.813 447.086 349.817 446.921 349.817 446.749L349.827 445.943C349.827 445.729 349.82 445.539 349.806 445.374C349.792 445.202 349.766 445.023 349.731 444.837L349.043 444.687V444.203L350.902 443.72L351.181 443.902L351.138 444.751L351.17 444.762C351.378 444.361 351.586 444.089 351.793 443.945C352.008 443.802 352.226 443.73 352.448 443.73C352.642 443.73 352.81 443.784 352.953 443.892C353.104 443.999 353.179 444.167 353.179 444.396C353.179 444.626 353.1 444.805 352.943 444.934C352.785 445.062 352.602 445.127 352.395 445.127C352.223 445.127 352.069 445.098 351.933 445.041C351.797 444.977 351.646 444.866 351.482 444.708L351.782 444.74C351.675 444.819 351.571 444.919 351.471 445.041C351.371 445.163 351.285 445.302 351.213 445.46L351.224 446.309C351.231 446.574 351.235 446.813 351.235 447.028C351.242 447.236 351.249 447.411 351.256 447.555C351.263 447.691 351.27 447.78 351.278 447.823L352.212 447.984L352.18 448.5H349.129ZM355.8 448.586C355.335 448.586 354.919 448.482 354.554 448.274C354.196 448.067 353.913 447.784 353.705 447.426C353.505 447.068 353.405 446.663 353.405 446.212C353.405 445.711 353.519 445.274 353.748 444.901C353.977 444.522 354.275 444.225 354.64 444.01C355.012 443.795 355.41 443.691 355.832 443.698C356.462 443.698 356.949 443.895 357.293 444.289C357.637 444.676 357.809 445.181 357.809 445.804V446.062H354.651V445.503H356.756L356.595 445.761V445.396C356.595 445.059 356.52 444.79 356.369 444.59C356.219 444.389 356.011 444.289 355.746 444.289C355.567 444.289 355.406 444.339 355.263 444.439C355.12 444.54 355.005 444.694 354.919 444.901C354.84 445.102 354.801 445.356 354.801 445.664V445.89C354.801 446.391 354.933 446.796 355.198 447.104C355.471 447.411 355.832 447.565 356.283 447.565C356.527 447.565 356.749 447.522 356.949 447.437C357.15 447.343 357.343 447.189 357.53 446.975L357.863 447.275C357.662 447.705 357.379 448.031 357.014 448.253C356.649 448.475 356.244 448.586 355.8 448.586ZM360.161 448.586C359.832 448.586 359.545 448.514 359.302 448.371C359.066 448.228 358.883 448.056 358.754 447.855C358.632 447.655 358.572 447.465 358.572 447.286C358.572 447.028 358.65 446.813 358.808 446.642C358.973 446.463 359.223 446.323 359.56 446.223L361.246 445.729V445.342C361.246 445.191 361.196 445.052 361.096 444.923C361.003 444.787 360.877 444.676 360.72 444.59C360.562 444.504 360.394 444.461 360.215 444.461C360.1 444.461 360.018 444.49 359.968 444.547C359.925 444.597 359.896 444.701 359.882 444.858L359.828 445.514C359.47 445.585 359.177 445.575 358.947 445.481C358.725 445.381 358.614 445.22 358.614 444.998C358.614 444.862 358.686 444.722 358.829 444.579C358.973 444.436 359.148 444.303 359.356 444.182C359.571 444.053 359.789 443.945 360.011 443.859C360.233 443.766 360.426 443.713 360.591 443.698C361.228 443.698 361.733 443.845 362.106 444.139C362.478 444.425 362.668 444.812 362.675 445.299L362.643 446.792C362.643 446.993 362.646 447.15 362.654 447.265C362.668 447.379 362.689 447.472 362.718 447.544L363.427 447.673V448.124L362.729 448.425C362.6 448.475 362.482 448.514 362.374 448.543C362.267 448.572 362.163 448.586 362.063 448.586C361.783 448.586 361.586 448.443 361.472 448.156L361.289 447.662L361.515 447.716C361.293 447.988 361.064 448.203 360.827 448.36C360.598 448.511 360.376 448.586 360.161 448.586ZM360.709 447.619C360.809 447.619 360.906 447.601 360.999 447.565C361.092 447.522 361.178 447.462 361.257 447.383V446.33L360.527 446.47C360.348 446.491 360.219 446.545 360.14 446.631C360.068 446.717 360.032 446.831 360.032 446.975C360.032 447.139 360.097 447.29 360.226 447.426C360.362 447.555 360.523 447.619 360.709 447.619ZM365.608 448.5L365.575 447.963L366.134 447.791L368.315 442.506L369.206 442.001L371.688 447.791L372.236 447.963L372.203 448.5H369.346L369.303 447.963L369.99 447.791L369.41 446.405L369.292 446.04L368.218 443.494L368.53 443.58L367.638 446.008L367.53 446.33L367.026 447.791L367.713 447.963L367.681 448.5H365.608ZM367.283 446.674V445.943C367.419 445.951 367.577 445.961 367.756 445.976C367.942 445.983 368.186 445.986 368.487 445.986C368.773 445.986 369.009 445.983 369.196 445.976C369.389 445.961 369.554 445.951 369.69 445.943V446.663C369.554 446.663 369.389 446.66 369.196 446.652C369.002 446.645 368.766 446.642 368.487 446.642C368.193 446.642 367.953 446.645 367.767 446.652C367.581 446.66 367.419 446.667 367.283 446.674Z" fill="white"/>
<g filter="url(#filter7_d_277_1269)">
<path fill-rule="evenodd" clip-rule="evenodd" d="M355.064 63.9604C356.364 62.8539 357.572 61.6449 358.679 60.3449C361.009 57.6003 362.46 54.8675 362.63 52.4021C362.698 51.4001 362.564 50.3946 362.235 49.4457C361.906 48.4968 361.389 47.6239 360.715 46.8793C360.041 46.1346 359.224 45.5334 358.313 45.1116C357.401 44.6898 356.414 44.456 355.41 44.4243C354.406 44.3925 353.406 44.5634 352.47 44.9267C351.534 45.29 350.68 45.8384 349.961 46.5389C349.241 47.2395 348.67 48.0779 348.282 49.0041C347.893 49.9303 347.695 50.9253 347.7 51.9296C347.715 54.4009 348.992 57.22 351.143 60.1064C352.164 61.4737 353.294 62.7568 354.521 63.9432C354.639 64.0569 354.727 64.1396 354.785 64.1913L355.064 63.9604ZM353.942 65.2059C353.942 65.2059 346.177 58.235 346.386 51.6241C346.46 49.2934 347.456 47.0874 349.157 45.4915C350.857 43.8955 353.121 43.0404 355.452 43.1141C357.783 43.1879 359.989 44.1845 361.585 45.8848C363.181 47.585 364.036 49.8496 363.962 52.1803C363.753 58.7912 355.563 65.2572 355.563 65.2572C355.106 65.6518 354.376 65.6243 353.942 65.2059ZM355.077 54.9781C355.892 55.0039 356.685 54.7046 357.28 54.146C357.875 53.5874 358.224 52.8153 358.25 51.9996C358.276 51.1838 357.976 50.3912 357.418 49.7961C356.859 49.201 356.087 48.8522 355.271 48.8264C354.456 48.8006 353.663 49.0999 353.068 49.6585C352.473 50.217 352.124 50.9891 352.098 51.8049C352.072 52.6206 352.372 53.4133 352.93 54.0083C353.489 54.6034 354.261 54.9522 355.077 54.9781ZM355.035 56.2963C353.87 56.2594 352.767 55.7611 351.969 54.911C351.171 54.0608 350.743 52.9285 350.78 51.7632C350.817 50.5978 351.315 49.4948 352.165 48.6968C353.015 47.8989 354.148 47.4713 355.313 47.5082C356.478 47.5451 357.581 48.0434 358.379 48.8935C359.177 49.7436 359.605 50.8759 359.568 52.0413C359.531 53.2067 359.033 54.3096 358.183 55.1076C357.333 55.9056 356.2 56.3331 355.035 56.2963Z" fill="#F83838"/>
</g>
<path d="M326.671 26.5L326.638 25.9629L327.272 25.791C327.294 25.7624 327.308 25.6764 327.315 25.5332C327.322 25.39 327.329 25.2038 327.337 24.9746C327.344 24.7383 327.347 24.4769 327.347 24.1904L327.358 22.4609C327.358 22.1816 327.355 21.9274 327.347 21.6982C327.34 21.4691 327.333 21.2829 327.326 21.1396C327.319 20.9893 327.304 20.8997 327.283 20.8711L326.606 20.7314L326.638 20.1943H329.356C330.237 20.1943 330.896 20.3555 331.333 20.6777C331.77 20.9928 331.988 21.4476 331.988 22.042C331.988 22.4359 331.884 22.7904 331.676 23.1055C331.469 23.4206 331.168 23.6712 330.774 23.8574C330.387 24.0365 329.918 24.126 329.367 24.126C329.245 24.126 329.123 24.1188 329.002 24.1045C328.88 24.0902 328.762 24.0723 328.647 24.0508V23.3096C328.733 23.3454 328.833 23.3776 328.948 23.4062C329.07 23.4277 329.209 23.4385 329.367 23.4385C329.711 23.4385 329.976 23.3311 330.162 23.1162C330.348 22.9014 330.441 22.5898 330.441 22.1816C330.441 21.7018 330.323 21.3509 330.087 21.1289C329.85 20.9069 329.524 20.7959 329.109 20.7959H328.819C328.819 20.846 328.815 20.9427 328.808 21.0859C328.808 21.222 328.805 21.4046 328.798 21.6338C328.798 21.8558 328.798 22.1315 328.798 22.4609L328.808 24.1904C328.808 24.4769 328.812 24.7383 328.819 24.9746C328.826 25.2038 328.833 25.39 328.841 25.5332C328.855 25.6693 328.866 25.7552 328.873 25.791L329.743 25.9414L329.711 26.5H326.671ZM332.482 26.5L332.45 25.9951L333.17 25.8232C333.177 25.7946 333.184 25.7301 333.191 25.6299C333.198 25.5225 333.205 25.3936 333.213 25.2432C333.22 25.0928 333.223 24.9281 333.223 24.749L333.234 23.9434C333.234 23.7285 333.227 23.5352 333.213 23.3633C333.198 23.1914 333.173 23.016 333.137 22.8369L332.418 22.6865V22.2031L334.394 21.7197L334.684 21.9023C334.663 22.1315 334.645 22.3643 334.631 22.6006C334.623 22.8298 334.62 23.0911 334.62 23.3848V24.7383C334.62 24.9746 334.623 25.2002 334.631 25.415C334.645 25.6299 334.659 25.766 334.674 25.8232L335.393 25.9951L335.361 26.5H332.482ZM333.932 20.8389C333.646 20.8389 333.42 20.7529 333.256 20.5811C333.091 20.402 333.009 20.1979 333.009 19.9688C333.009 19.7396 333.091 19.5391 333.256 19.3672C333.42 19.1882 333.646 19.0986 333.932 19.0986C334.219 19.0986 334.441 19.1882 334.598 19.3672C334.756 19.5391 334.835 19.7396 334.835 19.9688C334.835 20.1979 334.756 20.402 334.598 20.5811C334.441 20.7529 334.219 20.8389 333.932 20.8389ZM335.716 26.5L335.683 26.0059L336.349 25.8232C336.356 25.7946 336.364 25.7301 336.371 25.6299C336.378 25.5296 336.385 25.4043 336.392 25.2539C336.399 25.0964 336.403 24.9281 336.403 24.749L336.414 23.9326C336.414 23.7106 336.407 23.5173 336.392 23.3525C336.378 23.1878 336.353 23.016 336.317 22.8369L335.63 22.6865V22.2031L337.52 21.7197L337.81 21.9023L337.746 22.5361L337.778 22.5469C338 22.2604 338.244 22.0492 338.509 21.9131C338.781 21.7699 339.067 21.6982 339.368 21.6982C339.676 21.6982 339.948 21.7734 340.184 21.9238C340.428 22.0742 340.621 22.2962 340.764 22.5898C340.908 22.8763 340.979 23.2236 340.979 23.6318V24.7383C340.979 24.9818 340.983 25.2109 340.99 25.4258C340.997 25.6335 341.011 25.766 341.033 25.8232L341.699 26.0059L341.667 26.5H338.97L338.938 26.0059L339.551 25.8232C339.565 25.7588 339.576 25.6693 339.583 25.5547C339.59 25.4329 339.593 25.3005 339.593 25.1572C339.601 25.014 339.604 24.8779 339.604 24.749V23.8467C339.604 23.5745 339.561 23.3561 339.475 23.1914C339.397 23.0195 339.289 22.8942 339.153 22.8154C339.024 22.7367 338.874 22.6973 338.702 22.6973C338.523 22.6973 338.355 22.7367 338.197 22.8154C338.047 22.8942 337.911 23.0088 337.789 23.1592V24.7383C337.789 24.9818 337.792 25.2109 337.8 25.4258C337.814 25.6335 337.828 25.766 337.842 25.8232L338.498 26.0059L338.466 26.5H335.716ZM345.835 25.5977C345.727 25.9056 345.53 26.1527 345.244 26.3389C344.965 26.5179 344.649 26.6074 344.299 26.6074C343.804 26.6074 343.396 26.4642 343.074 26.1777C342.759 25.8841 342.601 25.4473 342.601 24.8672L342.634 22.4717H341.882V22.1387L343.718 20.6777H344.051L344.03 22.1924L344.009 24.7383C344.009 25.0391 344.08 25.2575 344.223 25.3936C344.367 25.5225 344.567 25.5869 344.825 25.5869C344.961 25.5869 345.093 25.5618 345.222 25.5117C345.351 25.4544 345.462 25.3828 345.555 25.2969L345.835 25.5977ZM343.482 22.4717V21.7949H345.534V22.4717H343.482ZM351.206 25.5332L351.915 25.6836V26.1455L350.089 26.6396L349.799 26.4785L349.809 25.7266L349.777 25.7158C349.569 26.0452 349.344 26.278 349.1 26.4141C348.864 26.543 348.617 26.6074 348.359 26.6074C347.843 26.6074 347.425 26.4463 347.102 26.124C346.78 25.7946 346.619 25.3076 346.619 24.6631V23.75C346.619 23.5924 346.615 23.4385 346.608 23.2881C346.601 23.1377 346.59 22.9873 346.576 22.8369L345.845 22.6865V22.2031L347.779 21.7197L348.08 21.9023C348.065 22.1172 348.051 22.375 348.037 22.6758C348.023 22.9766 348.015 23.2845 348.015 23.5996L348.005 24.502C348.005 24.8743 348.087 25.1465 348.252 25.3184C348.416 25.4902 348.642 25.5762 348.928 25.5762C349.072 25.5762 349.218 25.5368 349.369 25.458C349.526 25.3792 349.659 25.2503 349.766 25.0713V24.0293C349.766 23.8574 349.766 23.707 349.766 23.5781C349.766 23.4421 349.759 23.3167 349.745 23.2021C349.738 23.0804 349.727 22.9587 349.713 22.8369L348.95 22.6865V22.2031L350.894 21.7197L351.184 21.9023C351.17 22.0241 351.159 22.1602 351.152 22.3105C351.152 22.4609 351.148 22.6364 351.141 22.8369C351.141 23.0303 351.141 23.2523 351.141 23.5029V24.3623C351.141 24.5342 351.145 24.7204 351.152 24.9209C351.166 25.1143 351.184 25.3184 351.206 25.5332ZM354.407 26.5L354.375 26.0059L354.987 25.8232C355.001 25.7301 355.012 25.5833 355.019 25.3828C355.026 25.1823 355.034 24.9603 355.041 24.7168C355.048 24.4661 355.051 24.2262 355.051 23.9971V22.6221C355.051 22.3643 355.048 22.1136 355.041 21.8701C355.041 21.6195 355.037 21.3831 355.03 21.1611C355.03 20.932 355.026 20.7279 355.019 20.5488C355.012 20.3698 355.005 20.223 354.998 20.1084L354.203 20.001L354.181 19.5391L356.212 19.0127L356.512 19.1953C356.498 19.3958 356.484 19.5964 356.469 19.7969C356.462 19.9974 356.455 20.2158 356.448 20.4521C356.448 20.6813 356.444 20.9499 356.437 21.2578C356.437 21.5586 356.437 21.9202 356.437 22.3428L356.426 24.7705C356.426 24.9281 356.43 25.082 356.437 25.2324C356.444 25.3757 356.448 25.501 356.448 25.6084C356.455 25.7087 356.462 25.7803 356.469 25.8232L357.135 26.0059L357.103 26.5H354.407ZM360.176 26.5H358.371C358.263 26.3496 358.163 26.2207 358.07 26.1133C357.984 25.9987 357.895 25.8877 357.801 25.7803L356.555 24.373H356.287L356.298 23.9756L356.62 23.9004L358.199 22.4072L357.49 22.2891L357.522 21.7842H359.907L359.939 22.2891L359.23 22.418L357.447 23.9004L357.565 23.417L359.209 25.2861C359.345 25.4437 359.463 25.5762 359.563 25.6836C359.671 25.791 359.749 25.8698 359.8 25.9199L360.208 26.0059L360.176 26.5ZM362.764 26.5859C362.299 26.5859 361.884 26.4821 361.518 26.2744C361.16 26.0667 360.877 25.7839 360.67 25.4258C360.469 25.0677 360.369 24.6631 360.369 24.2119C360.369 23.7106 360.483 23.2738 360.713 22.9014C360.942 22.5218 361.239 22.2246 361.604 22.0098C361.977 21.7949 362.374 21.6911 362.797 21.6982C363.427 21.6982 363.914 21.8952 364.258 22.2891C364.601 22.6758 364.773 23.1807 364.773 23.8037V24.0615H361.615V23.5029H363.72L363.559 23.7607V23.3955C363.559 23.0589 363.484 22.7904 363.334 22.5898C363.183 22.3893 362.976 22.2891 362.711 22.2891C362.532 22.2891 362.37 22.3392 362.227 22.4395C362.084 22.5397 361.969 22.6937 361.884 22.9014C361.805 23.1019 361.765 23.3561 361.765 23.6641V23.8896C361.765 24.391 361.898 24.7956 362.163 25.1035C362.435 25.4115 362.797 25.5654 363.248 25.5654C363.491 25.5654 363.713 25.5225 363.914 25.4365C364.114 25.3434 364.308 25.1895 364.494 24.9746L364.827 25.2754C364.626 25.7051 364.343 26.0309 363.978 26.2529C363.613 26.4749 363.208 26.5859 362.764 26.5859ZM365.278 26.5L365.246 25.9951L365.944 25.8232C365.951 25.7445 365.958 25.6084 365.966 25.415C365.98 25.2145 365.991 24.9854 365.998 24.7275C366.005 24.4697 366.009 24.2191 366.009 23.9756V22.6221C366.009 22.3714 366.005 22.1243 365.998 21.8809C365.998 21.6302 365.994 21.3939 365.987 21.1719C365.987 20.9427 365.983 20.7386 365.976 20.5596C365.969 20.3734 365.958 20.223 365.944 20.1084L365.149 20.001L365.128 19.5391L367.179 19.0127L367.48 19.1953C367.466 19.4961 367.452 19.7897 367.437 20.0762C367.43 20.3555 367.426 20.6742 367.426 21.0322C367.426 21.3903 367.423 21.8271 367.416 22.3428L367.405 23.9219C367.405 24.4232 367.409 24.8493 367.416 25.2002C367.43 25.5439 367.444 25.7516 367.459 25.8232L368.157 25.9951L368.135 26.5H365.278ZM373.721 25.5332L374.43 25.6836V26.1455L372.604 26.6396L372.314 26.4785L372.325 25.7266L372.293 25.7158C372.085 26.0452 371.859 26.278 371.616 26.4141C371.38 26.543 371.133 26.6074 370.875 26.6074C370.359 26.6074 369.94 26.4463 369.618 26.124C369.296 25.7946 369.134 25.3076 369.134 24.6631V23.75C369.134 23.5924 369.131 23.4385 369.124 23.2881C369.117 23.1377 369.106 22.9873 369.092 22.8369L368.361 22.6865V22.2031L370.295 21.7197L370.595 21.9023C370.581 22.1172 370.567 22.375 370.552 22.6758C370.538 22.9766 370.531 23.2845 370.531 23.5996L370.52 24.502C370.52 24.8743 370.603 25.1465 370.767 25.3184C370.932 25.4902 371.158 25.5762 371.444 25.5762C371.587 25.5762 371.734 25.5368 371.884 25.458C372.042 25.3792 372.175 25.2503 372.282 25.0713V24.0293C372.282 23.8574 372.282 23.707 372.282 23.5781C372.282 23.4421 372.275 23.3167 372.26 23.2021C372.253 23.0804 372.243 22.9587 372.228 22.8369L371.466 22.6865V22.2031L373.41 21.7197L373.7 21.9023C373.686 22.0241 373.675 22.1602 373.668 22.3105C373.668 22.4609 373.664 22.6364 373.657 22.8369C373.657 23.0303 373.657 23.2523 373.657 23.5029V24.3623C373.657 24.5342 373.661 24.7204 373.668 24.9209C373.682 25.1143 373.7 25.3184 373.721 25.5332ZM376.568 26.5859C376.239 26.5859 375.952 26.5143 375.709 26.3711C375.472 26.2279 375.29 26.056 375.161 25.8555C375.039 25.6549 374.978 25.4652 374.978 25.2861C374.978 25.0283 375.057 24.8135 375.215 24.6416C375.379 24.4626 375.63 24.3229 375.967 24.2227L377.653 23.7285V23.3418C377.653 23.1914 377.603 23.0518 377.503 22.9229C377.41 22.7868 377.284 22.6758 377.127 22.5898C376.969 22.5039 376.801 22.4609 376.622 22.4609C376.507 22.4609 376.425 22.4896 376.375 22.5469C376.332 22.597 376.303 22.7008 376.289 22.8584L376.235 23.5137C375.877 23.5853 375.583 23.5745 375.354 23.4814C375.132 23.3812 375.021 23.2201 375.021 22.998C375.021 22.862 375.093 22.7223 375.236 22.5791C375.379 22.4359 375.555 22.3034 375.762 22.1816C375.977 22.0527 376.196 21.9453 376.418 21.8594C376.64 21.7663 376.833 21.7126 376.998 21.6982C377.635 21.6982 378.14 21.8451 378.512 22.1387C378.885 22.4251 379.075 22.8118 379.082 23.2988L379.05 24.792C379.05 24.9925 379.053 25.1501 379.06 25.2646C379.075 25.3792 379.096 25.4723 379.125 25.5439L379.834 25.6729V26.124L379.135 26.4248C379.007 26.4749 378.888 26.5143 378.781 26.543C378.674 26.5716 378.57 26.5859 378.469 26.5859C378.19 26.5859 377.993 26.4427 377.879 26.1562L377.696 25.6621L377.922 25.7158C377.7 25.988 377.47 26.2028 377.234 26.3604C377.005 26.5107 376.783 26.5859 376.568 26.5859ZM377.116 25.6191C377.216 25.6191 377.313 25.6012 377.406 25.5654C377.499 25.5225 377.585 25.4616 377.664 25.3828V24.3301L376.933 24.4697C376.754 24.4912 376.625 24.5449 376.547 24.6309C376.475 24.7168 376.439 24.8314 376.439 24.9746C376.439 25.1393 376.504 25.2897 376.633 25.4258C376.769 25.5547 376.93 25.6191 377.116 25.6191ZM380.124 26.5L380.092 26.0059L380.758 25.8232C380.765 25.7946 380.772 25.7301 380.779 25.6299C380.786 25.5225 380.793 25.3936 380.801 25.2432C380.808 25.0856 380.811 24.9209 380.811 24.749L380.822 23.9434C380.822 23.7285 380.815 23.5387 380.801 23.374C380.786 23.2021 380.761 23.0231 380.725 22.8369L380.038 22.6865V22.2031L381.896 21.7197L382.176 21.9023L382.133 22.751L382.165 22.7617C382.372 22.3607 382.58 22.0885 382.788 21.9453C383.003 21.8021 383.221 21.7305 383.443 21.7305C383.636 21.7305 383.805 21.7842 383.948 21.8916C384.098 21.999 384.174 22.1673 384.174 22.3965C384.174 22.6257 384.095 22.8047 383.937 22.9336C383.78 23.0625 383.597 23.127 383.389 23.127C383.217 23.127 383.064 23.0983 382.927 23.041C382.791 22.9766 382.641 22.8656 382.476 22.708L382.777 22.7402C382.67 22.819 382.566 22.9193 382.466 23.041C382.365 23.1628 382.279 23.3024 382.208 23.46L382.218 24.3086C382.226 24.5736 382.229 24.8135 382.229 25.0283C382.236 25.236 382.244 25.4115 382.251 25.5547C382.258 25.6908 382.265 25.7803 382.272 25.8232L383.207 25.9844L383.175 26.5H380.124ZM340.362 36.5L340.329 35.9629L340.888 35.791L343.069 30.5059L343.96 30.001L346.442 35.791L346.989 35.9629L346.957 36.5H344.1L344.057 35.9629L344.744 35.791L344.164 34.4053L344.046 34.04L342.972 31.4941L343.283 31.5801L342.392 34.0078L342.284 34.3301L341.78 35.791L342.467 35.9629L342.435 36.5H340.362ZM342.037 34.6738V33.9434C342.173 33.9505 342.331 33.9613 342.51 33.9756C342.696 33.9827 342.94 33.9863 343.24 33.9863C343.527 33.9863 343.763 33.9827 343.949 33.9756C344.143 33.9613 344.308 33.9505 344.444 33.9434V34.6631C344.308 34.6631 344.143 34.6595 343.949 34.6523C343.756 34.6452 343.52 34.6416 343.24 34.6416C342.947 34.6416 342.707 34.6452 342.521 34.6523C342.335 34.6595 342.173 34.6667 342.037 34.6738ZM347.129 36.5L347.097 36.0059L347.763 35.8232C347.77 35.7946 347.777 35.7301 347.784 35.6299C347.792 35.5225 347.799 35.3936 347.806 35.2432C347.813 35.0856 347.817 34.9209 347.817 34.749L347.827 33.9434C347.827 33.7285 347.82 33.5387 347.806 33.374C347.792 33.2021 347.766 33.0231 347.731 32.8369L347.043 32.6865V32.2031L348.902 31.7197L349.181 31.9023L349.138 32.751L349.17 32.7617C349.378 32.3607 349.586 32.0885 349.793 31.9453C350.008 31.8021 350.226 31.7305 350.448 31.7305C350.642 31.7305 350.81 31.7842 350.953 31.8916C351.104 31.999 351.179 32.1673 351.179 32.3965C351.179 32.6257 351.1 32.8047 350.943 32.9336C350.785 33.0625 350.602 33.127 350.395 33.127C350.223 33.127 350.069 33.0983 349.933 33.041C349.797 32.9766 349.646 32.8656 349.482 32.708L349.782 32.7402C349.675 32.819 349.571 32.9193 349.471 33.041C349.371 33.1628 349.285 33.3024 349.213 33.46L349.224 34.3086C349.231 34.5736 349.235 34.8135 349.235 35.0283C349.242 35.236 349.249 35.4115 349.256 35.5547C349.263 35.6908 349.27 35.7803 349.278 35.8232L350.212 35.9844L350.18 36.5H347.129ZM353.8 36.5859C353.335 36.5859 352.919 36.4821 352.554 36.2744C352.196 36.0667 351.913 35.7839 351.705 35.4258C351.505 35.0677 351.405 34.6631 351.405 34.2119C351.405 33.7106 351.519 33.2738 351.748 32.9014C351.977 32.5218 352.275 32.2246 352.64 32.0098C353.012 31.7949 353.41 31.6911 353.832 31.6982C354.462 31.6982 354.949 31.8952 355.293 32.2891C355.637 32.6758 355.809 33.1807 355.809 33.8037V34.0615H352.651V33.5029H354.756L354.595 33.7607V33.3955C354.595 33.0589 354.52 32.7904 354.369 32.5898C354.219 32.3893 354.011 32.2891 353.746 32.2891C353.567 32.2891 353.406 32.3392 353.263 32.4395C353.12 32.5397 353.005 32.6937 352.919 32.9014C352.84 33.1019 352.801 33.3561 352.801 33.6641V33.8896C352.801 34.391 352.933 34.7956 353.198 35.1035C353.471 35.4115 353.832 35.5654 354.283 35.5654C354.527 35.5654 354.749 35.5225 354.949 35.4365C355.15 35.3434 355.343 35.1895 355.53 34.9746L355.863 35.2754C355.662 35.7051 355.379 36.0309 355.014 36.2529C354.649 36.4749 354.244 36.5859 353.8 36.5859ZM358.161 36.5859C357.832 36.5859 357.545 36.5143 357.302 36.3711C357.066 36.2279 356.883 36.056 356.754 35.8555C356.632 35.6549 356.572 35.4652 356.572 35.2861C356.572 35.0283 356.65 34.8135 356.808 34.6416C356.973 34.4626 357.223 34.3229 357.56 34.2227L359.246 33.7285V33.3418C359.246 33.1914 359.196 33.0518 359.096 32.9229C359.003 32.7868 358.877 32.6758 358.72 32.5898C358.562 32.5039 358.394 32.4609 358.215 32.4609C358.1 32.4609 358.018 32.4896 357.968 32.5469C357.925 32.597 357.896 32.7008 357.882 32.8584L357.828 33.5137C357.47 33.5853 357.177 33.5745 356.947 33.4814C356.725 33.3812 356.614 33.2201 356.614 32.998C356.614 32.862 356.686 32.7223 356.829 32.5791C356.973 32.4359 357.148 32.3034 357.356 32.1816C357.571 32.0527 357.789 31.9453 358.011 31.8594C358.233 31.7663 358.426 31.7126 358.591 31.6982C359.228 31.6982 359.733 31.8451 360.106 32.1387C360.478 32.4251 360.668 32.8118 360.675 33.2988L360.643 34.792C360.643 34.9925 360.646 35.1501 360.654 35.2646C360.668 35.3792 360.689 35.4723 360.718 35.5439L361.427 35.6729V36.124L360.729 36.4248C360.6 36.4749 360.482 36.5143 360.374 36.543C360.267 36.5716 360.163 36.5859 360.063 36.5859C359.783 36.5859 359.586 36.4427 359.472 36.1562L359.289 35.6621L359.515 35.7158C359.293 35.988 359.064 36.2028 358.827 36.3604C358.598 36.5107 358.376 36.5859 358.161 36.5859ZM358.709 35.6191C358.809 35.6191 358.906 35.6012 358.999 35.5654C359.092 35.5225 359.178 35.4616 359.257 35.3828V34.3301L358.527 34.4697C358.348 34.4912 358.219 34.5449 358.14 34.6309C358.068 34.7168 358.032 34.8314 358.032 34.9746C358.032 35.1393 358.097 35.2897 358.226 35.4258C358.362 35.5547 358.523 35.6191 358.709 35.6191ZM363.608 36.5L363.575 35.9629L364.134 35.791L366.315 30.5059L367.206 30.001L369.688 35.791L370.236 35.9629L370.203 36.5H367.346L367.303 35.9629L367.99 35.791L367.41 34.4053L367.292 34.04L366.218 31.4941L366.53 31.5801L365.638 34.0078L365.53 34.3301L365.026 35.791L365.713 35.9629L365.681 36.5H363.608ZM365.283 34.6738V33.9434C365.419 33.9505 365.577 33.9613 365.756 33.9756C365.942 33.9827 366.186 33.9863 366.487 33.9863C366.773 33.9863 367.009 33.9827 367.196 33.9756C367.389 33.9613 367.554 33.9505 367.69 33.9434V34.6631C367.554 34.6631 367.389 34.6595 367.196 34.6523C367.002 34.6452 366.766 34.6416 366.487 34.6416C366.193 34.6416 365.953 34.6452 365.767 34.6523C365.581 34.6595 365.419 34.6667 365.283 34.6738Z" fill="white"/>
<path d="M29.4398 507.218L31.0064 507.218L32.908 511.556L32.745 511.556L34.6104 507.218L36.0774 507.218L36.1046 507.562L35.5431 507.68C35.5371 507.765 35.5341 507.924 35.5341 508.16C35.5401 508.389 35.5461 508.637 35.5522 508.902L35.5884 510.56C35.5944 510.861 35.6005 511.115 35.6065 511.32C35.6126 511.519 35.6186 511.679 35.6246 511.8C35.6307 511.921 35.6367 512.011 35.6427 512.072L36.1951 512.19L36.177 512.534L34.2573 512.534L34.2301 512.19L34.7825 512.072C34.7885 511.999 34.7915 511.915 34.7915 511.818C34.7915 511.722 34.7915 511.586 34.7915 511.411C34.7915 511.236 34.7885 510.997 34.7825 510.695L34.7644 507.481L34.9998 507.481L32.8084 512.561L32.4915 512.561L30.2457 507.472L30.4811 507.472L30.4902 510.551C30.4902 511.052 30.4902 511.417 30.4902 511.646C30.4962 511.87 30.5023 512.008 30.5083 512.063L31.1241 512.19L31.0969 512.534L29.3221 512.534L29.2949 512.19L29.9107 512.063C29.9167 512.021 29.9197 511.942 29.9197 511.827C29.9258 511.713 29.9318 511.562 29.9378 511.375C29.9439 511.181 29.9469 510.955 29.9469 510.695L29.974 508.902C29.9801 508.637 29.9801 508.395 29.974 508.178C29.974 507.955 29.974 507.792 29.974 507.689L29.4217 507.562L29.4398 507.218ZM38.4046 512.606C38.1632 512.606 37.9489 512.558 37.7617 512.461C37.5746 512.365 37.4267 512.241 37.318 512.09C37.2154 511.939 37.1641 511.782 37.1641 511.619C37.1641 511.414 37.2305 511.245 37.3633 511.112C37.4961 510.979 37.7134 510.864 38.0153 510.768L39.3917 510.306L39.3917 509.844C39.3917 509.693 39.3464 509.557 39.2559 509.437C39.1653 509.31 39.0446 509.21 38.8936 509.138C38.7427 509.065 38.5737 509.029 38.3865 509.029C38.2356 509.029 38.133 509.062 38.0786 509.129C38.0243 509.189 37.9911 509.313 37.979 509.5L37.9609 509.88C37.7436 509.929 37.5595 509.923 37.4085 509.862C37.2576 509.796 37.1822 509.69 37.1822 509.545C37.1822 509.443 37.2244 509.34 37.3089 509.238C37.3995 509.135 37.5172 509.038 37.6621 508.948C37.807 508.851 37.9639 508.77 38.133 508.703C38.302 508.637 38.468 508.592 38.631 508.567C39.0778 508.567 39.4339 508.685 39.6996 508.921C39.9712 509.156 40.1101 509.464 40.1161 509.844L40.098 511.366C40.098 511.48 40.101 511.592 40.1071 511.701C40.1191 511.809 40.1342 511.891 40.1523 511.945L40.7319 512.054L40.7319 512.334L40.2882 512.497C40.2037 512.528 40.1252 512.552 40.0527 512.57C39.9803 512.594 39.9199 512.606 39.8716 512.606C39.6845 512.606 39.5637 512.5 39.5094 512.289L39.4098 511.936L39.5456 511.936C39.3464 512.159 39.1532 512.328 38.9661 512.443C38.785 512.552 38.5978 512.606 38.4046 512.606ZM38.6491 512.072C38.788 512.072 38.9178 512.042 39.0385 511.981C39.1593 511.915 39.277 511.815 39.3917 511.682L39.3917 510.732L38.3775 511.003C38.2326 511.04 38.1269 511.097 38.0605 511.175C38.0002 511.254 37.97 511.353 37.97 511.474C37.97 511.625 38.0364 511.764 38.1692 511.891C38.3081 512.011 38.468 512.072 38.6491 512.072ZM42.6969 512.606C42.4735 512.606 42.2502 512.582 42.0268 512.534C41.8034 512.479 41.6133 512.41 41.4563 512.325L41.411 511.356L41.8548 511.356L42.0359 512.008C42.2472 512.153 42.4886 512.226 42.7603 512.226C42.9656 512.226 43.1316 512.178 43.2583 512.081C43.3851 511.978 43.4485 511.842 43.4485 511.673C43.4485 511.516 43.3912 511.381 43.2765 511.266C43.1618 511.145 42.9384 511.015 42.6064 510.877C42.1777 510.689 41.8759 510.511 41.7008 510.342C41.5257 510.167 41.4382 509.944 41.4382 509.672C41.4382 509.455 41.5016 509.265 41.6284 509.102C41.7612 508.933 41.9423 508.803 42.1717 508.712C42.4011 508.616 42.6667 508.567 42.9686 508.567C43.1376 508.567 43.3097 508.583 43.4847 508.613C43.6598 508.643 43.8047 508.682 43.9194 508.73L44.019 509.672L43.5934 509.672L43.3761 509.056C43.3157 509.02 43.2433 508.993 43.1587 508.975C43.0742 508.951 42.9837 508.939 42.8871 508.939C42.6758 508.939 42.5067 508.99 42.38 509.093C42.2532 509.189 42.1898 509.316 42.1898 509.473C42.1898 509.654 42.2592 509.802 42.3981 509.917C42.5369 510.025 42.7814 510.161 43.1316 510.324C43.53 510.505 43.8077 510.683 43.9647 510.858C44.1216 511.034 44.2001 511.245 44.2001 511.492C44.2001 511.818 44.0582 512.087 43.7745 512.298C43.4908 512.504 43.1316 512.606 42.6969 512.606ZM44.6801 514.625L44.508 514.318C44.828 514.137 45.0604 513.922 45.2053 513.675C45.3502 513.427 45.4226 513.098 45.4226 512.688L45.4317 510.315C45.4317 510.062 45.4226 509.85 45.4045 509.681C45.3864 509.512 45.3713 509.397 45.3592 509.337L44.7525 509.219L44.7525 508.921L46.0384 508.586L46.1742 508.712C46.1621 508.869 46.15 509.038 46.138 509.219C46.1319 509.394 46.1289 509.621 46.1289 509.899L46.138 512.552C46.138 512.769 46.1078 512.977 46.0474 513.177C45.9931 513.376 45.9056 513.563 45.7848 513.738C45.6641 513.913 45.5131 514.073 45.332 514.218C45.1509 514.369 44.9336 514.505 44.6801 514.625ZM45.7848 507.562C45.6339 507.562 45.5011 507.511 45.3864 507.408C45.2777 507.306 45.2234 507.179 45.2234 507.028C45.2234 506.877 45.2777 506.75 45.3864 506.648C45.5011 506.545 45.6339 506.494 45.7848 506.494C45.9418 506.494 46.0716 506.545 46.1742 506.648C46.2768 506.75 46.3281 506.877 46.3281 507.028C46.3281 507.179 46.2768 507.306 46.1742 507.408C46.0716 507.511 45.9418 507.562 45.7848 507.562ZM47.0978 512.534L47.0797 512.199L47.6865 512.072C47.6925 512.048 47.6955 512.005 47.6955 511.945C47.7015 511.885 47.7076 511.788 47.7136 511.655C47.7197 511.523 47.7227 511.338 47.7227 511.103L47.7227 510.505C47.7227 510.258 47.7166 510.031 47.7046 509.826C47.6925 509.621 47.6774 509.461 47.6593 509.346L47.0526 509.219L47.0526 508.921L48.3384 508.586L48.4743 508.712C48.4562 508.899 48.4411 509.084 48.429 509.265C48.423 509.446 48.4199 509.657 48.4199 509.899L48.4199 511.04C48.4199 511.317 48.423 511.547 48.429 511.728C48.4411 511.909 48.4531 512.024 48.4652 512.072L49.0719 512.199L49.0538 512.534L47.0978 512.534ZM48.0758 507.562C47.9249 507.562 47.7921 507.511 47.6774 507.408C47.5687 507.306 47.5144 507.179 47.5144 507.028C47.5144 506.877 47.5687 506.75 47.6774 506.648C47.7921 506.545 47.9249 506.494 48.0758 506.494C48.2328 506.494 48.3626 506.545 48.4652 506.648C48.5678 506.75 48.6192 506.877 48.6192 507.028C48.6192 507.179 48.5678 507.306 48.4652 507.408C48.3626 507.511 48.2328 507.562 48.0758 507.562ZM52.7484 512.633L52.6126 512.516L52.6217 511.927L52.5945 511.918C52.4134 512.171 52.2262 512.35 52.0331 512.452C51.8459 512.555 51.6467 512.606 51.4354 512.606C51.0913 512.606 50.7834 512.528 50.5117 512.371C50.2461 512.208 50.0348 511.984 49.8779 511.701C49.7209 511.417 49.6424 511.091 49.6424 510.723C49.6424 510.403 49.6968 510.11 49.8054 509.844C49.9141 509.579 50.062 509.352 50.2491 509.165C50.4423 508.972 50.6596 508.824 50.9011 508.721C51.1426 508.619 51.3931 508.567 51.6527 508.567C51.8218 508.567 51.9938 508.589 52.1689 508.631C52.344 508.673 52.4919 508.739 52.6126 508.83C52.6126 508.721 52.6096 508.579 52.6035 508.404C52.6035 508.229 52.6005 508.048 52.5945 507.861C52.5945 507.668 52.5915 507.499 52.5854 507.354C52.5854 507.203 52.5824 507.1 52.5764 507.046L51.8701 506.919L51.8519 506.621L53.1831 506.249L53.3461 506.376C53.334 506.75 53.325 507.113 53.3189 507.463C53.3129 507.813 53.3099 508.178 53.3099 508.558L53.3008 510.641C53.3008 510.949 53.3068 511.215 53.3189 511.438C53.337 511.655 53.3491 511.809 53.3551 511.9L53.9347 512.045L53.9347 512.344L52.7484 512.633ZM51.6618 511.999C51.8369 511.999 51.9999 511.963 52.1508 511.891C52.3017 511.812 52.4556 511.676 52.6126 511.483L52.6126 509.536C52.4979 509.331 52.353 509.186 52.1779 509.102C52.0029 509.017 51.8278 508.975 51.6527 508.975C51.2724 508.975 50.9736 509.117 50.7562 509.401C50.5449 509.678 50.4393 510.04 50.4393 510.487C50.4393 510.964 50.557 511.335 50.7925 511.601C51.0339 511.867 51.3237 511.999 51.6618 511.999Z" fill="black"/>
<g clip-path="url(#clip0_277_1269)">
<path d="M350.828 385.087H346.635C346.079 385.087 345.546 384.812 345.153 384.321C344.76 383.83 344.539 383.164 344.539 382.47V366.768C344.539 366.074 344.76 365.408 345.153 364.918C345.546 364.427 346.079 364.151 346.635 364.151H350.828V366.768H346.635V382.47H350.828V385.087Z" fill="white"/>
<path d="M356.4 381.009L357.888 379.533L353.779 375.39H363.363C363.641 375.39 363.908 375.28 364.105 375.083C364.301 374.887 364.412 374.62 364.412 374.342C364.412 374.064 364.301 373.798 364.105 373.601C363.908 373.404 363.641 373.294 363.363 373.294H353.761L357.932 369.157L356.456 367.669L349.758 374.311L356.4 381.009Z" fill="white"/>
</g>
<g clip-path="url(#clip1_277_1269)">
<path d="M359.017 99.1158L364.492 93.6405M364.492 93.6405L359.017 88.1653M364.492 93.6405L351.352 93.6405M351.352 103.496L346.971 103.496C346.391 103.496 345.833 103.265 345.423 102.854C345.012 102.444 344.781 101.887 344.781 101.306L344.781 85.9752C344.781 85.3943 345.012 84.8373 345.423 84.4265C345.833 84.0158 346.39 83.7851 346.971 83.7851L351.352 83.7851" stroke="white" stroke-width="2.64936" stroke-linecap="round" stroke-linejoin="round"/>
</g>
<path d="M355.5 122.5V342M355.5 465.5V539.5H0.5V0.5H355.5" stroke="white"/>
<defs>
<filter id="filter0_d_277_1269" x="72.1388" y="46.3182" width="80.8084" height="300.702" filterUnits="userSpaceOnUse" color-interpolation-filters="sRGB">
<feFlood flood-opacity="0" result="BackgroundImageFix"/>
<feColorMatrix in="SourceAlpha" type="matrix" values="0 0 0 0 0 0 0 0 0 0 0 0 0 0 0 0 0 0 127 0" result="hardAlpha"/>
<feOffset dy="5.29872"/>
<feGaussianBlur stdDeviation="2.64936"/>
<feComposite in2="hardAlpha" operator="out"/>
<feColorMatrix type="matrix" values="0 0 0 0 0 0 0 0 0 0 0 0 0 0 0 0 0 0 0.25 0"/>
<feBlend mode="normal" in2="BackgroundImageFix" result="effect1_dropShadow_277_1269"/>
<feBlend mode="normal" in="SourceGraphic" in2="effect1_dropShadow_277_1269" result="shape"/>
</filter>
<filter id="filter1_d_277_1269" x="146.318" y="18.5" width="172.871" height="79.4807" filterUnits="userSpaceOnUse" color-interpolation-filters="sRGB">
<feFlood flood-opacity="0" result="BackgroundImageFix"/>
<feColorMatrix in="SourceAlpha" type="matrix" values="0 0 0 0 0 0 0 0 0 0 0 0 0 0 0 0 0 0 127 0" result="hardAlpha"/>
<feOffset dy="5.29872"/>
<feGaussianBlur stdDeviation="2.64936"/>
<feComposite in2="hardAlpha" operator="out"/>
<feColorMatrix type="matrix" values="0 0 0 0 0 0 0 0 0 0 0 0 0 0 0 0 0 0 0.25 0"/>
<feBlend mode="normal" in2="BackgroundImageFix" result="effect1_dropShadow_277_1269"/>
<feBlend mode="normal" in="SourceGraphic" in2="effect1_dropShadow_277_1269" result="shape"/>
</filter>
<filter id="filter2_d_277_1269" x="89.9982" y="405.282" width="196.004" height="87.4533" filterUnits="userSpaceOnUse" color-interpolation-filters="sRGB">
<feFlood flood-opacity="0" result="BackgroundImageFix"/>
<feColorMatrix in="SourceAlpha" type="matrix" values="0 0 0 0 0 0 0 0 0 0 0 0 0 0 0 0 0 0 127 0" result="hardAlpha"/>
<feOffset dy="5.29872"/>
<feGaussianBlur stdDeviation="2.64936"/>
<feComposite in2="hardAlpha" operator="out"/>
<feColorMatrix type="matrix" values="0 0 0 0 0 0 0 0 0 0 0 0 0 0 0 0 0 0 0.25 0"/>
<feBlend mode="normal" in2="BackgroundImageFix" result="effect1_dropShadow_277_1269"/>
<feBlend mode="normal" in="SourceGraphic" in2="effect1_dropShadow_277_1269" result="shape"/>
</filter>
<filter id="filter3_d_277_1269" x="138.373" y="276.812" width="157.66" height="79.4807" filterUnits="userSpaceOnUse" color-interpolation-filters="sRGB">
<feFlood flood-opacity="0" result="BackgroundImageFix"/>
<feColorMatrix in="SourceAlpha" type="matrix" values="0 0 0 0 0 0 0 0 0 0 0 0 0 0 0 0 0 0 127 0" result="hardAlpha"/>
<feOffset dy="5.29872"/>
<feGaussianBlur stdDeviation="2.64936"/>
<feComposite in2="hardAlpha" operator="out"/>
<feColorMatrix type="matrix" values="0 0 0 0 0 0 0 0 0 0 0 0 0 0 0 0 0 0 0.25 0"/>
<feBlend mode="normal" in2="BackgroundImageFix" result="effect1_dropShadow_277_1269"/>
<feBlend mode="normal" in="SourceGraphic" in2="effect1_dropShadow_277_1269" result="shape"/>
</filter>
<filter id="filter4_d_277_1269" x="336.964" y="400.5" width="41.4478" height="41.4503" filterUnits="userSpaceOnUse" color-interpolation-filters="sRGB">
<feFlood flood-opacity="0" result="BackgroundImageFix"/>
<feColorMatrix in="SourceAlpha" type="matrix" values="0 0 0 0 0 0 0 0 0 0 0 0 0 0 0 0 0 0 127 0" result="hardAlpha"/>
<feOffset dy="7.53642"/>
<feGaussianBlur stdDeviation="3.76821"/>
<feComposite in2="hardAlpha" operator="out"/>
<feColorMatrix type="matrix" values="0 0 0 0 0 0 0 0 0 0 0 0 0 0 0 0 0 0 0.25 0"/>
<feBlend mode="normal" in2="BackgroundImageFix" result="effect1_dropShadow_277_1269"/>
<feBlend mode="normal" in="SourceGraphic" in2="effect1_dropShadow_277_1269" result="shape"/>
</filter>
<filter id="filter5_d_277_1269" x="12.5294" y="469.553" width="56.3006" height="64.2469" filterUnits="userSpaceOnUse" color-interpolation-filters="sRGB">
<feFlood flood-opacity="0" result="BackgroundImageFix"/>
<feColorMatrix in="SourceAlpha" type="matrix" values="0 0 0 0 0 0 0 0 0 0 0 0 0 0 0 0 0 0 127 0" result="hardAlpha"/>
<feOffset dy="5.29872"/>
<feGaussianBlur stdDeviation="2.64936"/>
<feComposite in2="hardAlpha" operator="out"/>
<feColorMatrix type="matrix" values="0 0 0 0 0 0 0 0 0 0 0 0 0 0 0 0 0 0 0.25 0"/>
<feBlend mode="normal" in2="BackgroundImageFix" result="effect1_dropShadow_277_1269"/>
<feBlend mode="normal" in="SourceGraphic" in2="effect1_dropShadow_277_1269" result="shape"/>
</filter>
<filter id="filter6_d_277_1269" x="11.2013" y="44.9935" width="32.4568" height="347.728" filterUnits="userSpaceOnUse" color-interpolation-filters="sRGB">
<feFlood flood-opacity="0" result="BackgroundImageFix"/>
<feColorMatrix in="SourceAlpha" type="matrix" values="0 0 0 0 0 0 0 0 0 0 0 0 0 0 0 0 0 0 127 0" result="hardAlpha"/>
<feOffset dy="5.29872"/>
<feGaussianBlur stdDeviation="2.64936"/>
<feComposite in2="hardAlpha" operator="out"/>
<feColorMatrix type="matrix" values="0 0 0 0 0 0 0 0 0 0 0 0 0 0 0 0 0 0 0.25 0"/>
<feBlend mode="normal" in2="BackgroundImageFix" result="effect1_dropShadow_277_1269"/>
<feBlend mode="normal" in="SourceGraphic" in2="effect1_dropShadow_277_1269" result="shape"/>
</filter>
<filter id="filter7_d_277_1269" x="333.964" y="40.5" width="42.276" height="42.2714" filterUnits="userSpaceOnUse" color-interpolation-filters="sRGB">
<feFlood flood-opacity="0" result="BackgroundImageFix"/>
<feColorMatrix in="SourceAlpha" type="matrix" values="0 0 0 0 0 0 0 0 0 0 0 0 0 0 0 0 0 0 127 0" result="hardAlpha"/>
<feOffset dy="7.53642"/>
<feGaussianBlur stdDeviation="3.76821"/>
<feComposite in2="hardAlpha" operator="out"/>
<feColorMatrix type="matrix" values="0 0 0 0 0 0 0 0 0 0 0 0 0 0 0 0 0 0 0.25 0"/>
<feBlend mode="normal" in2="BackgroundImageFix" result="effect1_dropShadow_277_1269"/>
<feBlend mode="normal" in="SourceGraphic" in2="effect1_dropShadow_277_1269" result="shape"/>
</filter>
<clipPath id="clip0_277_1269">
<rect width="25.1549" height="25.1549" fill="white" transform="translate(341.906 364.125)"/>
</clipPath>
<clipPath id="clip1_277_1269">
<rect width="26.2812" height="26.2812" fill="white" transform="translate(341.5 80.5)"/>
</clipPath>
</defs>
</svg>
