<svg width="431" height="560" viewBox="0 0 431 560" fill="none" xmlns="http://www.w3.org/2000/svg">
<g filter="url(#filter0_d_277_1274)">
<path d="M184.882 367.429L183.469 167.337L346.937 170.598L348.349 370.689L184.882 367.429Z" fill="#D9D9D9"/>
<path d="M174.524 418.458L101.634 417.005L102.237 502.41L175.127 503.863L174.524 418.458Z" fill="#D9D9D9"/>
<path d="M294.579 420.853L241.519 419.794L242.122 505.199L295.182 506.258L294.579 420.853Z" fill="#D9D9D9"/>
<path d="M370.548 402.849L321.775 401.877L322.647 525.348L371.419 526.321L370.548 402.849Z" fill="#D9D9D9"/>
</g>
<path d="M36.6498 393.593L36.6214 393.259L37.1303 393.146C37.136 393.123 37.1415 393.073 37.1469 392.997C37.1522 392.915 37.1544 392.786 37.1533 392.61C37.158 392.435 37.1595 392.198 37.1576 391.899L37.1553 390.115C37.1535 389.822 37.1491 389.593 37.1422 389.429C37.1353 389.259 37.1287 389.136 37.1224 389.06C37.1219 388.977 37.1186 388.928 37.1127 388.91L36.567 388.767L36.5913 388.433L38.463 388.472C39.0429 388.484 39.4948 388.622 39.8186 388.887C40.1424 389.145 40.3058 389.515 40.3088 389.995C40.3108 390.323 40.2276 390.606 40.0592 390.843C39.8967 391.079 39.6753 391.262 39.3949 391.391C39.1145 391.514 38.8015 391.572 38.4559 391.565C38.327 391.563 38.204 391.554 38.0867 391.54C37.9753 391.52 37.8697 391.5 37.7701 391.481L37.7671 391.006C37.9021 391.05 38.0194 391.082 38.1191 391.101C38.2247 391.121 38.3273 391.132 38.4268 391.134C38.7725 391.141 39.0414 391.062 39.2337 390.896C39.4259 390.724 39.5209 390.456 39.5186 390.093C39.516 389.677 39.4058 389.37 39.1878 389.172C38.9698 388.969 38.6968 388.864 38.3687 388.857L37.903 388.847C37.9032 388.882 37.9008 388.964 37.8958 389.093C37.8966 389.222 37.8946 389.377 37.8899 389.559C37.891 389.734 37.8922 389.925 37.8934 390.13L37.9133 391.914C37.9152 392.213 37.9196 392.45 37.9266 392.626C37.9335 392.796 37.9401 392.922 37.9465 393.005C37.9528 393.081 37.9561 393.131 37.9562 393.154L38.6862 393.284L38.6621 393.635L36.6498 393.593ZM40.938 393.682L40.9184 393.356L41.5063 393.245C41.512 393.222 41.5147 393.181 41.5144 393.122C41.5198 393.064 41.5251 392.97 41.5302 392.841C41.5352 392.713 41.537 392.534 41.5356 392.305L41.532 391.725C41.5305 391.485 41.5233 391.265 41.5103 391.066C41.4974 390.866 41.4818 390.711 41.4635 390.599L40.874 390.464L40.8722 390.174L42.1179 389.874L42.2505 390C42.2341 390.181 42.2205 390.36 42.2099 390.535C42.2051 390.711 42.2035 390.916 42.205 391.15L42.2119 392.258C42.2135 392.527 42.2178 392.75 42.2248 392.926C42.2376 393.102 42.25 393.214 42.262 393.261L42.8515 393.396L42.836 393.721L40.938 393.682ZM41.8569 388.876C41.7105 388.873 41.5813 388.821 41.4694 388.719C41.3633 388.617 41.3098 388.493 41.3089 388.346C41.308 388.2 41.3599 388.078 41.4648 387.98C41.5754 387.883 41.704 387.836 41.8505 387.839C42.0028 387.842 42.129 387.894 42.2292 387.996C42.3294 388.098 42.38 388.222 42.3809 388.368C42.3818 388.515 42.3328 388.637 42.2338 388.734C42.1349 388.832 42.0092 388.879 41.8569 388.876ZM43.3281 393.731L43.3085 393.414L43.8525 393.293C43.8581 393.253 43.8607 393.197 43.8603 393.127C43.8657 393.056 43.8709 392.96 43.876 392.837C43.8811 392.714 43.883 392.553 43.8818 392.354L43.8864 391.677C43.8852 391.484 43.8752 391.293 43.8565 391.105C43.8435 390.912 43.8279 390.759 43.8097 390.647L43.2465 390.513L43.2447 390.223L44.4202 389.922L44.5704 390.066L44.5294 390.531L44.5558 390.54C44.7595 390.321 44.9606 390.164 45.1591 390.069C45.3577 389.973 45.5741 389.928 45.8084 389.933C46.0252 389.937 46.2276 389.997 46.4158 390.112C46.6098 390.222 46.766 390.389 46.8846 390.614C47.009 390.839 47.0723 391.125 47.0744 391.471L47.0805 392.446C47.0818 392.657 47.0859 392.848 47.0929 393.018C47.1056 393.188 47.121 393.302 47.1389 393.361L47.6845 393.504L47.6602 393.82L45.8939 393.784L45.8744 393.467L46.3832 393.346C46.3888 393.299 46.3943 393.24 46.3997 393.17C46.4051 393.1 46.4075 393.012 46.4068 392.907C46.412 392.796 46.4141 392.658 46.4131 392.494L46.4071 391.545C46.4055 391.281 46.3573 391.072 46.2627 390.918C46.1738 390.758 46.0618 390.644 45.9267 390.577C45.7915 390.504 45.6536 390.466 45.513 390.463C45.3197 390.459 45.1384 390.505 44.9691 390.601C44.8057 390.691 44.6659 390.82 44.5498 390.988L44.558 392.306C44.5597 392.576 44.564 392.796 44.5709 392.966C44.5837 393.13 44.5961 393.244 44.6082 393.309L45.1538 393.452L45.1294 393.768L43.3281 393.731ZM50.9168 393.343C50.8067 393.534 50.6554 393.683 50.4627 393.79C50.2701 393.892 50.0683 393.94 49.8574 393.936C49.5 393.928 49.2065 393.814 48.9767 393.593C48.7468 393.371 48.6306 393.043 48.6279 392.61L48.6411 390.51L48.026 390.497L48.0249 390.313L49.152 389.308L49.319 389.311L49.3077 390.322L49.3124 392.483C49.3143 392.788 49.3801 393.015 49.5099 393.164C49.6456 393.313 49.8335 393.391 50.0737 393.395C50.2084 393.398 50.3313 393.374 50.4422 393.324C50.5591 393.274 50.6641 393.206 50.7573 393.12L50.9168 393.343ZM48.9926 390.517L48.9899 390.078L50.6331 390.112L50.6358 390.551L48.9926 390.517ZM54.8618 393.354L55.4163 393.506L55.4181 393.796L54.2775 394.053L54.145 393.936L54.1503 393.383L54.1239 393.374C53.9555 393.61 53.7808 393.777 53.5999 393.872C53.4247 393.963 53.2346 394.006 53.0296 394.001C52.6371 393.993 52.3083 393.866 52.0432 393.621C51.778 393.369 51.6439 393 51.6409 392.514L51.6362 391.758C51.6352 391.594 51.6283 391.436 51.6157 391.283C51.6088 391.125 51.599 390.966 51.5863 390.808L50.988 390.673L50.9862 390.383L52.1793 390.082L52.3383 390.226C52.3277 390.407 52.3201 390.6 52.3156 390.805C52.311 391.01 52.3094 391.224 52.3108 391.447L52.308 392.413C52.3103 392.777 52.3968 393.039 52.5677 393.201C52.7385 393.357 52.9558 393.437 53.2194 393.443C53.3776 393.446 53.5384 393.408 53.7019 393.33C53.8654 393.251 54.0081 393.113 54.1299 392.917L54.1235 391.897C54.1227 391.768 54.119 391.642 54.1124 391.519C54.1116 391.39 54.1079 391.27 54.1013 391.159C54.0947 391.041 54.0853 390.942 54.0731 390.859L53.4309 390.723L53.4291 390.433L54.666 390.133L54.7986 390.259C54.7938 390.423 54.7888 390.569 54.7838 390.698C54.7846 390.827 54.7854 390.956 54.7862 391.085C54.787 391.208 54.7878 391.349 54.7888 391.507L54.7927 392.131C54.7947 392.453 54.8022 392.714 54.8152 392.913C54.8339 393.107 54.8495 393.254 54.8618 393.354ZM57.6073 394.025L57.5877 393.709L58.1317 393.588C58.1373 393.547 58.1399 393.495 58.1395 393.43C58.145 393.366 58.1502 393.272 58.1553 393.149C58.1604 393.026 58.1623 392.859 58.161 392.648L58.1655 391.963C58.1706 391.84 58.1669 391.714 58.1544 391.585C58.1477 391.456 58.1382 391.336 58.1258 391.224C58.1133 391.107 58.101 391.013 58.0889 390.942L57.5257 390.807L57.5239 390.517L58.6994 390.217L58.8496 390.36L58.8086 390.834L58.8351 390.843C59.0152 390.618 59.2017 390.458 59.3944 390.363C59.5929 390.267 59.7947 390.222 59.9998 390.226C60.2048 390.23 60.4043 390.29 60.5983 390.405C60.7923 390.52 60.9516 390.694 61.076 390.925C61.2063 391.156 61.2726 391.45 61.2748 391.808L61.2894 392.739C61.2907 392.95 61.2948 393.141 61.3017 393.311C61.3145 393.475 61.3298 393.59 61.3478 393.654L61.8759 393.797L61.8515 394.113L60.138 394.078L60.1096 393.761L60.5921 393.639C60.5977 393.592 60.6032 393.534 60.6086 393.463C60.614 393.393 60.6164 393.305 60.6157 393.2C60.6209 393.089 60.623 392.951 60.622 392.787L60.6071 391.82C60.6056 391.568 60.5633 391.365 60.4803 391.211C60.4032 391.057 60.3 390.944 60.1707 390.871C60.0414 390.798 59.9035 390.76 59.7571 390.757C59.5755 390.753 59.4058 390.794 59.2482 390.878C59.0906 390.963 58.9509 391.098 58.829 391.283L58.8372 392.601C58.8389 392.87 58.8432 393.09 58.8501 393.26C58.8629 393.424 58.8753 393.539 58.8874 393.604L59.4067 393.746L59.3823 394.062L57.6073 394.025ZM62.5632 394.128L62.5349 393.811L63.035 393.689C63.0405 393.643 63.0431 393.584 63.0426 393.514C63.0481 393.443 63.0534 393.356 63.0586 393.25C63.0637 393.139 63.0658 393.002 63.0648 392.837L63.0588 391.879C63.0572 391.622 63.012 391.416 62.9232 391.262C62.8344 391.107 62.7224 390.994 62.5872 390.921C62.4579 390.848 62.3258 390.81 62.1911 390.807C61.9919 390.803 61.8077 390.849 61.6384 390.945C61.4692 391.041 61.3178 391.19 61.1844 391.393L61.0154 391.064C61.2187 390.787 61.4341 390.586 61.6618 390.462C61.8953 390.332 62.1409 390.27 62.3987 390.275C62.6447 390.28 62.8677 390.344 63.0676 390.465C63.2675 390.586 63.4267 390.759 63.5453 390.984C63.6638 391.209 63.7241 391.48 63.726 391.797L63.7322 392.79C63.7335 393.001 63.7377 393.191 63.7446 393.361C63.7573 393.525 63.7697 393.64 63.7819 393.705L64.3275 393.848L64.3119 394.164L62.5632 394.128ZM66.2807 394.275C66.0463 394.27 65.8381 394.219 65.6559 394.121C65.4737 394.024 65.3294 393.901 65.2231 393.752C65.1226 393.603 65.0718 393.45 65.0708 393.292C65.0696 393.093 65.133 392.93 65.2611 392.804C65.3892 392.677 65.5994 392.57 65.8917 392.483L67.2246 392.062L67.2218 391.614C67.2209 391.467 67.1761 391.335 67.0875 391.216C66.9989 391.091 66.8811 390.992 66.7342 390.918C66.5873 390.845 66.4231 390.806 66.2415 390.803C66.095 390.8 65.9956 390.83 65.9433 390.893C65.8909 390.951 65.8595 391.07 65.8489 391.252L65.8336 391.62C65.623 391.663 65.4443 391.653 65.2975 391.592C65.1506 391.524 65.0768 391.42 65.0759 391.28C65.0753 391.18 65.1156 391.081 65.197 390.983C65.2843 390.886 65.3979 390.794 65.538 390.709C65.678 390.618 65.8298 390.542 65.9934 390.481C66.1571 390.42 66.3179 390.38 66.4759 390.359C66.9094 390.368 67.2558 390.49 67.5149 390.724C67.78 390.958 67.9166 391.259 67.9247 391.628L67.9164 393.105C67.9171 393.216 67.9207 393.324 67.9272 393.43C67.9395 393.536 67.9547 393.615 67.9726 393.668L68.5356 393.785L68.5373 394.058L68.1077 394.207C68.0259 394.235 67.9499 394.256 67.8797 394.273C67.8096 394.295 67.751 394.305 67.7042 394.304C67.5226 394.3 67.4048 394.195 67.3508 393.989L67.252 393.644L67.3838 393.647C67.1918 393.86 67.0054 394.02 66.8245 394.128C66.6494 394.23 66.4681 394.279 66.2807 394.275ZM66.5147 393.761C66.6494 393.764 66.7752 393.737 66.892 393.681C67.0087 393.619 67.1224 393.525 67.2329 393.398L67.2271 392.475L66.2446 392.719C66.1042 392.751 66.0021 392.804 65.9381 392.879C65.88 392.954 65.8513 393.05 65.852 393.167C65.8529 393.314 65.9182 393.45 66.0479 393.576C66.1833 393.696 66.3389 393.757 66.5147 393.761ZM70.4458 394.361C70.229 394.356 70.0121 394.328 69.7951 394.277C69.578 394.22 69.3931 394.149 69.2402 394.063L69.1904 393.122L69.621 393.131L69.8007 393.767C70.0066 393.912 70.2414 393.987 70.505 393.993C70.7042 393.997 70.865 393.953 70.9874 393.862C71.1098 393.765 71.1705 393.634 71.1695 393.47C71.1685 393.318 71.1121 393.185 71.0001 393.071C70.888 392.952 70.6705 392.822 70.3475 392.68C69.9304 392.49 69.6364 392.311 69.4655 392.143C69.2946 391.97 69.2083 391.752 69.2066 391.488C69.2053 391.277 69.2657 391.094 69.3877 390.938C69.5156 390.777 69.6905 390.654 69.9126 390.571C70.1346 390.482 70.3921 390.44 70.685 390.446C70.849 390.45 71.0161 390.468 71.1861 390.501C71.3562 390.533 71.497 390.574 71.6086 390.623L71.711 391.54L71.298 391.531L71.0834 390.929C71.0246 390.893 70.9541 390.865 70.872 390.846C70.7898 390.82 70.7019 390.807 70.6081 390.805C70.4031 390.801 70.2394 390.847 70.117 390.944C69.9946 391.035 69.9338 391.157 69.9348 391.31C69.9359 391.485 70.0041 391.63 70.1395 391.744C70.2749 391.853 70.513 391.989 70.8538 392.155C71.2415 392.338 71.5121 392.517 71.6654 392.69C71.8188 392.863 71.8962 393.069 71.8977 393.31C71.8997 393.626 71.7637 393.884 71.4896 394.083C71.2155 394.277 70.8676 394.369 70.4458 394.361ZM76.2498 393.795L76.8043 393.947L76.8061 394.237L75.6655 394.495L75.533 394.378L75.5384 393.824L75.5119 393.815C75.3436 394.052 75.1689 394.218 74.9879 394.314C74.8127 394.404 74.6226 394.447 74.4176 394.443C74.0251 394.434 73.6963 394.308 73.4312 394.062C73.166 393.81 73.0319 393.441 73.0289 392.955L73.0242 392.199C73.0232 392.035 73.0163 391.877 73.0037 391.724C72.9968 391.566 72.9871 391.408 72.9744 391.249L72.3761 391.114L72.3743 390.824L73.5673 390.523L73.7263 390.667C73.7158 390.849 73.7082 391.042 73.7036 391.247C73.699 391.452 73.6974 391.665 73.6988 391.888L73.696 392.855C73.6983 393.218 73.7849 393.48 73.9557 393.642C74.1266 393.798 74.3438 393.879 74.6074 393.884C74.7656 393.887 74.9264 393.85 75.0899 393.771C75.2535 393.692 75.3961 393.555 75.5179 393.358L75.5115 392.339C75.5107 392.21 75.507 392.084 75.5004 391.96C75.4996 391.832 75.4959 391.711 75.4894 391.6C75.4828 391.483 75.4734 391.383 75.4611 391.301L74.8189 391.164L74.8171 390.874L76.0541 390.575L76.1866 390.7C76.1818 390.864 76.1769 391.011 76.1718 391.139C76.1726 391.268 76.1734 391.397 76.1742 391.526C76.175 391.649 76.1759 391.79 76.1768 391.948L76.1807 392.572C76.1827 392.894 76.1902 393.155 76.2032 393.355C76.222 393.548 76.2375 393.695 76.2498 393.795ZM77.3433 394.433L77.3237 394.116L77.8238 393.994C77.8293 393.936 77.8346 393.842 77.8396 393.714C77.8446 393.579 77.8495 393.412 77.8541 393.213C77.8587 393.008 77.8602 392.78 77.8586 392.528L77.8507 391.253C77.8493 391.031 77.8449 390.805 77.8376 390.576C77.8362 390.342 77.8319 390.119 77.8247 389.908C77.8234 389.697 77.8193 389.518 77.8126 389.372C77.8058 389.225 77.8023 389.126 77.8019 389.073L77.1511 388.971L77.1318 388.69L78.3685 388.355L78.5451 388.482C78.5404 388.681 78.5358 388.877 78.5312 389.07C78.5265 389.258 78.5218 389.454 78.5172 389.659C78.5126 389.858 78.511 390.072 78.5125 390.3C78.5138 390.523 78.5154 390.766 78.517 391.03L78.5216 393.183C78.5226 393.335 78.5263 393.47 78.5329 393.587C78.5395 393.699 78.5459 393.79 78.5522 393.86C78.5585 393.93 78.5617 393.98 78.5619 394.01L79.1075 394.153L79.0919 394.469L77.3433 394.433ZM81.28 394.514L80.2782 394.493C80.1719 394.35 80.0892 394.243 80.0302 394.172C79.9712 394.1 79.9093 394.032 79.8444 393.966L78.6324 392.631L78.3864 392.626L78.3938 392.416L78.7272 392.326L79.941 391.138L79.3604 391.021L79.376 390.696L81.1422 390.732L81.1618 391.058L80.5825 391.151L79.0184 392.534L79.1482 392.22L80.3955 393.582C80.4722 393.659 80.5577 393.749 80.652 393.851C80.7522 393.952 80.8377 394.036 80.9084 394.102L81.3043 394.189L81.28 394.514ZM47.4006 400.814L47.3809 400.479L47.8108 400.365L49.5926 395.85L50.1003 395.553L52.0462 400.453L52.4863 400.585L52.462 400.918L50.687 400.882L50.6674 400.547L51.2026 400.435L50.6761 399.124L50.5777 398.849L49.605 396.439L49.8064 396.329L48.9081 398.815L48.8131 399.077L48.3556 400.377L48.8923 400.511L48.8769 400.844L47.4006 400.814ZM48.6207 399.213L48.6178 398.747C48.7291 398.756 48.8815 398.765 49.0748 398.774C49.2682 398.784 49.5055 398.792 49.7866 398.798C50.062 398.804 50.2963 398.806 50.4896 398.804C50.6887 398.802 50.841 398.799 50.9464 398.795L50.9493 399.261C50.7501 399.251 50.5509 399.244 50.3517 399.24C50.1583 399.23 49.9709 399.224 49.7893 399.22C49.6135 399.216 49.429 399.215 49.2357 399.217C49.0483 399.213 48.8433 399.212 48.6207 399.213ZM52.7784 400.925L52.75 400.608L53.294 400.487C53.2997 400.458 53.3052 400.405 53.3106 400.329C53.316 400.253 53.3183 400.151 53.3175 400.022C53.3225 399.893 53.3245 399.735 53.3233 399.548L53.3278 398.862C53.3266 398.669 53.3166 398.478 53.2979 398.29C53.285 398.103 53.2694 397.953 53.2512 397.841L52.688 397.707L52.6862 397.417L53.8617 397.116L53.9855 397.241L53.9549 397.979L53.9813 397.988C54.155 397.652 54.3322 397.427 54.5131 397.314C54.6939 397.194 54.8634 397.136 55.0216 397.14C55.1563 397.142 55.2679 397.18 55.3562 397.252C55.4503 397.318 55.4978 397.419 55.4986 397.554C55.4995 397.694 55.4504 397.802 55.3513 397.876C55.258 397.944 55.1381 397.977 54.9916 397.974C54.8862 397.972 54.7835 397.946 54.6837 397.897C54.5896 397.848 54.4984 397.782 54.41 397.698L54.5685 397.754C54.4577 397.822 54.3529 397.92 54.2541 398.046C54.1552 398.167 54.0654 398.321 53.9846 398.507L53.9984 399.324C54.0052 399.471 54.012 399.623 54.0189 399.782C54.0257 399.94 54.0325 400.084 54.0391 400.213C54.0457 400.336 54.0522 400.433 54.0585 400.503L54.8237 400.633L54.8082 400.967L52.7784 400.925ZM57.6733 401.096C57.3335 401.089 57.0255 401.007 56.7492 400.849C56.4788 400.691 56.2607 400.469 56.0949 400.185C55.9349 399.894 55.8537 399.556 55.8513 399.169C55.8487 398.753 55.9314 398.395 56.0994 398.093C56.2674 397.792 56.4886 397.562 56.7629 397.404C57.0372 397.24 57.3325 397.164 57.6489 397.176C58.1058 397.192 58.4641 397.351 58.7237 397.655C58.9834 397.96 59.1149 398.384 59.1183 398.929L59.1192 399.087L56.4216 399.031L56.4192 398.645L58.5369 398.688L58.4409 398.801L58.4398 398.616C58.4377 398.276 58.3599 398.014 58.2064 397.829C58.053 397.644 57.8445 397.549 57.5809 397.544C57.4168 397.541 57.259 397.587 57.1073 397.684C56.9555 397.774 56.8334 397.918 56.741 398.115C56.6484 398.307 56.6031 398.552 56.605 398.851L56.6056 398.956C56.6086 399.437 56.7281 399.814 56.9641 400.088C57.206 400.363 57.5144 400.504 57.8893 400.512C58.0943 400.516 58.2786 400.479 58.4421 400.4C58.6056 400.321 58.763 400.193 58.9142 400.014L59.1351 400.221C58.973 400.522 58.7664 400.747 58.5155 400.894C58.2645 401.035 57.9837 401.102 57.6733 401.096ZM61.1706 401.168C60.9362 401.163 60.728 401.112 60.5458 401.015C60.3636 400.917 60.2193 400.794 60.113 400.646C60.0125 400.497 59.9617 400.344 59.9608 400.185C59.9595 399.986 60.0229 399.823 60.151 399.697C60.2791 399.571 60.4893 399.464 60.7816 399.376L62.1145 398.956L62.1117 398.507C62.1108 398.361 62.066 398.228 61.9774 398.109C61.8888 397.984 61.771 397.885 61.6241 397.812C61.4772 397.739 61.313 397.7 61.1314 397.696C60.9849 397.693 60.8855 397.723 60.8332 397.787C60.7809 397.844 60.7494 397.964 60.7388 398.145L60.7235 398.514C60.5129 398.556 60.3342 398.547 60.1874 398.485C60.0405 398.418 59.9667 398.314 59.9658 398.173C59.9652 398.074 60.0056 397.975 60.087 397.877C60.1742 397.779 60.2879 397.688 60.4279 397.603C60.5679 397.512 60.7197 397.436 60.8834 397.375C61.047 397.314 61.2078 397.273 61.3658 397.253C61.7993 397.262 62.1457 397.383 62.4049 397.617C62.6699 397.851 62.8065 398.153 62.8147 398.522L62.8063 399.998C62.807 400.109 62.8106 400.218 62.8171 400.323C62.8295 400.429 62.8446 400.509 62.8625 400.562L63.4255 400.679L63.4272 400.951L62.9976 401.1C62.9158 401.128 62.8398 401.15 62.7696 401.166C62.6995 401.188 62.641 401.199 62.5941 401.198C62.4125 401.194 62.2947 401.089 62.2407 400.883L62.1419 400.538L62.2737 400.541C62.0817 400.754 61.8953 400.914 61.7144 401.021C61.5393 401.123 61.358 401.172 61.1706 401.168ZM61.4046 400.655C61.5393 400.657 61.6651 400.631 61.7819 400.574C61.8987 400.512 62.0123 400.418 62.1228 400.292L62.117 399.369L61.1345 399.612C60.9941 399.644 60.892 399.698 60.828 399.773C60.7699 399.848 60.7412 399.944 60.7419 400.061C60.7429 400.207 60.8081 400.343 60.9378 400.469C61.0732 400.589 61.2289 400.651 61.4046 400.655ZM66.2287 400.745C66.2401 400.699 66.251 400.561 66.2613 400.333C66.2715 400.099 66.2756 399.806 66.2734 399.454L66.2631 397.802C66.2607 397.421 66.2529 397.114 66.2398 396.879C66.2266 396.644 66.214 396.509 66.2021 396.474L65.6655 396.375L65.681 396.033L67.7723 396.076C68.3464 396.088 68.7806 396.205 69.0749 396.428C69.3749 396.645 69.5262 396.953 69.5287 397.351C69.5307 397.673 69.4065 397.943 69.1559 398.161C68.9054 398.378 68.5782 398.497 68.1741 398.518L68.0683 398.455C68.6249 398.484 69.0533 398.615 69.3535 398.85C69.6537 399.079 69.805 399.393 69.8075 399.791C69.8103 400.248 69.6163 400.607 69.2255 400.869C68.8347 401.124 68.3024 401.245 67.6287 401.231L65.7131 401.192L65.6935 400.857L66.2287 400.745ZM67.0127 399.663C67.0143 399.921 67.0187 400.155 67.0259 400.366C67.033 400.572 67.0397 400.701 67.0459 400.753C67.1221 400.767 67.2247 400.783 67.3537 400.804C67.4826 400.818 67.5852 400.826 67.6613 400.828C68.1124 400.837 68.4488 400.762 68.6703 400.602C68.8978 400.443 69.0105 400.196 69.0084 399.862C69.0062 399.517 68.8845 399.256 68.6433 399.082C68.4079 398.901 68.0529 398.806 67.5784 398.796C67.3558 398.791 67.2006 398.788 67.1127 398.786C67.0307 398.785 66.9575 398.789 66.8931 398.799L66.8903 398.342C67.0016 398.351 67.1071 398.359 67.2067 398.366C67.3063 398.369 67.4147 398.371 67.5318 398.373C67.9185 398.381 68.2138 398.302 68.4178 398.137C68.6276 397.971 68.7315 397.733 68.7296 397.422C68.7277 397.118 68.6296 396.884 68.4353 396.722C68.241 396.554 67.9622 396.466 67.599 396.459L67.0102 396.447C67.0046 396.488 66.9996 396.619 66.9951 396.842C66.9965 397.064 66.9981 397.313 66.9998 397.589L67.0127 399.663Z" fill="white"/>
<path d="M274.114 97.7587L274.076 97.3156L274.75 97.166C274.758 97.1351 274.765 97.0693 274.772 96.9686C274.779 96.8601 274.782 96.6894 274.78 96.4565C274.786 96.2239 274.788 95.9096 274.785 95.5137L274.78 93.1506C274.777 92.7625 274.771 92.4597 274.762 92.2422C274.753 92.017 274.744 91.8538 274.735 91.7528C274.735 91.6441 274.73 91.5781 274.722 91.5546L273.999 91.3656L274.031 90.9239L276.511 90.9733C277.279 90.9887 277.878 91.1713 278.307 91.5214C278.736 91.8636 278.953 92.353 278.957 92.9894C278.96 93.4241 278.851 93.7983 278.628 94.112C278.413 94.4259 278.12 94.6684 277.748 94.8395C277.377 95.0028 276.962 95.0799 276.505 95.0708C276.334 95.0674 276.171 95.0563 276.016 95.0377C275.868 95.0115 275.728 94.9854 275.596 94.9595L275.592 94.3308C275.77 94.3887 275.926 94.4306 276.058 94.4565C276.198 94.4826 276.334 94.497 276.466 94.4996C276.924 94.5087 277.28 94.4033 277.534 94.1833C277.789 93.9556 277.914 93.6011 277.911 93.1199C277.907 92.5688 277.76 92.1623 277.472 91.9005C277.183 91.6309 276.821 91.4917 276.386 91.4831L275.769 91.4707C275.77 91.5173 275.766 91.6259 275.76 91.7965C275.761 91.9673 275.759 92.1729 275.753 92.4133C275.754 92.6462 275.756 92.8984 275.758 93.1701L275.786 95.5337C275.789 95.9296 275.795 96.244 275.805 96.477C275.814 96.7022 275.823 96.8692 275.831 96.9781C275.84 97.0791 275.844 97.1452 275.844 97.1762L276.812 97.3468L276.78 97.8118L274.114 97.7587ZM279.795 97.872L279.769 97.4407L280.547 97.2933C280.555 97.2624 280.558 97.2081 280.558 97.1305C280.565 97.0531 280.572 96.929 280.578 96.7584C280.585 96.5878 280.587 96.3512 280.585 96.0485L280.58 95.2801C280.577 94.9619 280.568 94.6706 280.55 94.4064C280.533 94.1422 280.512 93.9362 280.488 93.7882L279.707 93.6097L279.704 93.2255L281.354 92.8277L281.53 92.9942C281.508 93.2343 281.49 93.4707 281.476 93.7032C281.47 93.9359 281.468 94.2075 281.47 94.5179L281.481 95.9849C281.483 96.3419 281.489 96.6369 281.499 96.8699C281.516 97.1031 281.532 97.2509 281.548 97.3133L282.329 97.4918L282.309 97.9221L279.795 97.872ZM281.007 91.5054C280.813 91.5015 280.642 91.4321 280.493 91.2972C280.353 91.1625 280.282 90.9981 280.28 90.8041C280.279 90.61 280.348 90.4484 280.486 90.3193C280.633 90.1903 280.803 90.1277 280.997 90.1316C281.199 90.1356 281.366 90.2049 281.499 90.3395C281.632 90.474 281.699 90.6384 281.7 90.8324C281.702 91.0264 281.637 91.1881 281.506 91.3174C281.375 91.4467 281.209 91.5094 281.007 91.5054ZM282.961 97.9351L282.935 97.5155L283.655 97.3553C283.663 97.3011 283.666 97.2274 283.665 97.1343C283.672 97.0413 283.679 96.9134 283.686 96.7506C283.693 96.5877 283.695 96.3744 283.693 96.1105L283.698 95.2142C283.697 94.9581 283.683 94.7056 283.658 94.4568C283.641 94.2003 283.62 93.9982 283.596 93.8502L282.849 93.6724L282.847 93.2882L284.404 92.8885L284.603 93.0787L284.549 93.6946L284.584 93.707C284.853 93.4174 285.12 93.2093 285.383 93.0827C285.645 92.956 285.932 92.8957 286.243 92.9019C286.53 92.9076 286.798 92.9867 287.047 93.1391C287.304 93.284 287.512 93.5054 287.669 93.8034C287.834 94.1016 287.918 94.4797 287.921 94.9376L287.93 96.2299C287.932 96.5093 287.938 96.7617 287.947 96.9869C287.964 97.2123 287.985 97.364 288.009 97.4421L288.732 97.6311L288.7 98.0496L286.36 98.0029L286.334 97.5833L287.008 97.4221C287.015 97.3602 287.022 97.2827 287.029 97.1898C287.036 97.0968 287.039 96.9804 287.039 96.8407C287.045 96.6934 287.048 96.5111 287.046 96.2938L287.037 95.0364C287.035 94.6871 286.971 94.4103 286.845 94.2061C286.727 93.9942 286.579 93.8438 286.4 93.7548C286.221 93.6581 286.038 93.6079 285.852 93.6042C285.596 93.5991 285.356 93.6603 285.131 93.7877C284.915 93.9076 284.73 94.0785 284.576 94.3005L284.589 96.0469C284.591 96.4039 284.597 96.695 284.607 96.9203C284.624 97.1379 284.64 97.2896 284.656 97.3752L285.379 97.5643L285.347 97.9827L282.961 97.9351ZM293.013 97.4139C292.868 97.6671 292.667 97.8648 292.412 98.0072C292.157 98.1418 291.89 98.2063 291.61 98.2007C291.137 98.1913 290.748 98.04 290.443 97.7468C290.139 97.4535 289.984 97.0198 289.98 96.4454L289.996 93.6636L289.181 93.6473L289.179 93.4028L290.671 92.0706L290.892 92.075L290.878 93.4134L290.887 96.2772C290.89 96.6808 290.977 96.9814 291.149 97.1788C291.329 97.3764 291.578 97.4784 291.896 97.4847C292.075 97.4883 292.238 97.4566 292.385 97.3897C292.539 97.3229 292.678 97.2326 292.802 97.1186L293.013 97.4139ZM290.461 93.6729L290.457 93.0907L292.634 93.1341L292.638 93.7163L290.461 93.6729ZM298.239 97.425L298.974 97.6259L298.976 98.0101L297.466 98.3524L297.29 98.1976L297.297 97.4644L297.262 97.452C297.039 97.7658 296.808 97.9862 296.568 98.1134C296.336 98.2329 296.084 98.29 295.813 98.2846C295.293 98.2742 294.857 98.1064 294.506 97.7812C294.154 97.4483 293.976 96.9597 293.971 96.3155L293.964 95.3142C293.963 95.0969 293.954 94.8872 293.937 94.6851C293.927 94.4754 293.914 94.2656 293.897 94.0557L293.105 93.8769L293.102 93.4927L294.682 93.0935L294.893 93.284C294.879 93.5243 294.869 93.7802 294.863 94.0517C294.857 94.3232 294.856 94.6064 294.858 94.9013L294.855 96.1818C294.858 96.663 294.973 97.0106 295.2 97.2247C295.426 97.431 295.714 97.5376 296.063 97.5446C296.273 97.5487 296.486 97.4987 296.703 97.3943C296.919 97.29 297.108 97.1075 297.269 96.8469L297.259 95.4963C297.258 95.3256 297.253 95.1586 297.244 94.9955C297.243 94.8247 297.238 94.6655 297.229 94.5179C297.22 94.3625 297.208 94.2304 297.192 94.1214L296.341 93.9414L296.338 93.5572L297.976 93.1592L298.152 93.3257C298.146 93.5429 298.139 93.7367 298.133 93.9073C298.134 94.0781 298.135 94.2489 298.136 94.4196C298.138 94.5826 298.139 94.7689 298.14 94.9784L298.146 95.8051C298.149 96.2319 298.159 96.5775 298.177 96.8417C298.202 97.0983 298.223 97.2927 298.239 97.425ZM301.923 98.3133L301.897 97.8937L302.559 97.7323C302.566 97.6548 302.573 97.5308 302.58 97.3602C302.586 97.1819 302.593 96.9608 302.598 96.6971C302.604 96.4256 302.606 96.1229 302.604 95.7892L302.592 94.101C302.59 93.8061 302.584 93.5072 302.574 93.2043C302.572 92.8939 302.566 92.5989 302.556 92.3193C302.554 92.0399 302.548 91.8031 302.539 91.6089C302.53 91.4147 302.525 91.2827 302.525 91.2128L301.663 91.0792L301.637 90.7062L303.275 90.2616L303.509 90.4292C303.503 90.6929 303.497 90.9528 303.491 91.2088C303.485 91.457 303.479 91.7169 303.473 91.9884C303.467 92.2521 303.465 92.5353 303.467 92.838C303.469 93.133 303.472 93.4551 303.474 93.8043L303.483 96.6565C303.484 96.8583 303.489 97.0369 303.498 97.1923C303.507 97.3399 303.516 97.4604 303.524 97.5537C303.532 97.6469 303.537 97.713 303.537 97.7518L304.26 97.9408L304.24 98.3595L301.923 98.3133ZM307.138 98.4173L305.811 98.3908C305.67 98.2018 305.56 98.0599 305.482 97.9652C305.404 97.8705 305.322 97.7796 305.236 97.6926L303.629 95.926L303.303 95.9195L303.313 95.6404L303.754 95.5211L305.361 93.9467L304.591 93.7917L304.612 93.3614L306.951 93.4081L306.978 93.8393L306.21 93.9637L304.14 95.7965L304.312 95.3809L305.965 97.1833C306.067 97.2862 306.18 97.4049 306.306 97.5393C306.438 97.6739 306.552 97.7848 306.645 97.872L307.17 97.9872L307.138 98.4173ZM310.002 98.5676C309.552 98.5586 309.144 98.4496 308.778 98.2405C308.42 98.0316 308.13 97.7387 307.91 97.3618C307.698 96.9773 307.59 96.5289 307.587 96.0166C307.583 95.4655 307.692 94.9905 307.914 94.5913C308.136 94.1922 308.429 93.8876 308.792 93.6776C309.155 93.4598 309.547 93.3589 309.966 93.375C310.571 93.3949 311.046 93.6061 311.39 94.0088C311.734 94.4114 311.909 94.9737 311.914 95.6955L311.916 95.9051L308.342 95.8338L308.338 95.3215L311.144 95.3775L311.017 95.5263L311.015 95.2818C311.012 94.8316 310.908 94.4842 310.705 94.2396C310.501 93.9949 310.225 93.8691 309.876 93.8622C309.659 93.8578 309.45 93.9196 309.249 94.0476C309.048 94.1677 308.886 94.3585 308.764 94.6199C308.642 94.8736 308.582 95.1983 308.585 95.5942L308.586 95.7339C308.59 96.3703 308.749 96.8702 309.062 97.2334C309.382 97.5968 309.791 97.7834 310.288 97.7933C310.559 97.7987 310.803 97.7493 311.02 97.645C311.236 97.5406 311.445 97.3702 311.645 97.1336L311.938 97.4072C311.723 97.8064 311.45 98.1036 311.118 98.2988C310.785 98.4862 310.414 98.5758 310.002 98.5676ZM312.679 98.5278L312.653 98.0966L313.408 97.9487C313.423 97.8714 313.434 97.7435 313.44 97.5652C313.447 97.3868 313.449 97.1502 313.447 96.8552C313.453 96.5604 313.454 96.1996 313.451 95.7727L313.441 94.3174C313.439 94.0225 313.433 93.7197 313.423 93.4091C313.42 93.0986 313.414 92.8075 313.405 92.5357C313.403 92.2562 313.397 92.0194 313.388 91.8252C313.387 91.6234 313.382 91.4914 313.374 91.4292L312.511 91.2956L312.486 90.9225L314.147 90.4784L314.369 90.6458C314.364 90.9716 314.358 91.2975 314.353 91.6233C314.347 91.9491 314.342 92.3099 314.337 92.7056C314.34 93.1014 314.343 93.5788 314.347 94.1376L314.349 96.0118C314.352 96.4697 314.359 96.8851 314.369 97.2578C314.387 97.6229 314.404 97.8599 314.421 97.9689L315.179 98.147L315.158 98.5773L312.679 98.5278ZM320.775 97.8744L321.51 98.0753L321.512 98.4595L320.002 98.8019L319.826 98.6471L319.832 97.9138L319.797 97.9015C319.575 98.2152 319.343 98.4357 319.104 98.5628C318.872 98.6824 318.62 98.7394 318.348 98.734C317.828 98.7236 317.393 98.5559 317.041 98.2307C316.69 97.8977 316.512 97.4091 316.507 96.7649L316.5 95.7637C316.499 95.5464 316.489 95.3366 316.472 95.1345C316.463 94.9248 316.45 94.715 316.433 94.5051L315.64 94.3264L315.638 93.9422L317.218 93.543L317.429 93.7334C317.415 93.9737 317.405 94.2296 317.399 94.5011C317.393 94.7726 317.391 95.0559 317.393 95.3508L317.391 96.6312C317.394 97.1124 317.509 97.4601 317.736 97.6741C317.962 97.8804 318.25 97.987 318.599 97.994C318.809 97.9982 319.022 97.9481 319.238 97.8438C319.455 97.7395 319.644 97.557 319.805 97.2963L319.795 95.9458C319.794 95.7751 319.789 95.6081 319.78 95.445C319.779 95.2742 319.774 95.115 319.765 94.9674C319.756 94.812 319.744 94.6798 319.727 94.5708L318.876 94.3909L318.874 94.0067L320.512 93.6087L320.688 93.7751C320.681 93.9923 320.675 94.1862 320.669 94.3568C320.67 94.5276 320.671 94.6983 320.672 94.8691C320.673 95.0321 320.675 95.2183 320.676 95.4279L320.682 96.2545C320.685 96.6814 320.695 97.0269 320.713 97.2911C320.738 97.5477 320.758 97.7422 320.775 97.8744ZM324.087 98.8485C323.777 98.8423 323.501 98.7747 323.259 98.6457C323.018 98.5167 322.827 98.3538 322.686 98.157C322.552 97.9603 322.485 97.7572 322.483 97.5476C322.482 97.2837 322.565 97.0681 322.735 96.9008C322.904 96.7334 323.183 96.5915 323.57 96.4751L325.335 95.9166L325.331 95.3228C325.329 95.1288 325.27 94.953 325.153 94.7955C325.035 94.6301 324.879 94.499 324.684 94.402C324.49 94.305 324.272 94.2541 324.031 94.2493C323.837 94.2454 323.706 94.2854 323.637 94.3694C323.567 94.4457 323.526 94.6039 323.512 94.8442L323.492 95.3327C323.213 95.3893 322.976 95.3768 322.782 95.2953C322.587 95.206 322.489 95.0683 322.488 94.882C322.487 94.7501 322.54 94.6192 322.648 94.4894C322.764 94.3598 322.914 94.2386 323.099 94.1259C323.285 94.0054 323.486 93.9047 323.702 93.8236C323.919 93.7426 324.132 93.6886 324.341 93.6618C324.916 93.6732 325.375 93.8337 325.718 94.1432C326.07 94.4529 326.251 94.8523 326.262 95.3414L326.253 97.2969C326.254 97.4443 326.259 97.588 326.267 97.7279C326.284 97.8679 326.304 97.9731 326.328 98.0434L327.074 98.1979L327.076 98.5589L326.507 98.7571C326.399 98.7937 326.298 98.8227 326.205 98.8442C326.112 98.8733 326.035 98.8873 325.973 98.8861C325.732 98.8813 325.576 98.7424 325.504 98.4693L325.373 98.0127L325.548 98.0162C325.294 98.2983 325.047 98.5106 324.807 98.6533C324.576 98.7884 324.335 98.8534 324.087 98.8485ZM324.397 98.1678C324.575 98.1714 324.742 98.1359 324.896 98.0614C325.051 97.9791 325.201 97.8541 325.348 97.6863L325.339 96.4638L324.038 96.7871C323.852 96.8299 323.716 96.901 323.632 97.0001C323.555 97.0995 323.517 97.2268 323.518 97.382C323.519 97.5761 323.606 97.7563 323.778 97.9227C323.958 98.0815 324.164 98.1632 324.397 98.1678ZM327.707 98.8275L327.669 98.4077L328.389 98.2475C328.397 98.2088 328.404 98.1391 328.411 98.0384C328.418 97.9376 328.421 97.8019 328.42 97.6311C328.426 97.4605 328.429 97.251 328.427 97.0027L328.432 96.0948C328.43 95.8387 328.417 95.5862 328.392 95.3373C328.375 95.0887 328.354 94.8903 328.33 94.7424L327.583 94.5646L327.581 94.1804L329.137 93.7807L329.302 93.9469L329.262 94.924L329.297 94.9363C329.527 94.4908 329.761 94.1928 330.001 94.0424C330.24 93.8842 330.464 93.8072 330.674 93.8113C330.852 93.8149 331 93.8644 331.117 93.9599C331.242 94.0477 331.305 94.1809 331.306 94.3594C331.308 94.5457 331.243 94.688 331.112 94.7863C330.988 94.8769 330.829 94.9203 330.635 94.9164C330.496 94.9137 330.36 94.8799 330.227 94.8152C330.103 94.7506 329.982 94.6628 329.865 94.5518L330.075 94.6259C329.928 94.7161 329.789 94.8452 329.658 95.0134C329.528 95.1737 329.409 95.377 329.302 95.6232L329.321 96.7062C329.33 96.9004 329.339 97.1023 329.349 97.3121C329.358 97.5218 329.367 97.7121 329.376 97.883C329.385 98.0462 329.394 98.1744 329.402 98.2677L330.416 98.4392L330.396 98.8812L327.707 98.8275ZM287.494 107.024L287.468 106.581L288.037 106.43L290.393 100.447L291.065 100.053L293.648 106.541L294.231 106.716L294.199 107.158L291.848 107.111L291.822 106.668L292.53 106.519L291.832 104.782L291.701 104.419L290.41 101.227L290.676 101.081L289.489 104.375L289.364 104.722L288.759 106.444L289.47 106.621L289.45 107.063L287.494 107.024ZM289.109 104.903L289.105 104.286C289.252 104.296 289.454 104.308 289.71 104.321C289.966 104.334 290.28 104.344 290.653 104.351C291.018 104.359 291.328 104.361 291.584 104.358C291.848 104.356 292.05 104.352 292.189 104.347L292.194 104.964C291.93 104.951 291.666 104.942 291.402 104.937C291.146 104.924 290.897 104.915 290.657 104.91C290.424 104.906 290.18 104.905 289.924 104.907C289.675 104.902 289.404 104.901 289.109 104.903ZM294.618 107.166L294.58 106.746L295.301 106.586C295.308 106.547 295.316 106.478 295.323 106.377C295.33 106.276 295.333 106.14 295.332 105.97C295.338 105.799 295.34 105.59 295.339 105.341L295.344 104.433C295.342 104.177 295.329 103.925 295.304 103.676C295.286 103.427 295.266 103.229 295.241 103.081L294.495 102.903L294.492 102.519L296.049 102.119L296.213 102.286L296.174 103.263L296.209 103.275C296.438 102.829 296.673 102.531 296.912 102.381C297.152 102.223 297.376 102.146 297.586 102.15C297.764 102.153 297.912 102.203 298.029 102.298C298.154 102.386 298.217 102.52 298.218 102.698C298.219 102.884 298.154 103.027 298.023 103.125C297.9 103.216 297.741 103.259 297.547 103.255C297.407 103.252 297.271 103.218 297.139 103.154C297.014 103.089 296.893 103.001 296.776 102.89L296.986 102.964C296.84 103.055 296.701 103.184 296.57 103.352C296.439 103.512 296.32 103.716 296.214 103.962L296.233 105.045C296.242 105.239 296.251 105.441 296.26 105.651C296.27 105.86 296.279 106.051 296.288 106.222C296.297 106.385 296.305 106.513 296.314 106.606L297.327 106.778L297.307 107.22L294.618 107.166ZM301.103 107.389C300.653 107.38 300.245 107.271 299.878 107.061C299.52 106.853 299.231 106.56 299.011 106.183C298.799 105.798 298.691 105.35 298.687 104.838C298.683 104.287 298.792 103.811 299.015 103.412C299.237 103.013 299.529 102.709 299.893 102.499C300.256 102.281 300.647 102.18 301.066 102.196C301.671 102.216 302.146 102.427 302.49 102.83C302.835 103.232 303.009 103.795 303.014 104.517L303.016 104.726L299.442 104.655L299.439 104.143L302.244 104.198L302.117 104.347L302.115 104.103C302.112 103.653 302.009 103.305 301.805 103.061C301.602 102.816 301.326 102.69 300.976 102.683C300.759 102.679 300.55 102.741 300.349 102.869C300.148 102.989 299.987 103.18 299.864 103.441C299.742 103.695 299.682 104.019 299.685 104.415L299.686 104.555C299.691 105.191 299.849 105.691 300.162 106.054C300.483 106.418 300.892 106.604 301.388 106.614C301.66 106.62 301.904 106.57 302.12 106.466C302.337 106.362 302.545 106.191 302.745 105.955L303.038 106.228C302.824 106.627 302.55 106.925 302.218 107.12C301.886 107.307 301.514 107.397 301.103 107.389ZM305.736 107.481C305.425 107.475 305.149 107.407 304.908 107.278C304.666 107.149 304.475 106.986 304.334 106.789C304.201 106.593 304.133 106.39 304.132 106.18C304.13 105.916 304.214 105.701 304.383 105.533C304.553 105.366 304.831 105.224 305.218 105.108L306.984 104.549L306.979 103.955C306.978 103.761 306.919 103.586 306.801 103.428C306.683 103.263 306.527 103.131 306.333 103.034C306.138 102.937 305.92 102.887 305.68 102.882C305.486 102.878 305.354 102.918 305.285 103.002C305.216 103.078 305.174 103.236 305.16 103.477L305.14 103.965C304.862 104.022 304.625 104.009 304.43 103.928C304.236 103.839 304.138 103.701 304.136 103.514C304.135 103.383 304.189 103.252 304.297 103.122C304.412 102.992 304.562 102.871 304.748 102.758C304.933 102.638 305.134 102.537 305.351 102.456C305.568 102.375 305.781 102.321 305.99 102.294C306.564 102.306 307.023 102.466 307.367 102.776C307.718 103.085 307.899 103.485 307.911 103.974L307.901 105.929C307.902 106.077 307.907 106.221 307.916 106.36C307.932 106.5 307.952 106.606 307.976 106.676L308.722 106.83L308.725 107.191L308.156 107.39C308.047 107.426 307.947 107.455 307.854 107.477C307.761 107.506 307.683 107.52 307.621 107.519C307.381 107.514 307.225 107.375 307.153 107.102L307.022 106.645L307.196 106.649C306.942 106.931 306.695 107.143 306.456 107.286C306.224 107.421 305.984 107.486 305.736 107.481ZM306.045 106.8C306.224 106.804 306.39 106.768 306.545 106.694C306.699 106.612 306.85 106.487 306.996 106.319L306.987 105.096L305.686 105.42C305.5 105.462 305.365 105.533 305.28 105.633C305.203 105.732 305.165 105.859 305.167 106.015C305.168 106.209 305.255 106.389 305.426 106.555C305.606 106.714 305.812 106.796 306.045 106.8ZM312.436 106.916C312.451 106.854 312.465 106.672 312.478 106.37C312.492 106.06 312.497 105.672 312.493 105.206L312.478 103.017C312.474 102.513 312.464 102.105 312.446 101.794C312.428 101.484 312.411 101.305 312.396 101.258L311.685 101.127L311.705 100.674L314.475 100.729C315.236 100.744 315.811 100.899 316.201 101.194C316.599 101.481 316.799 101.889 316.803 102.417C316.806 102.844 316.642 103.201 316.31 103.49C315.979 103.778 315.545 103.936 315.01 103.964L314.87 103.88C315.607 103.918 316.175 104.092 316.573 104.403C316.971 104.706 317.171 105.121 317.175 105.649C317.179 106.254 316.923 106.73 316.405 107.077C315.888 107.416 315.183 107.576 314.291 107.558L311.753 107.508L311.727 107.065L312.436 106.916ZM313.473 105.482C313.475 105.823 313.481 106.134 313.491 106.413C313.501 106.685 313.51 106.856 313.518 106.926C313.619 106.944 313.755 106.966 313.926 106.992C314.097 107.011 314.233 107.022 314.333 107.024C314.931 107.036 315.376 106.936 315.67 106.725C315.971 106.513 316.12 106.186 316.117 105.744C316.113 105.286 315.952 104.941 315.632 104.71C315.32 104.471 314.85 104.345 314.221 104.333C313.926 104.327 313.721 104.323 313.604 104.32C313.496 104.318 313.399 104.324 313.313 104.338L313.309 103.732C313.457 103.743 313.596 103.754 313.728 103.764C313.86 103.767 314.004 103.77 314.159 103.773C314.671 103.783 315.062 103.678 315.332 103.458C315.61 103.239 315.748 102.923 315.745 102.512C315.742 102.108 315.612 101.799 315.354 101.585C315.096 101.362 314.727 101.246 314.246 101.237L313.466 101.221C313.459 101.275 313.452 101.45 313.446 101.745C313.449 102.039 313.451 102.369 313.453 102.734L313.473 105.482Z" fill="white"/>
<g clip-path="url(#clip0_277_1274)">
<path d="M319.475 52.6376L314.026 46.8909M314.026 46.8909L308.279 52.3403M314.026 46.8909L313.669 60.3263M323.746 60.5939L323.627 65.0723C323.611 65.6662 323.36 66.2295 322.929 66.6383C322.498 67.0471 321.922 67.2679 321.328 67.2521L305.653 66.8358C305.059 66.8201 304.496 66.569 304.087 66.1379C303.679 65.7068 303.458 65.131 303.474 64.5371L303.592 60.0587" stroke="white" stroke-width="2.64936" stroke-linecap="round" stroke-linejoin="round"/>
</g>
<path d="M58.0299 359.397L61.4224 359.497C61.8723 359.51 62.3028 359.726 62.6193 360.097C62.9357 360.468 63.1121 360.964 63.1097 361.475L63.0559 373.042C63.0535 373.553 62.8725 374.038 62.5527 374.39C62.2329 374.742 61.8005 374.932 61.3506 374.919L57.958 374.818L57.967 372.891L61.3596 372.991L61.4135 361.425L58.0209 361.324L58.0299 359.397Z" fill="white"/>
<path d="M52.4992 362.248L51.2898 363.299L54.6003 366.45L46.8449 366.22C46.62 366.213 46.4039 366.288 46.2441 366.428C46.0844 366.568 45.9941 366.762 45.9932 366.967C45.9922 367.171 46.0807 367.37 46.239 367.52C46.3974 367.669 46.6128 367.757 46.8377 367.764L54.6084 367.994L51.2186 370.941L52.4077 372.073L57.8509 367.341L52.4992 362.248Z" fill="white"/>
<path d="M203.62 423.781C203.618 424.083 203.597 424.379 203.556 424.671C205.058 425.529 206.184 426.919 206.71 428.567C207.237 430.214 207.125 431.999 206.398 433.569C205.671 435.138 204.382 436.378 202.785 437.042C201.188 437.706 199.399 437.746 197.774 437.155L197.747 441.001L195.446 440.985L195.475 436.842C194.144 437.511 192.619 437.688 191.17 437.344C189.721 436.999 188.44 436.154 187.553 434.958C186.665 433.762 186.228 432.291 186.318 430.804C186.408 429.317 187.02 427.91 188.045 426.829C188.486 428.064 189.186 429.189 190.097 430.131L191.751 428.532C190.496 427.232 189.8 425.492 189.813 423.685C189.825 421.854 190.565 420.104 191.869 418.818C193.172 417.532 194.933 416.817 196.764 416.83C198.595 416.842 200.346 417.582 201.632 418.886C202.918 420.189 203.633 421.95 203.62 423.781Z" fill="#1FAF38"/>
<path d="M96.3232 419.57C96.3211 419.872 96.2999 420.168 96.2595 420.46C97.7616 421.318 98.8872 422.708 99.4134 424.356C99.9397 426.003 99.8283 427.788 99.1014 429.358C98.3744 430.927 97.0848 432.167 95.4878 432.831C93.8907 433.495 92.1025 433.535 90.4771 432.944L90.4504 436.79L88.1492 436.774L88.1779 432.631C86.8468 433.3 85.3225 433.477 83.8734 433.133C82.4243 432.788 81.1432 431.943 80.2557 430.747C79.3681 429.551 78.9309 428.08 79.021 426.593C79.1112 425.106 79.7229 423.699 80.7484 422.619C81.1895 423.853 81.889 424.978 82.8002 425.92L84.4544 424.321C83.1989 423.021 82.5029 421.281 82.5158 419.475C82.5285 417.644 83.268 415.893 84.5717 414.607C85.8754 413.321 87.6364 412.606 89.4674 412.619C91.2984 412.631 93.0493 413.371 94.335 414.675C95.6207 415.978 96.3359 417.739 96.3232 419.57Z" fill="#1FAF38"/>
<path d="M235.784 424.422C235.782 424.723 235.761 425.02 235.72 425.312C237.223 426.169 238.348 427.559 238.874 429.207C239.401 430.855 239.289 432.64 238.562 434.209C237.835 435.779 236.546 437.018 234.949 437.682C233.352 438.346 231.563 438.387 229.938 437.796L229.911 441.641L227.61 441.625L227.639 437.483C226.308 438.151 224.783 438.329 223.334 437.984C221.885 437.639 220.604 436.794 219.717 435.598C218.829 434.402 218.392 432.931 218.482 431.444C218.572 429.957 219.184 428.55 220.209 427.47C220.65 428.704 221.35 429.83 222.261 430.772L223.915 429.172C222.66 427.873 221.964 426.133 221.977 424.326C221.989 422.495 222.729 420.744 224.033 419.458C225.336 418.173 227.097 417.457 228.928 417.47C230.759 417.483 232.51 418.222 233.796 419.526C235.082 420.83 235.797 422.591 235.784 424.422Z" fill="#1FAF38"/>
<g clip-path="url(#clip1_277_1274)">
<path d="M317.589 425.125C317.587 425.426 317.565 425.723 317.525 426.015C319.027 426.872 320.153 428.262 320.679 429.91C321.205 431.558 321.094 433.343 320.367 434.912C319.64 436.482 318.35 437.721 316.753 438.385C315.156 439.049 313.368 439.09 311.743 438.499L311.716 442.344L309.415 442.328L309.444 438.186C308.112 438.854 306.588 439.032 305.139 438.687C303.69 438.342 302.409 437.498 301.521 436.301C300.634 435.105 300.197 433.634 300.287 432.147C300.377 430.661 300.988 429.253 302.014 428.173C302.455 429.407 303.155 430.533 304.066 431.475L305.72 429.875C304.465 428.576 303.769 426.836 303.781 425.029C303.794 423.198 304.534 421.447 305.837 420.161C307.141 418.876 308.902 418.16 310.733 418.173C312.564 418.186 314.315 418.925 315.601 420.229C316.886 421.533 317.602 423.294 317.589 425.125Z" fill="#1FAF38"/>
</g>
<g clip-path="url(#clip2_277_1274)">
<path d="M216.471 325.657L216.652 329.172C216.676 329.634 216.791 330.086 216.989 330.503C217.188 330.921 217.467 331.295 217.81 331.605C218.153 331.914 218.554 332.153 218.99 332.308C219.425 332.462 219.887 332.53 220.349 332.506L222.904 332.374C223.366 332.35 223.818 332.235 224.236 332.037C224.653 331.838 225.027 331.559 225.337 331.216C225.646 330.872 225.885 330.471 226.039 330.036C226.194 329.6 226.261 329.138 226.237 328.677L226.056 325.162L216.471 325.657ZM223.472 319.479C223.574 319.556 223.641 319.67 223.659 319.796C223.676 319.922 223.643 320.05 223.567 320.152C223.148 320.707 223.068 321.075 223.218 321.311C223.265 321.384 223.664 321.948 223.759 322.124C223.971 322.521 224.017 322.913 223.875 323.388C223.771 323.728 223.611 324.05 223.401 324.338L226.098 324.198C226.403 324.194 226.627 324.26 226.771 324.397C226.851 324.472 226.911 324.569 226.951 324.689L226.993 324.685C227.628 324.652 228.251 324.873 228.724 325.299C229.196 325.726 229.48 326.322 229.513 326.958C229.546 327.594 229.325 328.216 228.899 328.689C228.473 329.162 227.876 329.446 227.24 329.479L227.16 329.48C227.015 330.51 226.516 331.458 225.749 332.161C224.981 332.864 223.994 333.278 222.954 333.332L220.397 333.464C219.81 333.495 219.222 333.409 218.668 333.212C218.114 333.015 217.603 332.711 217.167 332.317C216.73 331.923 216.375 331.447 216.122 330.916C215.869 330.385 215.723 329.809 215.693 329.222L215.505 325.589C215.476 325.289 215.522 325.073 215.642 324.941C215.763 324.81 215.947 324.733 216.194 324.711L218.246 324.605C218.271 324.559 218.303 324.517 218.34 324.481C218.746 324.1 219.003 323.71 219.122 323.312C219.189 323.086 219.173 322.954 219.079 322.777C219.018 322.664 218.649 322.143 218.575 322.025C218.166 321.383 218.333 320.613 218.966 319.774C219.003 319.721 219.05 319.676 219.105 319.642C219.16 319.608 219.221 319.585 219.284 319.575C219.348 319.565 219.413 319.568 219.475 319.584C219.538 319.599 219.597 319.627 219.648 319.666C219.699 319.705 219.743 319.754 219.775 319.81C219.807 319.865 219.828 319.927 219.835 319.991C219.843 320.055 219.838 320.12 219.821 320.182C219.803 320.244 219.773 320.301 219.732 320.351C219.314 320.906 219.234 321.274 219.385 321.51C219.431 321.584 219.831 322.148 219.925 322.323C220.137 322.72 220.183 323.113 220.041 323.587C219.937 323.928 219.777 324.249 219.568 324.537L220.164 324.506C220.188 324.46 220.22 324.419 220.258 324.383C220.662 324.001 220.92 323.611 221.038 323.213C221.106 322.986 221.091 322.855 220.995 322.678C220.935 322.565 220.566 322.044 220.492 321.926C220.083 321.284 220.25 320.514 220.883 319.675C220.92 319.621 220.967 319.575 221.022 319.54C221.077 319.505 221.138 319.482 221.202 319.472C221.266 319.461 221.332 319.464 221.395 319.479C221.458 319.495 221.517 319.523 221.569 319.562C221.621 319.601 221.665 319.65 221.697 319.707C221.729 319.763 221.75 319.826 221.757 319.89C221.765 319.955 221.759 320.02 221.74 320.082C221.722 320.145 221.691 320.202 221.649 320.252C221.231 320.807 221.151 321.175 221.301 321.411C221.348 321.485 221.748 322.049 221.842 322.224C222.055 322.621 222.1 323.014 221.958 323.488C221.854 323.829 221.694 324.15 221.484 324.438L222.081 324.407C222.106 324.361 222.137 324.32 222.175 324.284C222.58 323.902 222.837 323.512 222.955 323.114C223.023 322.887 223.008 322.756 222.912 322.579C222.852 322.466 222.484 321.945 222.409 321.827C222.001 321.185 222.167 320.415 222.8 319.576C222.877 319.474 222.991 319.407 223.117 319.389C223.243 319.372 223.37 319.404 223.472 319.481M227.042 325.645L227.19 328.521C227.572 328.501 227.929 328.331 228.185 328.047C228.441 327.764 228.574 327.39 228.554 327.009C228.534 326.627 228.364 326.269 228.08 326.014C227.797 325.758 227.423 325.625 227.042 325.645Z" fill="black"/>
</g>
<path d="M262.359 444.441L262.387 447.835C262.391 448.281 262.489 448.724 262.676 449.139C262.863 449.554 263.135 449.933 263.477 450.255C263.818 450.576 264.223 450.834 264.667 451.013C265.112 451.192 265.587 451.288 266.067 451.297L268.721 451.347C269.201 451.356 269.675 451.277 270.117 451.115C270.558 450.953 270.958 450.711 271.295 450.402C271.631 450.093 271.897 449.724 272.077 449.316C272.257 448.907 272.348 448.468 272.344 448.022L272.315 444.629L262.359 444.441ZM269.896 438.985C269.998 439.065 270.062 439.179 270.075 439.302C270.088 439.425 270.048 439.545 269.964 439.638C269.504 440.142 269.405 440.491 269.55 440.728C269.595 440.802 269.983 441.372 270.073 441.548C270.275 441.944 270.304 442.325 270.136 442.771C270.013 443.092 269.832 443.39 269.602 443.652L272.404 443.705C272.719 443.722 272.949 443.801 273.091 443.943C273.171 444.021 273.229 444.118 273.265 444.236L273.308 444.235C273.968 444.248 274.604 444.503 275.074 444.946C275.545 445.389 275.812 445.982 275.817 446.596C275.822 447.209 275.565 447.793 275.102 448.218C274.639 448.643 274.007 448.875 273.347 448.863L273.263 448.859C273.066 449.84 272.506 450.717 271.679 451.34C270.852 451.963 269.809 452.292 268.73 452.273L266.074 452.223C265.464 452.211 264.858 452.088 264.293 451.86C263.727 451.633 263.212 451.305 262.777 450.896C262.343 450.487 261.996 450.004 261.758 449.476C261.521 448.947 261.396 448.383 261.391 447.816L261.362 444.31C261.345 444.019 261.402 443.814 261.533 443.696C261.664 443.578 261.858 443.516 262.115 443.512L264.247 443.552C264.275 443.51 264.309 443.472 264.35 443.44C264.788 443.102 265.072 442.745 265.213 442.37C265.294 442.156 265.283 442.029 265.193 441.852C265.136 441.74 264.777 441.212 264.705 441.094C264.31 440.448 264.519 439.719 265.213 438.956C265.253 438.907 265.304 438.868 265.363 438.839C265.421 438.81 265.485 438.792 265.551 438.787C265.618 438.782 265.685 438.789 265.749 438.808C265.813 438.828 265.873 438.859 265.924 438.899C265.976 438.94 266.018 438.99 266.049 439.046C266.08 439.102 266.099 439.163 266.104 439.225C266.109 439.287 266.101 439.349 266.08 439.407C266.059 439.465 266.025 439.519 265.981 439.564C265.521 440.069 265.423 440.417 265.568 440.655C265.612 440.729 266.001 441.299 266.09 441.474C266.292 441.871 266.322 442.252 266.153 442.698C266.03 443.018 265.85 443.316 265.619 443.579L266.239 443.59C266.266 443.548 266.301 443.51 266.342 443.478C266.779 443.139 267.063 442.782 267.204 442.407C267.285 442.194 267.275 442.066 267.184 441.889C267.127 441.777 266.768 441.25 266.696 441.132C266.302 440.485 266.51 439.757 267.204 438.993C267.245 438.944 267.296 438.903 267.354 438.873C267.413 438.844 267.477 438.825 267.544 438.82C267.611 438.814 267.679 438.821 267.744 438.84C267.808 438.86 267.868 438.891 267.92 438.932C267.972 438.973 268.015 439.024 268.046 439.08C268.077 439.137 268.095 439.198 268.1 439.261C268.105 439.323 268.096 439.386 268.074 439.444C268.052 439.503 268.017 439.557 267.972 439.602C267.513 440.106 267.414 440.455 267.559 440.692C267.604 440.766 267.992 441.336 268.082 441.512C268.284 441.908 268.313 442.289 268.145 442.735C268.021 443.056 267.841 443.354 267.611 443.616L268.231 443.628C268.258 443.585 268.293 443.548 268.333 443.516C268.771 443.176 269.054 442.819 269.195 442.444C269.276 442.231 269.266 442.104 269.175 441.927C269.118 441.814 268.76 441.287 268.687 441.169C268.293 440.523 268.501 439.794 269.196 439.03C269.28 438.938 269.401 438.881 269.532 438.873C269.663 438.865 269.794 438.905 269.896 438.986M273.315 445.162L273.339 447.938C273.735 447.946 274.113 447.807 274.391 447.551C274.669 447.296 274.824 446.946 274.821 446.578C274.818 446.21 274.657 445.854 274.375 445.588C274.093 445.323 273.711 445.169 273.315 445.162Z" fill="black"/>
<path d="M131.32 440.617L131.348 444.01C131.352 444.456 131.45 444.899 131.637 445.314C131.824 445.729 132.096 446.109 132.438 446.43C132.779 446.752 133.184 447.009 133.628 447.188C134.073 447.367 134.548 447.464 135.028 447.473L137.682 447.523C138.162 447.532 138.636 447.453 139.077 447.291C139.519 447.128 139.919 446.886 140.256 446.577C140.592 446.268 140.858 445.899 141.038 445.491C141.218 445.083 141.309 444.643 141.305 444.197L141.276 440.804L131.32 440.617ZM138.857 435.16C138.959 435.241 139.023 435.355 139.036 435.477C139.049 435.6 139.009 435.721 138.925 435.813C138.465 436.318 138.366 436.666 138.511 436.904C138.556 436.978 138.944 437.548 139.034 437.723C139.236 438.119 139.265 438.5 139.097 438.947C138.974 439.267 138.793 439.565 138.563 439.828L141.365 439.88C141.68 439.897 141.91 439.976 142.052 440.118C142.132 440.196 142.19 440.294 142.226 440.411L142.269 440.41C142.929 440.423 143.565 440.679 144.035 441.121C144.506 441.564 144.773 442.157 144.778 442.771C144.783 443.385 144.526 443.968 144.063 444.394C143.599 444.819 142.968 445.051 142.308 445.038L142.224 445.034C142.027 446.015 141.467 446.892 140.64 447.515C139.813 448.138 138.77 448.468 137.691 448.448L135.035 448.398C134.424 448.387 133.819 448.263 133.254 448.036C132.688 447.808 132.173 447.48 131.738 447.071C131.303 446.662 130.957 446.179 130.719 445.651C130.482 445.123 130.357 444.559 130.352 443.992L130.323 440.485C130.306 440.194 130.363 439.989 130.494 439.871C130.625 439.753 130.819 439.692 131.076 439.687L133.208 439.728C133.235 439.685 133.27 439.647 133.311 439.615C133.748 439.277 134.033 438.92 134.174 438.545C134.254 438.332 134.244 438.204 134.154 438.027C134.096 437.915 133.738 437.387 133.666 437.269C133.271 436.623 133.48 435.895 134.173 435.131C134.214 435.083 134.265 435.043 134.323 435.014C134.382 434.985 134.446 434.967 134.512 434.962C134.579 434.957 134.646 434.964 134.71 434.983C134.774 435.003 134.834 435.034 134.885 435.075C134.937 435.116 134.979 435.165 135.01 435.221C135.041 435.277 135.06 435.338 135.065 435.4C135.07 435.462 135.062 435.524 135.041 435.582C135.02 435.641 134.986 435.694 134.942 435.74C134.482 436.244 134.384 436.593 134.528 436.83C134.573 436.904 134.962 437.474 135.051 437.65C135.253 438.046 135.283 438.427 135.114 438.873C134.991 439.194 134.811 439.491 134.58 439.754L135.2 439.766C135.227 439.723 135.262 439.685 135.303 439.654C135.74 439.314 136.024 438.957 136.165 438.582C136.246 438.369 136.236 438.241 136.145 438.065C136.088 437.952 135.729 437.425 135.657 437.307C135.263 436.661 135.471 435.932 136.165 435.168C136.206 435.119 136.257 435.079 136.315 435.049C136.373 435.019 136.438 435.001 136.505 434.995C136.572 434.989 136.64 434.996 136.704 435.016C136.769 435.035 136.829 435.066 136.881 435.107C136.933 435.149 136.976 435.199 137.007 435.256C137.038 435.312 137.056 435.373 137.061 435.436C137.066 435.499 137.057 435.561 137.035 435.62C137.013 435.678 136.978 435.732 136.933 435.777C136.474 436.282 136.375 436.63 136.52 436.868C136.565 436.941 136.953 437.512 137.043 437.687C137.245 438.083 137.274 438.464 137.106 438.911C136.982 439.231 136.802 439.529 136.572 439.791L137.192 439.803C137.219 439.761 137.254 439.723 137.294 439.691C137.731 439.352 138.015 438.995 138.156 438.62C138.237 438.407 138.227 438.279 138.136 438.102C138.079 437.99 137.721 437.462 137.648 437.344C137.254 436.698 137.462 435.969 138.156 435.206C138.241 435.113 138.361 435.057 138.493 435.048C138.624 435.04 138.755 435.081 138.857 435.161M142.276 441.337L142.299 444.114C142.696 444.121 143.074 443.982 143.352 443.727C143.63 443.472 143.785 443.122 143.782 442.753C143.778 442.385 143.618 442.029 143.336 441.763C143.054 441.498 142.672 441.344 142.276 441.337Z" fill="black"/>
<path d="M207.262 246.129L207.18 239.773C207.178 239.602 207.239 239.438 207.351 239.319C207.462 239.199 207.614 239.133 207.774 239.135C207.933 239.138 208.087 239.208 208.201 239.331C208.316 239.454 208.381 239.62 208.384 239.791L208.466 246.147C208.816 246.018 209.118 245.775 209.329 245.45C209.54 245.125 209.651 244.735 209.645 244.334L209.587 239.809C209.585 239.638 209.646 239.474 209.757 239.354C209.868 239.235 210.02 239.169 210.18 239.171C210.34 239.174 210.493 239.244 210.608 239.367C210.722 239.49 210.788 239.656 210.79 239.827L210.848 244.351C210.858 245.097 210.628 245.817 210.197 246.388C209.766 246.959 209.16 247.347 208.483 247.486L208.601 256.615C208.603 256.787 208.542 256.95 208.43 257.07C208.319 257.19 208.167 257.255 208.008 257.253C207.848 257.251 207.694 257.18 207.58 257.057C207.465 256.934 207.4 256.769 207.398 256.597L207.28 247.468C206.598 247.309 205.983 246.903 205.537 246.319C205.091 245.734 204.842 245.008 204.832 244.262L204.774 239.738C204.772 239.566 204.833 239.402 204.944 239.283C205.056 239.163 205.208 239.097 205.367 239.1C205.527 239.102 205.681 239.172 205.795 239.295C205.909 239.418 205.975 239.584 205.977 239.756L206.036 244.28C206.041 244.681 206.161 245.075 206.381 245.406C206.601 245.737 206.909 245.99 207.262 246.129ZM215.126 249.525C213.413 249.088 212.085 246.939 212.052 244.375C212.015 241.515 213.601 239.222 215.594 239.252C217.588 239.281 219.234 241.622 219.271 244.482C219.304 247.047 218.031 249.156 216.329 249.543L216.422 256.731C216.424 256.903 216.363 257.067 216.251 257.186C216.14 257.306 215.988 257.372 215.828 257.369C215.669 257.367 215.515 257.297 215.401 257.174C215.286 257.051 215.221 256.885 215.218 256.713L215.126 249.525ZM215.711 248.311C216.953 248.329 218.096 246.677 218.068 244.464C218.039 242.251 216.853 240.564 215.611 240.546C214.369 240.527 213.226 242.18 213.255 244.392C213.283 246.605 214.47 248.292 215.711 248.311Z" fill="black"/>
<path d="M258.911 193.748L258.829 187.393C258.827 187.221 258.888 187.057 258.999 186.938C259.11 186.818 259.263 186.752 259.422 186.755C259.582 186.757 259.736 186.827 259.85 186.95C259.964 187.073 260.03 187.239 260.032 187.411L260.114 193.766C260.464 193.637 260.766 193.394 260.977 193.069C261.188 192.744 261.299 192.354 261.294 191.953L261.235 187.428C261.233 187.257 261.294 187.093 261.406 186.974C261.517 186.854 261.669 186.788 261.828 186.79C261.988 186.793 262.142 186.863 262.256 186.986C262.371 187.109 262.436 187.275 262.438 187.446L262.497 191.971C262.507 192.716 262.277 193.436 261.845 194.007C261.414 194.578 260.809 194.966 260.131 195.105L260.249 204.234C260.251 204.406 260.19 204.569 260.079 204.689C259.968 204.809 259.816 204.875 259.656 204.872C259.496 204.87 259.343 204.799 259.228 204.676C259.114 204.553 259.048 204.388 259.046 204.216L258.928 195.087C258.247 194.928 257.631 194.522 257.185 193.938C256.739 193.353 256.49 192.627 256.481 191.881L256.422 187.357C256.42 187.185 256.481 187.022 256.593 186.902C256.704 186.782 256.856 186.716 257.016 186.719C257.175 186.721 257.329 186.792 257.444 186.915C257.558 187.038 257.623 187.203 257.626 187.375L257.684 191.899C257.689 192.301 257.81 192.694 258.029 193.025C258.249 193.356 258.557 193.609 258.911 193.748ZM266.774 197.144C265.061 196.707 263.733 194.559 263.7 191.994C263.663 189.134 265.249 186.841 267.243 186.871C269.237 186.901 270.882 189.241 270.919 192.101C270.952 194.666 269.679 196.776 267.977 197.162L268.07 204.351C268.072 204.522 268.011 204.686 267.9 204.805C267.789 204.925 267.636 204.991 267.477 204.989C267.317 204.986 267.163 204.916 267.049 204.793C266.935 204.67 266.869 204.504 266.867 204.333L266.774 197.144ZM267.36 195.93C268.602 195.948 269.745 194.296 269.716 192.083C269.688 189.87 268.501 188.184 267.26 188.165C266.018 188.147 264.875 189.799 264.903 192.012C264.932 194.225 266.118 195.911 267.36 195.93Z" fill="black"/>
<path d="M312.786 248.636L312.704 242.281C312.702 242.109 312.763 241.946 312.874 241.826C312.985 241.706 313.138 241.64 313.297 241.643C313.457 241.645 313.611 241.716 313.725 241.839C313.839 241.962 313.905 242.127 313.907 242.299L313.989 248.654C314.339 248.526 314.641 248.282 314.852 247.957C315.063 247.633 315.174 247.242 315.169 246.841L315.11 242.317C315.108 242.145 315.169 241.981 315.281 241.862C315.392 241.742 315.544 241.676 315.703 241.679C315.863 241.681 316.017 241.751 316.131 241.874C316.246 241.997 316.311 242.163 316.313 242.335L316.372 246.859C316.382 247.605 316.152 248.324 315.72 248.895C315.289 249.467 314.684 249.854 314.006 249.994L314.124 259.122C314.126 259.294 314.065 259.458 313.954 259.577C313.843 259.697 313.691 259.763 313.531 259.76C313.371 259.758 313.218 259.688 313.103 259.565C312.989 259.441 312.923 259.276 312.921 259.104L312.803 249.976C312.122 249.816 311.506 249.41 311.06 248.826C310.614 248.242 310.365 247.515 310.356 246.769L310.297 242.245C310.295 242.073 310.356 241.91 310.468 241.79C310.579 241.67 310.731 241.604 310.891 241.607C311.05 241.609 311.204 241.68 311.319 241.803C311.433 241.926 311.498 242.091 311.501 242.263L311.559 246.787C311.564 247.189 311.685 247.582 311.904 247.913C312.124 248.245 312.432 248.497 312.786 248.636ZM320.649 252.032C318.936 251.595 317.608 249.447 317.575 246.882C317.538 244.022 319.124 241.729 321.118 241.759C323.112 241.789 324.757 244.129 324.794 246.989C324.827 249.554 323.554 251.664 321.852 252.05L321.945 259.239C321.947 259.41 321.886 259.574 321.775 259.694C321.664 259.813 321.511 259.879 321.352 259.877C321.192 259.874 321.038 259.804 320.924 259.681C320.81 259.558 320.744 259.392 320.742 259.221L320.649 252.032ZM321.235 250.818C322.477 250.836 323.62 249.184 323.591 246.971C323.563 244.758 322.376 243.072 321.135 243.053C319.893 243.035 318.75 244.687 318.778 246.9C318.807 249.113 319.993 250.799 321.235 250.818Z" fill="black"/>
<path d="M259 62H90.5284L54.5937 106.39V279.5L35.9922 312.5V330.5M35.9922 416V537.5H395V62H341.5" stroke="white" stroke-width="0.845523"/>
<defs>
<filter id="filter0_d_277_1274" x="97.6328" y="167.337" width="277.789" height="366.983" filterUnits="userSpaceOnUse" color-interpolation-filters="sRGB">
<feFlood flood-opacity="0" result="BackgroundImageFix"/>
<feColorMatrix in="SourceAlpha" type="matrix" values="0 0 0 0 0 0 0 0 0 0 0 0 0 0 0 0 0 0 127 0" result="hardAlpha"/>
<feOffset dy="4"/>
<feGaussianBlur stdDeviation="2"/>
<feComposite in2="hardAlpha" operator="out"/>
<feColorMatrix type="matrix" values="0 0 0 0 0 0 0 0 0 0 0 0 0 0 0 0 0 0 0.25 0"/>
<feBlend mode="normal" in2="BackgroundImageFix" result="effect1_dropShadow_277_1274"/>
<feBlend mode="normal" in="SourceGraphic" in2="effect1_dropShadow_277_1274" result="shape"/>
</filter>
<clipPath id="clip0_277_1274">
<rect width="26.8802" height="26.8802" fill="white" transform="translate(299.969 70.0459) rotate(-88.4787)"/>
</clipPath>
<clipPath id="clip1_277_1274">
<rect width="27.6154" height="27.6154" fill="white" transform="translate(300.875 416.958) rotate(0.397447)"/>
</clipPath>
<clipPath id="clip2_277_1274">
<rect width="13.9188" height="13.9188" fill="white" transform="translate(215.203 319.796) rotate(-2.95823)"/>
</clipPath>
</defs>
</svg>
